<?xml version="1.0" standalone="no"?>
<!DOCTYPE svg PUBLIC "-//W3C//DTD SVG 1.1//EN" "http://www.w3.org/Graphics/SVG/1.1/DTD/svg11.dtd" >
<svg xmlns="http://www.w3.org/2000/svg" xmlns:xlink="http://www.w3.org/1999/xlink" version="1.1">
<metadata>
Created by FontForge 20150824 at Sat Oct 29 01:06:38 2016
 By Everything Fonts
Copyright (c) 2012 Linotype GmbH, www.linotype.com. All rights reserved. This font software may not be reproduced, modified, disclosed or transferred without the express written approval of Linotype GmbH. Avenir is a trademark of Linotype GmbH registered in the U.S. Patent and Trademark Office and may be registered in certain other jurisdictions. This typeface is original artwork of Adrian Frutiger, Akira Kobayashi. The design may be protected in certain jurisdictions.
</metadata>
<defs>
<font id="AvenirNextRoundedProBold" horiz-adv-x="300" >
  <font-face 
    font-family="AvenirNextRoundedProBold"
    font-weight="700"
    font-stretch="normal"
    units-per-em="1000"
    panose-1="2 11 8 3 2 2 2 2 2 4"
    ascent="750"
    descent="-250"
    x-height="498"
    cap-height="718"
    bbox="-179 -260 1210 971"
    underline-thickness="50"
    underline-position="-150"
    unicode-range="U+000D-FB02"
  />
<missing-glyph horiz-adv-x="512" 
d="M222 146v8q0 18 9 25t19 7t19 -7t9 -25v-8q0 -18 -9 -25t-19 -7t-19 7t-9 25zM50 50h412v617h-412v-617zM0 32v654q0 32 31 32h450q31 0 31 -32v-654q0 -32 -31 -32h-450q-31 0 -31 32zM223 254q0 50 12.5 78t46.5 59q31 29 39.5 47.5t8.5 41.5q0 35 -21.5 57t-52.5 22
q-61 0 -79 -75q-6 -23 -26 -23q-11 0 -18 7.5t-7 17.5q0 5 2 14q24 109 131 109q54 0 89 -34t35 -91q0 -35 -13 -63t-52 -65q-31 -30 -39 -46t-8 -56q0 -27 -24 -27t-24 27z" />
    <glyph glyph-name="IJ" unicode="IJ" horiz-adv-x="837" 
d="M73 86v536q0 54 27.5 75t58.5 21t58.5 -21t27.5 -75v-536q0 -54 -27.5 -75t-58.5 -21t-58.5 21t-27.5 75zM596 241v381q0 54 27.5 75t58.5 21t58.5 -21t27.5 -75v-380q0 -37 -5.5 -70.5t-21 -69.5t-40.5 -62t-67.5 -42.5t-98.5 -16.5q-105 0 -167 62q-36 36 -36 76
q0 32 22 53t56 21q33 0 69 -37q20 -20 48 -20q39 0 54 27t15 78z" />
    <glyph glyph-name="ij" unicode="ij" horiz-adv-x="589" 
d="M242 657q0 -38 -27.5 -64t-66.5 -26t-66.5 26.5t-27.5 63.5q0 36 27.5 63t66.5 27t66.5 -26.5t27.5 -63.5zM66 82v334q0 52 26 72t56 20t56 -20t26 -72v-334q0 -52 -26 -72t-56 -20t-56 20t-26 72zM535 657q0 -38 -27.5 -64t-66.5 -26t-66.5 26.5t-27.5 63.5
q0 36 27.5 63t66.5 27t66.5 -26.5t27.5 -63.5zM523 416v-429q0 -108 -45.5 -167t-135.5 -59q-99 0 -99 70q0 31 19.5 50t53.5 19q43 0 43 65v451q0 52 26 72t56 20t56 -20t26 -72z" />
    <glyph glyph-name="napostrophe" unicode="&#x22;n" horiz-adv-x="706" 
d="M154 82v338q0 50 25 69t54 19q28 0 53 -17.5t27 -61.5h2q18 35 58.5 59t90.5 24q93 0 137.5 -59.5t44.5 -144.5v-226q0 -52 -26.5 -72t-56.5 -20t-56 20t-26 72v190q0 105 -74 105q-42 0 -65 -31t-23 -76v-188q0 -52 -26.5 -72t-56.5 -20t-56 20t-26 72zM162 612l-30 -66
q-25 -58 -63 -58q-23 0 -39.5 14t-16.5 38q0 14 13 50l24 64q24 64 67 64q25 0 42 -16t17 -39q0 -18 -14 -51z" />
    <glyph glyph-name="fi" unicode="fi" horiz-adv-x="665" 
d="M91 375h-32q-38 0 -53.5 20t-15.5 42q0 21 15.5 41t53.5 20h32v48q0 105 50 167t159 62q92 0 92 -68q0 -30 -19.5 -47.5t-52.5 -17.5q-65 0 -65 -86v-58h52q38 0 53.5 -20t15.5 -41q0 -22 -15.5 -42t-53.5 -20h-52v-293q0 -52 -26 -72t-56 -20t-56 20t-26 72v293z
M611 657q0 -38 -27.5 -64t-66.5 -26t-66.5 26.5t-27.5 63.5q0 36 27.5 63t66.5 27t66.5 -26.5t27.5 -63.5zM435 82v334q0 52 26 72t56 20t56 -20t26 -72v-334q0 -52 -26 -72t-56 -20t-56 20t-26 72z" />
    <glyph glyph-name="fl" unicode="fl" horiz-adv-x="666" 
d="M91 375h-32q-38 0 -53.5 20t-15.5 42q0 21 15.5 41t53.5 20h32v48q0 105 50 167t159 62q92 0 92 -68q0 -30 -19.5 -47.5t-52.5 -17.5q-65 0 -65 -86v-58h52q38 0 53.5 -20t15.5 -41q0 -22 -15.5 -42t-53.5 -20h-52v-293q0 -52 -26 -72t-56 -20t-56 20t-26 72v293zM434 83
v590q0 53 26.5 73t56.5 20t56.5 -20t26.5 -73v-590q0 -53 -26.5 -73t-56.5 -20t-56.5 20t-26.5 73z" />
    <glyph glyph-name=".notdef" horiz-adv-x="512" 
d="M222 146v8q0 18 9 25t19 7t19 -7t9 -25v-8q0 -18 -9 -25t-19 -7t-19 7t-9 25zM50 50h412v617h-412v-617zM0 32v654q0 32 31 32h450q31 0 31 -32v-654q0 -32 -31 -32h-450q-31 0 -31 32zM223 254q0 50 12.5 78t46.5 59q31 29 39.5 47.5t8.5 41.5q0 35 -21.5 57t-52.5 22
q-61 0 -79 -75q-6 -23 -26 -23q-11 0 -18 7.5t-7 17.5q0 5 2 14q24 109 131 109q54 0 89 -34t35 -91q0 -35 -13 -63t-52 -65q-31 -30 -39 -46t-8 -56q0 -27 -24 -27t-24 27z" />
    <glyph glyph-name=".null" horiz-adv-x="490" 
 />
    <glyph glyph-name=".null" horiz-adv-x="490" 
 />
    <glyph glyph-name="nonmarkingreturn" horiz-adv-x="333" 
 />
    <glyph glyph-name="CR" unicode="&#xd;" horiz-adv-x="0" 
 />
    <glyph glyph-name="space" unicode=" " horiz-adv-x="250" 
 />
    <glyph glyph-name="exclam" unicode="!" horiz-adv-x="357" 
d="M276 85q0 -40 -28.5 -67.5t-69.5 -27.5q-39 0 -68 27.5t-29 66.5t28.5 67t68.5 28q41 0 69.5 -27.5t28.5 -66.5zM94 321v303q0 53 27 73.5t57 20.5q12 0 24.5 -3.5t27 -12.5t23.5 -29.5t9 -48.5v-303q0 -53 -27 -73.5t-57 -20.5q-12 0 -24.5 3.5t-27 12.5t-23.5 29.5
t-9 48.5z" />
    <glyph glyph-name="quotedbl" unicode="&#x22;" horiz-adv-x="498" 
d="M86 500v145q0 41 21 57t44 16t44 -16t21 -57v-145q0 -41 -21 -57t-44 -16t-44 16t-21 57zM281 500v145q0 41 21 57t44 16t44 -16t21 -57v-145q0 -41 -21 -57t-44 -16t-44 16t-21 57z" />
    <glyph glyph-name="numbersign" unicode="#" horiz-adv-x="603" 
d="M348 404h-79l-13 -100h78zM431 200l-23 -156q-8 -54 -56 -54q-24 0 -38.5 15.5t-14.5 37.5q0 12 2 24l19 133h-79l-23 -156q-8 -54 -56 -54q-24 0 -38.5 15.5t-14.5 37.5q0 12 2 24l20 133h-38q-32 0 -44.5 16.5t-12.5 35.5q0 11 3.5 21.5t17.5 20.5t36 10h52l15 100h-38
q-32 0 -44.5 16.5t-12.5 35.5q0 11 3.5 21.5t17.5 20.5t36 10h51l23 156q8 54 56 54q24 0 38.5 -15.5t14.5 -37.5q0 -12 -2 -24l-19 -133h78l23 156q8 54 56 54q24 0 38.5 -15.5t14.5 -37.5q0 -12 -2 -24l-19 -133h37q32 0 44.5 -16.5t12.5 -35.5q0 -11 -3.5 -21.5
t-17.5 -20.5t-36 -10h-52l-14 -100h38q32 0 44.5 -16.5t12.5 -35.5q0 -11 -3.5 -21.5t-17.5 -20.5t-36 -10h-51z" />
    <glyph glyph-name="dollar" unicode="$" horiz-adv-x="646" 
d="M287 444v145q-29 -3 -49.5 -21.5t-20.5 -49.5q0 -56 70 -74zM356 280v-158q34 1 53.5 22t19.5 56q0 57 -73 80zM283 -51v41q-106 3 -179 47q-44 26 -44 66q0 30 20.5 51t50.5 21q23 0 54 -19q50 -31 97 -33v175q-50 13 -84 27.5t-67 38t-50 59.5t-17 84q0 92 68.5 149
t154.5 61v37q0 24 12 33t25 9t24.5 -9t11.5 -33v-36q95 -2 160 -38q42 -24 42 -63q0 -29 -20 -49t-49 -20q-20 0 -49 16q-38 21 -84 23v-160q49 -15 80.5 -28t69.5 -38t57.5 -63t19.5 -89q0 -103 -67.5 -159.5t-163.5 -59.5v-41q0 -24 -11.5 -33t-24.5 -9t-25 9t-12 33z" />
    <glyph glyph-name="percent" unicode="%" horiz-adv-x="911" 
d="M889 177q0 -79 -55.5 -134t-134.5 -55t-134.5 55t-55.5 134t55.5 134t134.5 55t134.5 -55t55.5 -134zM777 177q0 32 -23 55t-55 23t-55 -23t-23 -55t23 -54.5t55 -22.5t55 22.5t23 54.5zM409 531q0 -78 -55.5 -133.5t-134.5 -55.5t-134.5 55.5t-55.5 133.5q0 79 55.5 134
t134.5 55t134.5 -55t55.5 -134zM297 531q0 32 -23 55t-55 23t-55 -23t-23 -55t23 -54.5t55 -22.5t55 22.5t23 54.5zM686 648l-367 -645q-20 -34 -49 -34q-21 0 -36 13.5t-15 34.5q0 18 11 37l367 645q20 34 49 34q21 0 36 -13.5t15 -34.5q0 -18 -11 -37z" />
    <glyph glyph-name="ampersand" unicode="&#x26;" horiz-adv-x="781" 
d="M597 17l-75 69q-47 -56 -100.5 -78t-122.5 -22q-105 0 -179.5 54.5t-74.5 156.5q0 124 144 195q-69 70 -69 155q0 89 66 134.5t155 45.5t152.5 -46t63.5 -134q0 -55 -31.5 -98.5t-103.5 -83.5l90 -80l58 72q26 34 61 34q31 0 51 -19.5t20 -50.5q0 -27 -21 -50l-66 -77
l82 -72q31 -26 31 -59q0 -31 -20.5 -52t-52.5 -21q-29 0 -58 27zM305 115q32 0 57.5 11.5t60.5 49.5l-136 126q-45 -23 -61.5 -44t-16.5 -54q0 -40 29 -64.5t67 -24.5zM275 542q0 -45 52 -94q83 41 83 94q0 28 -18.5 46.5t-48.5 18.5q-29 0 -48.5 -18.5t-19.5 -46.5z" />
    <glyph glyph-name="quotesingle" unicode="'" horiz-adv-x="303" 
d="M86 500v145q0 41 21 57t44 16t44 -16t21 -57v-145q0 -41 -21 -57t-44 -16t-44 16t-21 57z" />
    <glyph glyph-name="parenleft" unicode="(" horiz-adv-x="342" 
d="M29 288q0 106 30 212t84 193q25 40 60 40q26 0 43.5 -17t17.5 -42q0 -21 -12 -41q-94 -159 -94 -345t94 -345q12 -20 12 -41q0 -25 -17.5 -42t-43.5 -17q-35 0 -60 40q-54 87 -84 193t-30 212z" />
    <glyph glyph-name="parenright" unicode=")" horiz-adv-x="342" 
d="M313 288q0 -106 -30 -212t-84 -193q-25 -40 -60 -40q-26 0 -43.5 17t-17.5 42q0 21 12 41q94 159 94 345t-94 345q-12 20 -12 41q0 25 17.5 42t43.5 17q35 0 60 -40q54 -87 84 -193t30 -212z" />
    <glyph glyph-name="asterisk" unicode="*" horiz-adv-x="489" 
d="M294 350l-51 67l-48 -64q-21 -28 -47 -28q-23 0 -38.5 15t-15.5 37q0 20 14 39l49 63l-81 27q-42 14 -42 50q0 24 15 39t37 15q12 0 26 -5l78 -27v79q0 34 17.5 47.5t37.5 13.5q12 0 23 -4t21.5 -18.5t10.5 -38.5v-79l77 24q16 5 26 5q22 0 37 -15t15 -39q0 -36 -42 -50
l-80 -25l49 -65q14 -19 14 -39q0 -22 -16 -37t-39 -15q-26 0 -47 28z" />
    <glyph glyph-name="plus" unicode="+" horiz-adv-x="666" 
d="M398 366h152q39 0 55 -20.5t16 -42.5q0 -13 -4.5 -25.5t-22 -25t-44.5 -12.5h-151v-146q0 -41 -21 -57t-44 -16t-44 16t-21 57v146h-152q-39 0 -55 20.5t-16 42.5q0 13 4.5 25.5t22 25t44.5 12.5h151v146q0 41 21 57t44 16t44 -16t21 -57v-146z" />
    <glyph glyph-name="comma" unicode="," 
d="M221 58l-39 -123q-21 -69 -77 -69q-31 0 -51 19t-20 50q0 17 7 42l34 123q19 70 79 70q31 0 52.5 -20t21.5 -50q0 -19 -7 -42z" />
    <glyph glyph-name="hyphen" unicode="-" horiz-adv-x="326" 
d="M227 197h-128q-41 0 -57 21t-16 44t16 44t57 21h128q41 0 57 -21t16 -44t-16 -44t-57 -21z" />
    <glyph glyph-name="period" unicode="." 
d="M251 88q0 -41 -29.5 -69.5t-70.5 -28.5q-42 0 -72 28t-30 69t30 70t72 29q41 0 70.5 -28.5t29.5 -69.5z" />
    <glyph glyph-name="slash" unicode="/" horiz-adv-x="415" 
d="M15 41l267 670q17 44 58 44q25 0 42 -16.5t17 -41.5q0 -13 -6 -29l-267 -670q-17 -44 -58 -44q-25 0 -42 16.5t-17 41.5q0 13 6 29z" />
    <glyph glyph-name="zero" unicode="0" horiz-adv-x="646" 
d="M600 356q0 -78 -15.5 -144t-47 -118.5t-86 -82.5t-127.5 -30q-96 0 -160.5 53t-91 134.5t-26.5 187.5q0 78 15.5 143t47.5 117t87 81.5t128 29.5t127.5 -29.5t86 -81.5t47 -117t15.5 -143zM428 356q0 39 -4 74.5t-14.5 72.5t-32.5 59.5t-53 22.5t-53.5 -22.5t-33 -59.5
t-15 -72.5t-4.5 -74.5t4.5 -75t15 -73.5t32.5 -60t54 -22.5q31 0 53 22.5t32.5 60t14.5 73t4 75.5z" />
    <glyph glyph-name="one" unicode="1" horiz-adv-x="646" 
d="M125 582l145 106q42 30 77 30q16 0 31.5 -4.5t33.5 -15.5t28.5 -36.5t10.5 -61.5v-516q0 -53 -27 -73.5t-57 -20.5q-12 0 -24.5 3.5t-27 12.5t-23.5 29.5t-9 48.5v436l-76 -59q-24 -19 -52 -19q-30 0 -50.5 21t-20.5 52q0 37 41 67z" />
    <glyph glyph-name="two" unicode="2" horiz-adv-x="646" 
d="M509 0h-344q-62 0 -84.5 25t-22.5 55q0 50 57 102l229 208q58 53 58 109q0 38 -24 61.5t-64 23.5q-57 0 -87 -53q-30 -55 -79 -55q-33 0 -54.5 22t-21.5 54q0 25 14 49q35 59 97.5 92.5t139.5 33.5q106 0 181 -56t75 -161q0 -68 -31.5 -116t-92.5 -102l-164 -146h218
q46 0 63.5 -23t17.5 -50q0 -16 -5 -30.5t-24.5 -28.5t-51.5 -14z" />
    <glyph glyph-name="three" unicode="3" horiz-adv-x="646" 
d="M285 301q-42 0 -58 21t-16 45q0 14 4.5 27t22.5 25.5t47 12.5q58 0 84 22.5t26 57.5q0 36 -26 57t-63 21q-47 0 -84 -44q-28 -33 -65 -33q-31 0 -52.5 20.5t-21.5 50.5q0 32 29 64q34 37 89 58t116 21q102 0 175.5 -52t73.5 -148q0 -57 -33 -98.5t-86 -55.5v-3
q61 -14 98.5 -59.5t37.5 -104.5q0 -74 -40.5 -126.5t-99.5 -75.5t-127 -23q-140 0 -220 79q-33 33 -33 70q0 32 22.5 53.5t53.5 21.5q32 0 74 -42q41 -41 95 -41q41 0 72 22t31 68q0 39 -32.5 64t-93.5 25z" />
    <glyph glyph-name="four" unicode="4" horiz-adv-x="646" 
d="M359 274v239h-3l-168 -239h171zM42 302l254 346q51 70 112 70q16 0 31.5 -4.5t33.5 -16.5t29.5 -39t11.5 -65v-319h35q46 0 62.5 -21.5t16.5 -46.5q0 -14 -4.5 -27.5t-23.5 -27t-51 -13.5h-34v-60q0 -49 -25 -68.5t-53 -19.5q-12 0 -24 3.5t-25 12t-21.5 27.5t-8.5 45v60
h-239q-58 0 -81 29t-23 60q0 37 27 75z" />
    <glyph glyph-name="five" unicode="5" horiz-adv-x="646" 
d="M99 396l9 222q3 90 91 90h276q45 0 63 -23t18 -49q0 -15 -5 -29.5t-24.5 -28.5t-51.5 -14h-214l-6 -112q29 7 71 7q112 0 184 -58.5t72 -166.5q0 -122 -80 -187.5t-193 -65.5q-63 0 -119 21.5t-91 58.5q-28 30 -28 64q0 32 22.5 53.5t55.5 21.5q32 0 68 -38
q37 -39 90 -39q45 0 75.5 27t30.5 76q0 58 -42 83t-103 25q-35 0 -69 -6q-25 -5 -38 -5q-9 0 -18 2.5t-20.5 9t-18 22.5t-5.5 39z" />
    <glyph glyph-name="six" unicode="6" horiz-adv-x="646" 
d="M433 234q0 48 -30.5 79.5t-79.5 31.5t-80.5 -31.5t-31.5 -80.5q0 -47 31 -79.5t80 -32.5t80 31.5t31 81.5zM122 453l161 218q34 47 77 47q34 0 57.5 -21t23.5 -55t-26 -66l-93 -115h3q21 8 47 8q95 0 162 -65t67 -166q0 -117 -80 -187t-199 -70t-199 69.5t-80 183.5
t79 219z" />
    <glyph glyph-name="seven" unicode="7" horiz-adv-x="646" 
d="M166 127l232 437h-264q-45 0 -63 23t-18 49q0 15 5 29.5t24.5 28.5t51.5 14h350q32 0 54 -9.5t32 -24.5t13.5 -26.5t3.5 -21.5q0 -31 -14 -60l-254 -518q-28 -58 -83 -58q-35 0 -60 23t-25 61q0 24 15 53z" />
    <glyph glyph-name="eight" unicode="8" horiz-adv-x="646" 
d="M589 202q0 -106 -77 -163.5t-189 -57.5q-113 0 -189.5 57t-76.5 163q0 62 36 107t91 62v2q-48 18 -78 57.5t-30 95.5q0 94 71.5 148t175.5 54t175.5 -52.5t71.5 -146.5q0 -57 -29.5 -98t-78.5 -57v-3q55 -15 91 -61t36 -107zM408 516q0 34 -25 57.5t-60 23.5
q-37 0 -60.5 -23t-23.5 -58t23 -59.5t61 -24.5q36 0 60.5 25t24.5 59zM421 208q0 41 -28 68.5t-70 27.5q-43 0 -71 -27.5t-28 -68.5q0 -42 27.5 -68t71.5 -26t71 25.5t27 68.5z" />
    <glyph glyph-name="nine" unicode="9" horiz-adv-x="646" 
d="M212 475q0 -48 30.5 -79.5t79.5 -31.5q50 0 81 31t31 81q0 47 -31 80t-80 33t-80 -32t-31 -82zM523 255l-161 -218q-34 -47 -77 -47q-34 0 -57.5 21t-23.5 55t26 66l93 115h-3q-21 -8 -47 -8q-95 0 -162 65t-67 166q0 117 80 187t199 70t199 -69.5t80 -183.5t-79 -219z
" />
    <glyph glyph-name="colon" unicode=":" horiz-adv-x="332" 
d="M264 410q0 -39 -29 -67.5t-68 -28.5q-40 0 -69.5 27.5t-29.5 66.5q0 40 29 68t70 28q39 0 68 -27.5t29 -66.5zM264 89q0 -39 -29 -67t-68 -28q-40 0 -69.5 27.5t-29.5 66.5q0 40 29 68t70 28q39 0 68 -28t29 -67z" />
    <glyph glyph-name="semicolon" unicode=";" horiz-adv-x="332" 
d="M264 410q0 -40 -28.5 -67.5t-68.5 -27.5t-69 27.5t-29 66.5q0 40 28.5 68t69.5 28q39 0 68 -28t29 -67zM234 58l-39 -123q-21 -69 -77 -69q-31 0 -51 19t-20 50q0 17 7 42l34 123q19 70 79 70q31 0 52.5 -20t21.5 -50q0 -19 -7 -42z" />
    <glyph glyph-name="less" unicode="&#x3c;" horiz-adv-x="666" 
d="M552 416l-271 -115l271 -112q45 -18 45 -60q0 -28 -18 -45.5t-45 -17.5q-16 0 -35 8l-382 161q-48 20 -48 68q0 47 48 67l382 161q19 8 35 8q27 0 45 -17.5t18 -45.5q0 -42 -45 -60z" />
    <glyph glyph-name="equal" unicode="=" horiz-adv-x="666" 
d="M127 273h412q38 0 53.5 -20t15.5 -41q0 -22 -15.5 -42t-53.5 -20h-412q-38 0 -53.5 20t-15.5 42q0 21 15.5 41t53.5 20zM127 458h412q38 0 53.5 -20t15.5 -41q0 -22 -15.5 -42t-53.5 -20h-412q-38 0 -53.5 20t-15.5 42q0 21 15.5 41t53.5 20z" />
    <glyph glyph-name="greater" unicode="&#x3e;" horiz-adv-x="666" 
d="M385 301l-271 115q-45 18 -45 60q0 28 18 45.5t45 17.5q16 0 35 -8l382 -161q48 -20 48 -67q0 -48 -48 -68l-382 -161q-19 -8 -35 -8q-27 0 -45 17.5t-18 45.5q0 42 45 60z" />
    <glyph glyph-name="question" unicode="?" horiz-adv-x="546" 
d="M381 85q0 -40 -28 -67.5t-69 -27.5q-40 0 -69 27.5t-29 66.5t29 67t69 28t68.5 -27.5t28.5 -66.5zM211 541q-28 -53 -75 -53q-34 0 -55.5 21.5t-21.5 54.5q0 28 15 53q33 53 89.5 81.5t127.5 28.5q98 0 167 -51t69 -149q0 -61 -26 -98.5t-86 -83.5q-24 -20 -34 -32.5
t-17 -34.5q-21 -65 -80 -65q-27 0 -52.5 18t-25.5 60q0 30 19 57.5t59 65.5l33 31q22 20 31.5 35t9.5 36q0 32 -19.5 51t-53.5 19q-50 0 -74 -45z" />
    <glyph glyph-name="at" unicode="@" horiz-adv-x="800" 
d="M465 379q0 78 -56 78q-36 0 -59.5 -40.5t-23.5 -87.5q0 -70 55 -70q40 0 62 38t22 82zM494 500h1q11 44 52 44q23 0 38 -13.5t15 -36.5q0 -8 -2 -20l-19 -97q-13 -69 -13 -83q0 -36 29 -36q32 0 54.5 36.5t22.5 102.5q0 114 -71 176t-188 62q-121 0 -197.5 -80
t-76.5 -202q0 -126 80 -201.5t207 -75.5q108 0 199 60q19 12 35 12q19 0 32.5 -13.5t13.5 -33.5q0 -24 -27 -43q-109 -76 -264 -76q-170 0 -278 104t-108 267q0 158 112.5 265.5t272.5 107.5q97 0 177 -35.5t131.5 -111t51.5 -178.5q0 -112 -57.5 -176.5t-147.5 -64.5
q-39 0 -65 17.5t-30 46.5h-4q-15 -26 -46 -45t-73 -19q-67 0 -105.5 47t-38.5 122q0 89 54 157t138 68q37 0 62.5 -15.5t32.5 -38.5z" />
    <glyph glyph-name="A" unicode="A" horiz-adv-x="729" 
d="M549 55l-34 84h-305l-35 -85q-27 -64 -84 -64q-35 0 -59 22t-24 60q0 22 11 48l234 514q38 84 113 84t112 -84l232 -512q10 -24 10 -46q0 -39 -25 -62.5t-60 -23.5q-60 0 -86 65zM363 511l-97 -235h193z" />
    <glyph glyph-name="B" unicode="B" horiz-adv-x="665" 
d="M431 503q0 69 -109 69h-84v-146h92q48 0 74.5 20t26.5 57zM454 222q0 78 -121 78h-95v-162h96q120 0 120 84zM171 708h184q45 0 84.5 -8.5t76.5 -28t58.5 -57t21.5 -88.5q0 -57 -31 -96t-85 -57v-2q64 -11 104.5 -54.5t40.5 -110.5q0 -55 -22.5 -96.5t-62 -64.5t-86 -34
t-99.5 -11h-184q-98 0 -98 98v512q0 98 98 98z" />
    <glyph glyph-name="C" unicode="C" horiz-adv-x="696" 
d="M522 548q-39 24 -92 24q-89 0 -146.5 -61.5t-57.5 -155.5q0 -96 56 -156.5t145 -60.5q57 0 102 31q33 23 60 23q32 0 54 -21.5t22 -55.5q0 -40 -39 -71q-32 -26 -87.5 -44.5t-117.5 -18.5q-165 0 -273 104.5t-108 269.5q0 167 109.5 269.5t274.5 102.5q55 0 109.5 -14.5
t83.5 -35.5q41 -30 41 -73q0 -33 -22.5 -55t-55.5 -22q-25 0 -58 21z" />
    <glyph glyph-name="D" unicode="D" horiz-adv-x="774" 
d="M556 356q0 57 -19 98.5t-52.5 64.5t-73 33t-86.5 10h-85v-414h81q103 0 169 49t66 159zM337 0h-166q-98 0 -98 98v512q0 98 98 98h158q63 0 119.5 -10.5t109.5 -36.5t91.5 -65t61.5 -100.5t23 -139.5q0 -90 -34 -160t-91.5 -112t-126.5 -63t-145 -21z" />
    <glyph glyph-name="E" unicode="E" horiz-adv-x="607" 
d="M238 430h225q46 0 62.5 -21.5t16.5 -46.5q0 -15 -4.5 -28.5t-23.5 -27t-51 -13.5h-225v-147h258q46 0 63.5 -23t17.5 -50q0 -16 -5 -30.5t-24.5 -28.5t-51.5 -14h-325q-98 0 -98 98v512q0 98 98 98h307q46 0 63.5 -23t17.5 -49q0 -16 -5 -30.5t-24.5 -28.5t-51.5 -14
h-240v-133z" />
    <glyph glyph-name="F" unicode="F" horiz-adv-x="576" 
d="M447 275h-205v-190q0 -53 -26.5 -74t-57.5 -21t-58 21t-27 74v525q0 98 98 98h297q46 0 63.5 -23t17.5 -50q0 -16 -5 -30.5t-24.5 -28.5t-51.5 -14h-226v-146h205q45 0 62 -22.5t17 -47.5q0 -26 -17 -48.5t-62 -22.5z" />
    <glyph glyph-name="G" unicode="G" horiz-adv-x="769" 
d="M702 324v-209q0 -81 -77 -104q-96 -29 -196 -29q-171 0 -280 103.5t-109 269.5q0 167 109.5 269.5t274.5 102.5q127 0 204 -49q45 -29 45 -72q0 -34 -21.5 -56.5t-53.5 -22.5q-24 0 -54 17q-58 32 -117 32q-88 0 -146.5 -63t-58.5 -158q0 -100 57 -161.5t159 -61.5
q63 0 107 19v129h-68q-43 0 -60 22t-17 47q0 10 3 20.5t10.5 22t24 19t39.5 7.5h131q94 0 94 -94z" />
    <glyph glyph-name="H" unicode="H" horiz-adv-x="764" 
d="M73 86v536q0 54 27.5 75t58.5 21q30 0 57.5 -21t27.5 -75v-182h276v182q0 54 27.5 75t58.5 21q30 0 57.5 -21t27.5 -75v-536q0 -54 -27.5 -75t-57.5 -21q-31 0 -58.5 21t-27.5 75v210h-276v-210q0 -54 -27.5 -75t-57.5 -21q-31 0 -58.5 21t-27.5 75z" />
    <glyph glyph-name="I" unicode="I" horiz-adv-x="318" 
d="M73 86v536q0 54 27.5 75t58.5 21t58.5 -21t27.5 -75v-536q0 -54 -27.5 -75t-58.5 -21t-58.5 21t-27.5 75z" />
    <glyph glyph-name="J" unicode="J" horiz-adv-x="529" 
d="M288 241v381q0 54 27.5 75t58.5 21t58.5 -21t27.5 -75v-380q0 -37 -5.5 -70.5t-21 -69.5t-40.5 -62t-67.5 -42.5t-98.5 -16.5q-105 0 -167 62q-36 36 -36 76q0 32 22 53t56 21q33 0 69 -37q20 -20 48 -20q39 0 54 27t15 78z" />
    <glyph glyph-name="K" unicode="K" horiz-adv-x="711" 
d="M244 420l269 266q32 32 68 32q34 0 56.5 -21.5t22.5 -54.5q0 -39 -35 -70l-211 -190l241 -238q34 -34 34 -69q0 -37 -24.5 -61t-61.5 -24q-39 0 -71 35l-289 301h-2v-242q0 -53 -27 -73.5t-57 -20.5q-12 0 -24.5 3.5t-27 12.5t-23.5 29.5t-9 48.5v540q0 53 27 73.5
t57 20.5q12 0 24.5 -3.5t27 -12.5t23.5 -29.5t9 -48.5v-204h3z" />
    <glyph glyph-name="L" unicode="L" horiz-adv-x="526" 
d="M445 0h-274q-98 0 -98 98v524q0 54 27.5 75t58.5 21t58.5 -21t27.5 -75v-473h200q47 0 65.5 -24t18.5 -50q0 -27 -18.5 -51t-65.5 -24z" />
    <glyph glyph-name="M" unicode="M" horiz-adv-x="955" 
d="M481 192l183 427q43 99 116 99q15 0 30.5 -4.5t33 -16t28 -36t10.5 -58.5v-520q0 -53 -26.5 -73t-56.5 -20q-12 0 -24.5 3.5t-27 12.5t-23 29t-8.5 48l3 326h-3l-149 -340q-20 -47 -43.5 -63t-51.5 -16q-62 0 -95 79l-143 340h-3l2 -329q0 -51 -25.5 -70.5t-54.5 -19.5
t-54.5 19.5t-25.5 70.5v523q0 64 33.5 89.5t70.5 25.5q74 0 117 -99l183 -427h4z" />
    <glyph glyph-name="N" unicode="N" horiz-adv-x="790" 
d="M507 57l-269 390h-3l3 -365q0 -36 -15.5 -58.5t-32.5 -28t-35 -5.5q-30 0 -56 20t-26 72v519q0 35 11 60t28.5 36.5t33 16t29.5 4.5q62 0 108 -67l269 -389h3l-3 364q0 36 15.5 58.5t32 28t34.5 5.5q30 0 56.5 -20t26.5 -72v-519q0 -35 -11 -60t-28.5 -36.5t-33 -16
t-29.5 -4.5q-62 0 -108 67z" />
    <glyph glyph-name="O" unicode="O" horiz-adv-x="851" 
d="M811 357q0 -167 -109 -271.5t-277 -104.5q-167 0 -276 104.5t-109 271.5q0 168 108.5 269t276.5 101q169 0 277.5 -101t108.5 -269zM628 357q0 94 -57 155t-146 61t-145.5 -61t-56.5 -155q0 -96 56.5 -158t145.5 -62t146 62t57 158z" />
    <glyph glyph-name="P" unicode="P" horiz-adv-x="640" 
d="M439 489q0 81 -120 81h-75v-167h72q123 0 123 86zM73 86v524q0 98 98 98h162q126 0 201.5 -51.5t75.5 -166.5q0 -78 -40.5 -130t-101 -72.5t-139.5 -20.5h-85v-181q0 -54 -27.5 -75t-57.5 -21q-31 0 -58.5 21t-27.5 75z" />
    <glyph glyph-name="Q" unicode="Q" horiz-adv-x="857" 
d="M620 361q0 93 -56 152t-144 59q-86 0 -143 -59.5t-57 -151.5q0 -95 55.5 -155t143.5 -60q87 0 144 60t57 155zM780 0h-366q-172 0 -275 96t-103 267q0 160 109 262t275 102t273.5 -101t107.5 -260q0 -75 -31 -136t-74 -94v-2h84q42 0 58.5 -21.5t16.5 -45.5t-16.5 -45.5
t-58.5 -21.5z" />
    <glyph glyph-name="R" unicode="R" horiz-adv-x="663" 
d="M445 491q0 79 -114 79h-91v-165h81q124 0 124 86zM467 34l-165 247h-61v-197q0 -53 -27 -73.5t-57 -20.5t-57 20.5t-27 73.5v526q0 98 98 98h172q139 0 205 -59.5t66 -154.5q0 -70 -38 -119.5t-106 -70.5l131 -175q22 -30 22 -59q0 -34 -24 -57t-59 -23q-44 0 -73 44z
" />
    <glyph glyph-name="S" unicode="S" horiz-adv-x="591" 
d="M76 39q-39 30 -39 67q0 33 22.5 56.5t56.5 23.5q26 0 58 -23q55 -40 118 -40q35 0 60.5 19.5t25.5 57.5q0 16 -7.5 28.5t-16.5 21t-32 18.5t-39 15.5t-52 17.5q-39 13 -67 27t-56 37t-43 58t-15 81q0 56 24 100.5t64 70t87.5 38.5t98.5 13q93 0 161 -41q46 -28 46 -71
q0 -31 -20.5 -53t-51.5 -22q-19 0 -50 16q-57 30 -93 30q-41 0 -67.5 -17.5t-26.5 -53.5q0 -17 7 -29.5t23.5 -22t32.5 -16t46 -15.5q39 -13 61 -21t56.5 -26.5t53.5 -38.5t34 -53.5t15 -73.5q0 -115 -78.5 -175.5t-192.5 -60.5q-54 0 -113 16t-91 41z" />
    <glyph glyph-name="T" unicode="T" horiz-adv-x="581" 
d="M205 562h-129q-46 0 -63.5 23t-17.5 50q0 16 5 30.5t24.5 28.5t51.5 14h429q46 0 63.5 -23t17.5 -50q0 -16 -5 -30.5t-24.5 -28.5t-51.5 -14h-129v-476q0 -54 -27.5 -75t-57.5 -21q-31 0 -58.5 21t-27.5 75v476z" />
    <glyph glyph-name="U" unicode="U" horiz-adv-x="738" 
d="M502 281v342q0 54 27 74.5t59 20.5q31 0 58 -20.5t27 -74.5v-356q0 -128 -83.5 -207t-221.5 -79t-220 78.5t-82 207.5v356q0 54 27 74.5t58 20.5t58 -20.5t27 -74.5v-342q0 -63 33 -104.5t100 -41.5q68 0 100.5 41.5t32.5 104.5z" />
    <glyph glyph-name="V" unicode="V" horiz-adv-x="682" 
d="M345 206l156 438q26 74 87 74q36 0 61.5 -23t25.5 -60q0 -20 -12 -51l-207 -501q-39 -93 -117 -93q-81 0 -118 93l-203 499q-11 29 -11 50q0 37 25 61.5t62 24.5q63 0 90 -77l157 -435h4z" />
    <glyph glyph-name="W" unicode="W" horiz-adv-x="1025" 
d="M1010 597l-158 -513q-29 -94 -109 -94q-81 0 -109 94l-120 395h-3l-120 -395q-28 -94 -109 -94t-110 94l-156 508q-6 20 -6 40q0 37 25 61.5t61 24.5q68 0 89 -82l106 -399h3l106 371q19 67 48.5 88.5t65.5 21.5q16 0 29.5 -3.5t29.5 -13.5t30.5 -33.5t24.5 -59.5
l107 -371h3l109 403q21 78 86 78q34 0 58.5 -22t24.5 -60q0 -16 -6 -39z" />
    <glyph glyph-name="X" unicode="X" horiz-adv-x="703" 
d="M350 489l140 185q32 44 74 44q32 0 55.5 -22.5t23.5 -56.5q0 -29 -25 -61l-162 -204l193 -234q28 -34 28 -65q0 -37 -24.5 -61t-61.5 -24q-42 0 -79 48l-168 215l-157 -217q-33 -46 -76 -46q-35 0 -59.5 23.5t-24.5 58.5q0 31 28 67l186 236l-162 196q-28 34 -28 67
q0 34 24 57t59 23q42 0 75 -44z" />
    <glyph glyph-name="Y" unicode="Y" horiz-adv-x="669" 
d="M338 446l165 223q37 49 79 49q33 0 57 -22t24 -56t-27 -68l-219 -272v-215q0 -54 -27 -74.5t-58 -20.5q-32 0 -59 20.5t-27 74.5v215l-213 269q-27 35 -27 66q0 35 24.5 59t60.5 24q44 0 84 -53z" />
    <glyph glyph-name="Z" unicode="Z" horiz-adv-x="635" 
d="M523 0h-389q-60 0 -82.5 29.5t-22.5 62.5q0 43 45 99l303 372h-262q-46 0 -63.5 23t-17.5 50q0 15 5 29.5t24.5 28.5t51.5 14h389q54 0 75 -27.5t21 -58.5q0 -41 -41 -91l-314 -383h278q47 0 65.5 -23.5t18.5 -49.5q0 -27 -18.5 -51t-65.5 -24z" />
    <glyph glyph-name="bracketleft" unicode="[" horiz-adv-x="342" 
d="M53 -80v736q0 76 75 76h94q32 0 44.5 -16t12.5 -35q0 -11 -3.5 -21t-17.5 -20t-36 -10h-42v-684h42q32 0 44.5 -16t12.5 -35q0 -11 -3.5 -21t-17.5 -20t-36 -10h-94q-75 0 -75 76z" />
    <glyph glyph-name="backslash" unicode="\" horiz-adv-x="415" 
d="M134 711l267 -670q6 -16 6 -29q0 -25 -17 -41.5t-42 -16.5q-41 0 -58 44l-267 670q-6 16 -6 29q0 25 17 41.5t42 16.5q41 0 58 -44z" />
    <glyph glyph-name="bracketright" unicode="]" horiz-adv-x="342" 
d="M289 656v-736q0 -76 -75 -76h-94q-32 0 -44.5 16t-12.5 35q0 11 3.5 21t17.5 20t36 10h42v684h-42q-32 0 -44.5 16t-12.5 35q0 11 3.5 21t17.5 20t36 10h94q75 0 75 -76z" />
    <glyph glyph-name="asciicircum" unicode="^" horiz-adv-x="690" 
d="M430 664l149 -226q14 -22 14 -43q0 -27 -18.5 -44.5t-44.5 -17.5q-35 0 -61 39l-125 185l-123 -185q-26 -39 -61 -39q-26 0 -44.5 17.5t-18.5 44.5q0 21 14 43l149 226q35 54 85 54q49 0 85 -54z" />
    <glyph glyph-name="underscore" unicode="_" horiz-adv-x="500" 
d="M450 -164h-400q-20 0 -32 8.5t-15 17.5t-3 19q0 9 3 18t15 17.5t32 8.5h400q20 0 32 -8.5t15 -17.5t3 -18q0 -10 -3 -19t-15 -17.5t-32 -8.5z" />
    <glyph glyph-name="grave" unicode="`" 
d="M105 584l-68 45q-43 28 -43 63q0 23 16 39t40 16t58 -25l65 -47q41 -29 41 -61q0 -22 -15 -37t-38 -15q-22 0 -56 22z" />
    <glyph glyph-name="a" unicode="a" horiz-adv-x="566" 
d="M358 200v17h-21q-153 0 -153 -68q0 -26 21 -38.5t50 -12.5q49 0 76 27.5t27 74.5zM171 360q-20 -10 -38 -10q-24 0 -41 17t-17 42q0 37 39 61q72 44 165 44q123 0 176 -62.5t53 -200.5v-175q0 -48 -24.5 -67t-51.5 -19q-23 0 -45.5 14t-28.5 49h-3q-18 -30 -57 -47.5
t-84 -17.5q-44 0 -82.5 13.5t-68.5 50.5t-30 92q0 168 320 168v8q0 33 -23.5 52.5t-61.5 19.5q-33 0 -97 -32z" />
    <glyph glyph-name="b" unicode="b" horiz-adv-x="659" 
d="M461 251q0 52 -31.5 89.5t-86.5 37.5q-53 0 -86.5 -39t-33.5 -89q0 -51 33.5 -89.5t86.5 -38.5q55 0 86.5 38t31.5 91zM66 76v598q0 52 26 72t56 20t56 -20t26 -72v-229h2q57 67 152 67q105 0 170 -76.5t65 -184.5q0 -110 -64.5 -187.5t-172.5 -77.5q-50 0 -94.5 21
t-68.5 58h-2q-2 -41 -25.5 -58t-49.5 -17q-28 0 -52 18.5t-24 67.5z" />
    <glyph glyph-name="c" unicode="c" horiz-adv-x="503" 
d="M318 -16q-121 0 -200 72t-79 193q0 119 79.5 192t198.5 73q64 0 110 -22q48 -23 48 -66q0 -30 -17.5 -50.5t-49.5 -20.5q-20 0 -44 12q-20 10 -44 10q-51 0 -83 -37.5t-32 -90.5t32 -90t85 -37q26 0 44 9q24 12 44 12q32 0 49.5 -20.5t17.5 -50.5q0 -42 -48 -66
q-44 -22 -111 -22z" />
    <glyph glyph-name="d" unicode="d" horiz-adv-x="658" 
d="M592 674v-598q0 -49 -24 -67.5t-52 -18.5q-26 0 -49.5 17t-25.5 58h-2q-24 -37 -68.5 -58t-94.5 -21q-108 0 -172.5 77.5t-64.5 187.5q0 108 65 184.5t170 76.5q95 0 152 -67h2v229q0 52 26 72t56 20t56 -20t26 -72zM435 250q0 50 -33.5 89t-86.5 39q-55 0 -86.5 -37.5
t-31.5 -89.5q0 -53 31.5 -91t86.5 -38q53 0 86.5 38.5t33.5 89.5z" />
    <glyph glyph-name="e" unicode="e" horiz-adv-x="596" 
d="M196 306h211q0 41 -25.5 68t-72.5 27q-46 0 -78 -28t-35 -67zM410 139q31 21 52 21q27 0 45 -17.5t18 -44.5q0 -33 -29 -56q-71 -58 -183 -58q-117 0 -195.5 70.5t-78.5 192.5q0 120 76.5 193.5t192.5 73.5q93 0 157.5 -51.5t84.5 -141.5q5 -23 5 -38q0 -79 -85 -79h-274
q4 -40 39 -67t80 -27q53 0 95 29z" />
    <glyph glyph-name="f" unicode="f" horiz-adv-x="364" 
d="M91 375h-32q-38 0 -53.5 20t-15.5 42q0 21 15.5 41t53.5 20h32v48q0 105 50 167t159 62q92 0 92 -68q0 -30 -19.5 -47.5t-52.5 -17.5q-65 0 -65 -86v-58h52q38 0 53.5 -20t15.5 -41q0 -22 -15.5 -42t-53.5 -20h-52v-293q0 -52 -26 -72t-56 -20t-56 20t-26 72v293z" />
    <glyph glyph-name="g" unicode="g" horiz-adv-x="658" 
d="M436 252q0 53 -33.5 89.5t-87.5 36.5t-85.5 -36t-31.5 -90q0 -52 32 -89.5t85 -37.5q55 0 88 37t33 90zM103 -191q-41 27 -41 65q0 30 18.5 50.5t49.5 20.5q24 0 55 -19q55 -33 114 -33q63 0 97.5 37.5t34.5 100.5v30h-3q-51 -66 -151 -66q-109 0 -173.5 74t-64.5 182
t64.5 184.5t172.5 76.5q107 0 159 -78h2q3 40 27 57t50 17q17 0 32.5 -5.5t30.5 -26.5t15 -56v-373q0 -142 -78 -214.5t-215 -72.5q-123 0 -196 49z" />
    <glyph glyph-name="h" unicode="h" horiz-adv-x="617" 
d="M66 82v592q0 52 26 72t56 20t56 -20t26 -72v-239h2q18 32 56 54.5t87 22.5q94 0 138 -59.5t44 -144.5v-226q0 -52 -26.5 -72t-56.5 -20t-56 20t-26 72v188q0 105 -73 105q-41 0 -65 -30t-24 -76v-187q0 -52 -26 -72t-56 -20t-56 20t-26 72z" />
    <glyph glyph-name="i" unicode="i" horiz-adv-x="296" 
d="M242 657q0 -38 -27.5 -64t-66.5 -26t-66.5 26.5t-27.5 63.5q0 36 27.5 63t66.5 27t66.5 -26.5t27.5 -63.5zM66 82v334q0 52 26 72t56 20t56 -20t26 -72v-334q0 -52 -26 -72t-56 -20t-56 20t-26 72z" />
    <glyph glyph-name="j" unicode="j" horiz-adv-x="299" 
d="M245 657q0 -38 -27.5 -64t-66.5 -26t-66.5 26.5t-27.5 63.5q0 36 27.5 63t66.5 27t66.5 -26.5t27.5 -63.5zM233 416v-429q0 -108 -45.5 -167t-135.5 -59q-99 0 -99 70q0 31 19.5 50t53.5 19q43 0 43 65v451q0 52 26 72t56 20t56 -20t26 -72z" />
    <glyph glyph-name="k" unicode="k" horiz-adv-x="595" 
d="M65 82v592q0 52 26 72t56 20t56.5 -20t26.5 -72v-378h3l168 177q34 35 71 35q33 0 54 -22t21 -53q0 -36 -34 -66l-102 -94l126 -141q27 -29 27 -62q0 -34 -22.5 -57t-56.5 -23q-42 0 -81 46l-171 203h-3v-157q0 -52 -26.5 -72t-56.5 -20t-56 20t-26 72z" />
    <glyph glyph-name="l" unicode="l" horiz-adv-x="298" 
d="M66 83v590q0 53 26.5 73t56.5 20t56.5 -20t26.5 -73v-590q0 -53 -26.5 -73t-56.5 -20t-56.5 20t-26.5 73z" />
    <glyph glyph-name="m" unicode="m" horiz-adv-x="924" 
d="M223 429h2q19 35 58 59t91 24q106 0 150 -85q54 85 159 85q64 0 106.5 -32.5t58.5 -76.5t16 -95v-226q0 -52 -26 -72t-56 -20t-56 20t-26 72v190q0 105 -71 105q-40 0 -61.5 -31.5t-21.5 -76.5v-187q0 -52 -26 -72t-56 -20t-56 20t-26 72v202q0 93 -71 93
q-38 0 -60 -30.5t-22 -76.5v-188q0 -52 -26.5 -72t-56.5 -20t-56 20t-26 72v338q0 50 25 69t54 19q28 0 53 -17.5t27 -61.5z" />
    <glyph glyph-name="n" unicode="n" horiz-adv-x="616" 
d="M64 82v338q0 50 25 69t54 19q28 0 53 -17.5t27 -61.5h2q18 35 58.5 59t90.5 24q93 0 137.5 -59.5t44.5 -144.5v-226q0 -52 -26.5 -72t-56.5 -20t-56 20t-26 72v190q0 105 -74 105q-42 0 -65 -31t-23 -76v-188q0 -52 -26.5 -72t-56.5 -20t-56 20t-26 72z" />
    <glyph glyph-name="o" unicode="o" horiz-adv-x="632" 
d="M592 251q0 -119 -80 -193t-197 -74q-116 0 -196 74t-80 193t80 191t196 72q117 0 197 -72t80 -191zM434 251q0 51 -32 89t-87 38t-86 -37.5t-31 -89.5t31.5 -90.5t86.5 -38.5t86.5 38.5t31.5 90.5z" />
    <glyph glyph-name="p" unicode="p" horiz-adv-x="657" 
d="M459 251q0 52 -31 89.5t-86 37.5q-53 0 -86.5 -39t-33.5 -89q0 -51 33.5 -89.5t86.5 -38.5q55 0 86 38t31 91zM64 -158v578q0 50 24.5 69t53.5 19q26 0 49.5 -15.5t28.5 -55.5h3q24 33 65.5 54t93.5 21q105 0 170.5 -76.5t65.5 -184.5q0 -110 -64.5 -187.5t-172.5 -77.5
q-46 0 -87 18.5t-64 50.5h-2v-213q0 -52 -26 -72t-56 -20t-56 20t-26 72z" />
    <glyph glyph-name="q" unicode="q" horiz-adv-x="657" 
d="M435 250q0 50 -33.5 89t-86.5 39q-55 0 -86.5 -37.5t-31.5 -89.5q0 -53 31.5 -91t86.5 -38q53 0 86.5 38.5t33.5 89.5zM592 420v-578q0 -52 -26 -72t-55 -20q-30 0 -56 20t-26 72v213h-2q-24 -32 -64.5 -50.5t-86.5 -18.5q-109 0 -173 77.5t-64 187.5q0 108 65 184.5
t170 76.5q52 0 94 -21t66 -54h3q5 39 28 55t49 16q17 0 32.5 -5.5t30.5 -26.5t15 -56z" />
    <glyph glyph-name="r" unicode="r" horiz-adv-x="396" 
d="M64 82v338q0 50 25 69t54 19q28 0 53.5 -18.5t25.5 -63.5h2q38 85 104 85q34 0 53.5 -20t19.5 -52q0 -31 -20 -53t-64 -25q-42 -3 -65.5 -32t-23.5 -73v-174q0 -52 -26 -72t-56 -20t-56 20t-26 72z" />
    <glyph glyph-name="s" unicode="s" horiz-adv-x="472" 
d="M68 23q-38 25 -38 61q0 27 18 45.5t45 18.5q24 0 50 -18q41 -28 82 -28q24 0 41.5 10.5t17.5 32.5t-21 32.5t-78 23.5q-145 34 -145 146q0 82 63 124.5t144 42.5q85 0 135 -29q42 -24 42 -60q0 -27 -17 -44.5t-45 -17.5q-17 0 -42 14q-34 19 -67 19q-26 0 -44 -10
t-18 -30t18.5 -28.5t72.5 -20.5q159 -36 159 -153q0 -87 -62.5 -128.5t-150.5 -41.5q-101 0 -160 39z" />
    <glyph glyph-name="t" unicode="t" horiz-adv-x="372" 
d="M81 498v51q0 51 26 70.5t55 19.5q28 0 54 -19.5t26 -70.5v-51h58q38 0 53.5 -20t15.5 -41q0 -22 -15.5 -42t-53.5 -20h-58v-190q0 -35 11.5 -51.5t37.5 -16.5h13q29 0 45 -18t16 -41q0 -70 -106 -70q-95 0 -136 46t-41 131v210h-21q-38 0 -53.5 20t-15.5 42q0 21 15.5 41
t53.5 20h20z" />
    <glyph glyph-name="u" unicode="u" horiz-adv-x="614" 
d="M550 416v-338q0 -50 -25 -69t-53 -19t-53 17.5t-27 61.5h-2q-18 -35 -58.5 -59t-90.5 -24q-93 0 -137.5 59.5t-44.5 144.5v226q0 52 26.5 72t56.5 20t56 -20t26 -72v-188q0 -106 74 -106q41 0 64.5 31t23.5 76v187q0 52 26 72t56 20t56 -20t26 -72z" />
    <glyph glyph-name="v" unicode="v" horiz-adv-x="567" 
d="M534 383l-130 -302q-39 -91 -121 -91q-80 0 -120 91l-130 300q-11 26 -11 47q0 35 23.5 57.5t58.5 22.5q56 0 82 -69l99 -264h3l97 265q24 68 80 68q35 0 57.5 -21.5t22.5 -54.5q0 -24 -11 -49z" />
    <glyph glyph-name="w" unicode="w" horiz-adv-x="871" 
d="M185 436l74 -253h3l72 235q27 90 104 90q75 0 103 -89l75 -236h2l75 256q20 69 80 69q33 0 55.5 -22t22.5 -54q0 -16 -8 -40l-116 -319q-30 -83 -106 -83q-80 0 -107 83l-79 237h-2l-77 -237q-26 -83 -107 -83q-76 0 -106 83l-115 319q-6 18 -6 37q0 34 23 56.5t58 22.5
q62 0 82 -72z" />
    <glyph glyph-name="x" unicode="x" horiz-adv-x="594" 
d="M202 468l95 -114l103 119q30 35 66 35q31 0 52 -20.5t21 -52.5q0 -28 -27 -58l-109 -117l123 -128q31 -32 31 -65t-22 -55t-55 -22q-38 0 -72 41l-110 130l-113 -131q-34 -40 -72 -40q-31 0 -53 21.5t-22 54.5q0 31 30 65l122 132l-105 106q-30 30 -30 63t23 54.5
t55 21.5q37 0 69 -40z" />
    <glyph glyph-name="y" unicode="y" horiz-adv-x="567" 
d="M187 442l104 -262h3l91 257q24 71 80 71q35 0 58 -21.5t23 -54.5q0 -21 -9 -44l-194 -465q-35 -85 -82.5 -124t-136.5 -39h-9q-46 0 -64 22t-18 48q0 25 17 47.5t61 22.5q53 0 77 62l18 46l-172 374q-11 25 -11 46q0 34 23 57t59 23q57 0 82 -66z" />
    <glyph glyph-name="z" unicode="z" horiz-adv-x="512" 
d="M58 153l210 219h-165q-39 0 -54.5 20.5t-15.5 42.5q0 9 2.5 18.5t9.5 20t22 17.5t36 7h292q47 0 65 -24t18 -51q0 -39 -35 -74l-216 -222h191q39 0 54.5 -20.5t15.5 -43.5q0 -9 -2.5 -18.5t-9.5 -20t-22 -17.5t-36 -7h-307q-49 0 -68 25t-19 53q0 40 34 75z" />
    <glyph glyph-name="braceleft" unicode="{" horiz-adv-x="342" 
d="M73 2v161q0 48 -34 64q-43 21 -43 61t43 61q34 16 34 64v161q0 73 36.5 115.5t112.5 42.5h14q37 0 51.5 -16.5t14.5 -36.5q0 -19 -13 -35.5t-45 -16.5q-45 0 -45 -60v-157q0 -60 -29.5 -88.5t-63.5 -32.5v-2q14 -1 28 -7t30 -18.5t25.5 -38.5t9.5 -61v-153q0 -60 45 -60
q32 0 45 -16.5t13 -35.5q0 -20 -14.5 -36.5t-51.5 -16.5h-14q-76 0 -112.5 42.5t-36.5 115.5z" />
    <glyph glyph-name="bar" unicode="|" horiz-adv-x="241" 
d="M55 -187v874q0 41 21 57t45 16q23 0 44 -16t21 -57v-874q0 -41 -21 -57t-44 -16q-24 0 -45 16t-21 57z" />
    <glyph glyph-name="braceright" unicode="}" horiz-adv-x="342" 
d="M269 163v-161q0 -73 -36.5 -115.5t-112.5 -42.5h-14q-37 0 -51.5 16.5t-14.5 36.5q0 19 13 35.5t45 16.5q45 0 45 60v153q0 35 9.5 61t25.5 38.5t30 18.5t28 7v2q-34 4 -63.5 32.5t-29.5 88.5v157q0 60 -45 60q-32 0 -45 16.5t-13 35.5q0 20 14.5 36.5t51.5 16.5h14
q76 0 112.5 -42.5t36.5 -115.5v-161q0 -48 34 -64q43 -21 43 -61t-43 -61q-34 -16 -34 -64z" />
    <glyph glyph-name="asciitilde" unicode="~" horiz-adv-x="666" 
d="M238 261q-31 0 -53 -31q-23 -32 -53 -32q-25 0 -41 16t-16 41q0 26 14 51q47 88 141 88q42 0 105 -37q68 -38 94 -38q31 0 53 31q23 32 53 32q25 0 41 -16t16 -41q0 -26 -14 -51q-47 -88 -141 -88q-42 0 -105 37q-68 38 -94 38z" />
    <glyph glyph-name="uni00A0" unicode="&#xa0;" horiz-adv-x="250" 
 />
    <glyph glyph-name="exclamdown" unicode="&#xa1;" horiz-adv-x="357" 
d="M81 423q0 40 28.5 67.5t69.5 27.5q39 0 68 -27.5t29 -66.5t-28.5 -67t-68.5 -28q-41 0 -69.5 27.5t-28.5 66.5zM263 187v-303q0 -53 -27 -73.5t-57 -20.5q-12 0 -24.5 3.5t-27 12.5t-23.5 29.5t-9 48.5v303q0 53 27 73.5t57 20.5q12 0 24.5 -3.5t27 -12.5t23.5 -29.5
t9 -48.5z" />
    <glyph glyph-name="cent" unicode="&#xa2;" horiz-adv-x="646" 
d="M314 116v266q-44 -10 -68 -46.5t-24 -86.5q0 -48 24.5 -84.5t67.5 -48.5zM499 17q-37 -24 -109 -31v-33q0 -24 -12 -33t-26 -9t-26 9t-12 33v33q-105 12 -169 84.5t-64 179.5q0 106 63.5 176.5t169.5 85.5v32q0 24 12 33t26 9t26 -9t12 -33v-32q51 -3 89 -19
q51 -21 51 -66q0 -27 -18.5 -46t-45.5 -19q-18 0 -42 12q-14 7 -34 10v-270q19 1 33 8q26 13 42 13q29 0 46.5 -18.5t17.5 -46.5q0 -33 -30 -53z" />
    <glyph glyph-name="sterling" unicode="&#xa3;" horiz-adv-x="646" 
d="M539 708q60 -25 60 -74q0 -30 -19 -50.5t-50 -20.5q-20 0 -42 11q-26 12 -51 12q-56 0 -80.5 -35.5t-24.5 -83.5v-51h102q35 0 49.5 -18.5t14.5 -38.5q0 -21 -14 -39.5t-50 -18.5h-102v-160h191q44 0 61 -22.5t17 -47.5q0 -26 -17 -48.5t-61 -22.5h-383q-44 0 -61 22.5
t-17 48.5q0 25 17 47.5t61 22.5h27v160h-41q-36 0 -50 18.5t-14 39.5q0 12 4 23.5t19.5 22.5t40.5 11h41v61q0 43 15 85.5t44.5 80t81.5 61t119 23.5q68 0 112 -19z" />
    <glyph glyph-name="currency" unicode="&#xa4;" horiz-adv-x="950" 
d="M476 441q-55 0 -90.5 -38.5t-35.5 -93.5q0 -57 35.5 -95.5t90.5 -38.5q56 0 91.5 38.5t35.5 95.5q0 54 -36 93t-91 39zM329 75l-57 -57q-23 -23 -48 -23q-26 0 -43 17t-17 42q0 26 23 49l55 54q-42 62 -42 152q0 83 39 147l-51 51q-23 23 -23 49q0 25 17 42t43 17
q25 0 48 -23l53 -53q68 41 150 41q83 0 150 -39l51 51q23 23 48 23q26 0 43 -17t17 -42q0 -26 -23 -49l-49 -48q42 -65 42 -150q0 -90 -45 -155l52 -51q23 -23 23 -49q0 -25 -17 -42t-43 -17q-25 0 -48 23l-55 55q-64 -39 -146 -39q-78 0 -147 41z" />
    <glyph glyph-name="yen" unicode="&#xa5;" horiz-adv-x="646" 
d="M589 596l-131 -180h77q32 0 44.5 -16.5t12.5 -34.5q0 -11 -3.5 -21.5t-17.5 -20.5t-36 -10h-132v-65h132q32 0 44.5 -16.5t12.5 -34.5q0 -11 -3.5 -21.5t-17.5 -20.5t-36 -10h-132v-67q0 -49 -25 -68.5t-54 -19.5q-12 0 -24 3.5t-25 12t-21.5 27.5t-8.5 45v67h-131
q-32 0 -44.5 16.5t-12.5 35.5q0 11 3.5 21t17.5 20t36 10h131v65h-131q-32 0 -44.5 16.5t-12.5 35.5q0 11 3.5 21t17.5 20t36 10h80l-134 178q-18 25 -18 53q0 30 21 50.5t52 20.5q40 0 67 -42l147 -228l138 227q26 43 68 43q31 0 51.5 -21t20.5 -51q0 -26 -18 -50z" />
    <glyph glyph-name="brokenbar" unicode="&#xa6;" horiz-adv-x="241" 
d="M55 -112v236q0 41 21 57t45 16q23 0 44 -16t21 -57v-236q0 -41 -21 -57t-44 -16q-24 0 -45 16t-21 57zM55 376v236q0 41 21 57t45 16q23 0 44 -16t21 -57v-236q0 -41 -21 -57t-44 -16q-24 0 -45 16t-21 57z" />
    <glyph glyph-name="section" unicode="&#xa7;" horiz-adv-x="607" 
d="M414 263q0 27 -20 43.5t-58 32.5l-86 35q-41 -17 -41 -53q0 -19 13 -33.5t26.5 -21t40.5 -17.5l94 -37q31 14 31 51zM192 23q49 -36 104 -36q28 0 50.5 13.5t22.5 37.5q0 31 -26.5 47t-104.5 43q-88 30 -132 66t-44 104q0 89 86 138q-53 39 -53 113q0 58 37 100
t87.5 59.5t105.5 17.5q109 0 171 -50q28 -22 28 -55q0 -29 -20 -49t-49 -20q-27 0 -54 19q-35 24 -70 24q-28 0 -49 -12.5t-21 -36.5q0 -25 26 -42t91 -40q88 -32 136 -73t48 -112q0 -39 -20.5 -72.5t-54.5 -52.5q50 -35 50 -110q0 -49 -22 -87.5t-58.5 -60.5t-78 -33
t-85.5 -11q-103 0 -186 55q-40 27 -40 66q0 30 20.5 50.5t51.5 20.5q24 0 53 -21z" />
    <glyph glyph-name="dieresis" unicode="&#xa8;" 
d="M342 658q0 -34 -24.5 -58t-58.5 -24q-35 0 -59 24t-24 58q0 33 24 57t59 24q34 0 58.5 -23.5t24.5 -57.5zM125 658q0 -34 -24.5 -58t-59.5 -24q-34 0 -58.5 24t-24.5 58q0 33 24.5 57t58.5 24q35 0 59.5 -23.5t24.5 -57.5z" />
    <glyph glyph-name="copyright" unicode="&#xa9;" horiz-adv-x="800" 
d="M780 353q0 -156 -111 -265.5t-268 -109.5q-158 0 -269.5 109.5t-111.5 265.5q0 157 111.5 267t269.5 110q157 0 268 -110t111 -267zM720 353q0 133 -93.5 227t-225.5 94q-133 0 -227 -94t-94 -227q0 -132 93 -225.5t226 -93.5q132 0 226.5 93.5t94.5 225.5zM537 150
q-47 -28 -118 -28q-101 0 -169 61.5t-68 168.5q0 104 68.5 166.5t168.5 62.5q70 0 118 -31q30 -20 30 -48q0 -22 -15 -37t-38 -15q-17 0 -36 13q-24 16 -60 16q-53 0 -83.5 -37.5t-30.5 -88.5q0 -52 32 -90t88 -38q30 0 54 12q22 12 38 12q23 0 37 -15t14 -37q0 -28 -30 -47
z" />
    <glyph glyph-name="ordfeminine" unicode="&#xaa;" horiz-adv-x="384" 
d="M234 541v12h-12q-80 0 -80 -35q0 -13 11.5 -20t25.5 -7q26 0 40.5 14t14.5 36zM97 701q38 22 93 22q139 0 139 -128v-121q0 -30 -15 -41.5t-32 -11.5q-39 0 -46 37h-1q-22 -34 -84 -34q-43 0 -74.5 22.5t-31.5 65.5q0 98 186 98v4q0 35 -50 35q-21 0 -52 -14
q-12 -6 -23 -6q-14 0 -24 10t-10 25q0 23 25 37z" />
    <glyph glyph-name="guillemotleft" unicode="&#xab;" horiz-adv-x="543" 
d="M156 65l-97 140q-20 28 -20 49t20 49l97 140q21 31 52 31q24 0 41 -15.5t17 -41.5q0 -20 -14 -40l-84 -123l84 -123q14 -20 14 -40q0 -26 -17 -41.5t-41 -15.5q-31 0 -52 31zM382 65l-97 140q-20 28 -20 49t20 49l97 140q21 31 52 31q24 0 41 -15.5t17 -41.5
q0 -20 -14 -40l-84 -123l84 -123q14 -20 14 -40q0 -26 -17 -41.5t-41 -15.5q-31 0 -52 31z" />
    <glyph glyph-name="logicalnot" unicode="&#xac;" horiz-adv-x="666" 
d="M606 373v-165q0 -41 -21 -57t-44 -16t-44 16t-21 57v120h-366q-38 0 -53.5 20t-15.5 42q0 21 15.5 41t53.5 20h419q77 0 77 -78z" />
    <glyph glyph-name="uni00AD" unicode="&#xad;" horiz-adv-x="326" 
d="M227 197h-128q-41 0 -57 21t-16 44t16 44t57 21h128q41 0 57 -21t16 -44t-16 -44t-57 -21z" />
    <glyph glyph-name="registered" unicode="&#xae;" horiz-adv-x="600" 
d="M279 521h28q26 0 26 22q0 19 -26 19h-28v-41zM72 492q0 94 67 160.5t162 66.5q94 0 160.5 -66.5t66.5 -160.5t-66.5 -159.5t-160.5 -65.5q-95 0 -162 65.5t-67 159.5zM108 492q0 -79 56.5 -135.5t136.5 -56.5q79 0 135 56.5t56 135.5q0 80 -56 136t-135 56
q-80 0 -136.5 -56t-56.5 -136zM343 380l-48 79h-16v-55q0 -27 -14.5 -38t-29.5 -11t-29.5 11t-14.5 38v176q0 51 51 51h63q50 0 85.5 -20t35.5 -66q0 -55 -48 -74l32 -43q13 -18 13 -34q0 -17 -11.5 -28t-29.5 -11q-24 0 -39 25z" />
    <glyph glyph-name="macron" unicode="&#xaf;" 
d="M28 692h244q30 0 42 -15.5t12 -32.5q0 -10 -3.5 -20t-16.5 -19t-34 -9h-244q-30 0 -42 15.5t-12 32.5q0 10 3.5 20t16.5 19t34 9z" />
    <glyph glyph-name="degree" unicode="&#xb0;" horiz-adv-x="416" 
d="M376 558q0 -70 -49 -119t-119 -49t-119 49t-49 119t48.5 118.5t119.5 48.5t119.5 -48.5t48.5 -118.5zM296 558q0 36 -25.5 62t-62.5 26t-62.5 -26t-25.5 -62q0 -37 25.5 -62.5t62.5 -25.5t62.5 25.5t25.5 62.5z" />
    <glyph glyph-name="plusminus" unicode="&#xb1;" horiz-adv-x="666" 
d="M397 458h152q39 0 55 -20.5t16 -42.5q0 -13 -4.5 -25.5t-22 -25t-44.5 -12.5h-151v-70q0 -41 -21 -57t-44 -16t-44 16t-21 57v70h-152q-39 0 -55 20.5t-16 42.5q0 13 4.5 25.5t22 25t44.5 12.5h151v69q0 41 21 57t44 16t44 -16t21 -57v-69zM549 31h-433q-39 0 -55 20.5
t-16 42.5q0 23 15.5 43.5t55.5 20.5h433q40 0 55.5 -20.5t15.5 -43.5q0 -13 -4.5 -25.5t-22 -25t-44.5 -12.5z" />
    <glyph glyph-name="twosuperior" unicode="&#xb2;" horiz-adv-x="420" 
d="M81 394l144 128q29 27 29 56q0 18 -12 29.5t-33 11.5q-30 0 -47 -30q-21 -36 -52 -36q-24 0 -38.5 14.5t-14.5 37.5q0 16 10 34q46 80 147 80q67 0 113.5 -34t46.5 -100q0 -30 -12 -56t-25.5 -41t-38.5 -37l-89 -77h119q22 0 35.5 -9.5t17 -19.5t3.5 -20q0 -18 -12 -34
t-44 -16h-213q-40 0 -55 17t-15 37q0 32 36 65z" />
    <glyph glyph-name="threesuperior" unicode="&#xb3;" horiz-adv-x="420" 
d="M190 457q-26 0 -36.5 13.5t-10.5 28.5q0 9 3 17.5t14.5 16.5t29.5 8q64 0 64 46q0 17 -11.5 27.5t-31.5 10.5q-27 0 -46 -25q-18 -22 -43 -22q-21 0 -36 14t-15 35q0 23 19 42q50 51 126 51q64 0 108.5 -31t44.5 -90q0 -67 -57 -95q32 -11 49.5 -37.5t17.5 -62.5
q0 -67 -49 -102t-115 -35q-85 0 -135 50q-22 22 -22 46q0 21 15.5 36t36.5 15q23 0 48 -26q23 -24 53 -24q22 0 37.5 11.5t15.5 34.5q0 47 -74 47z" />
    <glyph glyph-name="acute" unicode="&#xb4;" 
d="M263 629l-68 -45q-34 -22 -56 -22q-23 0 -38 15t-15 37q0 32 41 61l65 47q34 25 58 25t40 -16t16 -39q0 -35 -43 -63z" />
    <glyph glyph-name="mu" unicode="&#xb5;" horiz-adv-x="666" 
d="M426 57h-1q-37 -64 -111 -64q-41 0 -63 20v-159q0 -51 -26 -70.5t-55 -19.5t-55 19.5t-26 70.5v564q0 51 26 70.5t55 19.5t55 -19.5t26 -70.5v-168q0 -29 4.5 -53.5t23 -47.5t49.5 -23q47 0 69 31t22 80v181q0 51 26 70.5t55 19.5t55 -19.5t26 -70.5v-351q0 -49 -25 -68
t-52 -19q-15 0 -30 5t-30.5 23.5t-17.5 48.5z" />
    <glyph glyph-name="paragraph" unicode="&#xb6;" horiz-adv-x="618" 
d="M555 639v-712q0 -37 -18.5 -51.5t-39.5 -14.5t-39.5 14.5t-18.5 51.5v681h-85v-681q0 -37 -18.5 -51.5t-39.5 -14.5t-39.5 14.5t-18.5 51.5v408q-98 2 -156 52t-58 131q0 190 244 190h217q70 0 70 -69z" />
    <glyph glyph-name="periodcentered" unicode="&#xb7;" 
d="M251 291q0 -41 -29.5 -69.5t-70.5 -28.5q-42 0 -72 28t-30 69t30 70t72 29q41 0 70.5 -28.5t29.5 -69.5z" />
    <glyph glyph-name="cedilla" unicode="&#xb8;" 
d="M136 -240q-44 0 -87 13q-30 9 -30 33q0 14 8.5 23.5t22.5 9.5q6 0 23 -5q27 -8 55 -8q50 0 50 32q0 28 -40 28q-10 0 -22 -2t-19 -2q-31 0 -31 26q0 11 12 27l64 85h82l-62 -80q7 1 18 1q103 0 103 -83q0 -52 -44.5 -75t-102.5 -23z" />
    <glyph glyph-name="onesuperior" unicode="&#xb9;" horiz-adv-x="420" 
d="M180 578l-37 -29q-17 -13 -35 -13q-21 0 -35 14t-14 36q0 25 28 45l89 67q27 20 52 20q16 0 29.5 -4.5t26.5 -23.5t13 -51v-312q0 -37 -18.5 -51t-39.5 -14t-40 14t-19 51v251z" />
    <glyph glyph-name="ordmasculine" unicode="&#xba;" horiz-adv-x="384" 
d="M348 575q0 -67 -44.5 -109t-111.5 -42q-66 0 -110.5 42t-44.5 109q0 66 44.5 107.5t110.5 41.5q67 0 111.5 -41.5t44.5 -107.5zM253 575q0 26 -17 44.5t-44 18.5t-43 -18.5t-16 -44.5q0 -27 16 -45.5t43 -18.5q28 0 44.5 18.5t16.5 45.5z" />
    <glyph glyph-name="guillemotright" unicode="&#xbb;" horiz-adv-x="543" 
d="M484 205l-97 -140q-21 -31 -52 -31q-24 0 -41 15.5t-17 41.5q0 20 14 40l84 123l-84 123q-14 20 -14 40q0 26 17 41.5t41 15.5q31 0 52 -31l97 -140q20 -28 20 -49t-20 -49zM258 205l-97 -140q-21 -31 -52 -31q-24 0 -41 15.5t-17 41.5q0 20 14 40l84 123l-84 123
q-14 20 -14 40q0 26 17 41.5t41 15.5q31 0 52 -31l97 -140q20 -28 20 -49t-20 -49z" />
    <glyph glyph-name="onequarter" unicode="&#xbc;" horiz-adv-x="940" 
d="M180 578l-37 -29q-17 -13 -35 -13q-21 0 -35 14t-14 36q0 25 28 45l89 67q27 20 52 20q16 0 29.5 -4.5t26.5 -23.5t13 -51v-312q0 -37 -18.5 -51t-39.5 -14t-40 14t-19 51v251zM718 177v134h-1l-88 -134h89zM839 83h-15v-33q0 -34 -17 -47t-36 -13t-36 13t-17 47v33h-144
q-26 0 -42 11.5t-20 23.5t-4 24q0 22 17 46l150 213q32 45 75 45q11 0 21.5 -3t23.5 -11t21 -26.5t8 -44.5v-184h15q30 0 41.5 -15t11.5 -32q0 -10 -3 -19.5t-16 -18.5t-34 -9zM679 658l-344 -647q-18 -34 -46 -34q-19 0 -33.5 13t-14.5 33q0 13 8 29l344 649q17 32 46 32
q19 0 33.5 -13t14.5 -33q0 -13 -8 -29z" />
    <glyph glyph-name="onehalf" unicode="&#xbd;" horiz-adv-x="940" 
d="M678 658l-344 -647q-18 -34 -46 -34q-19 0 -33.5 13t-14.5 33q0 13 8 29l344 649q17 32 46 32q19 0 33.5 -13t14.5 -33q0 -13 -8 -29zM180 578l-37 -29q-17 -13 -35 -13q-21 0 -35 14t-14 36q0 25 28 45l89 67q27 20 52 20q16 0 29.5 -4.5t26.5 -23.5t13 -51v-312
q0 -37 -18.5 -51t-39.5 -14t-40 14t-19 51v251zM601 119l144 128q29 27 29 56q0 18 -12 29.5t-33 11.5q-30 0 -47 -30q-21 -36 -52 -36q-24 0 -38.5 14.5t-14.5 37.5q0 16 10 34q46 80 147 80q67 0 113.5 -34t46.5 -100q0 -30 -12 -56t-25.5 -41t-38.5 -37l-89 -77h119
q22 0 35.5 -9.5t17 -19.5t3.5 -20q0 -18 -12 -34t-44 -16h-213q-40 0 -55 17t-15 37q0 32 36 65z" />
    <glyph glyph-name="threequarters" unicode="&#xbe;" horiz-adv-x="940" 
d="M718 177v134h-1l-88 -134h89zM839 83h-15v-33q0 -34 -17 -47t-36 -13t-36 13t-17 47v33h-144q-26 0 -42 11.5t-20 23.5t-4 24q0 22 17 46l150 213q32 45 75 45q11 0 21.5 -3t23.5 -11t21 -26.5t8 -44.5v-184h15q30 0 41.5 -15t11.5 -32q0 -10 -3 -19.5t-16 -18.5t-34 -9z
M190 457q-26 0 -36.5 13.5t-10.5 28.5q0 9 3 17.5t14.5 16.5t29.5 8q64 0 64 46q0 17 -11.5 27.5t-31.5 10.5q-27 0 -46 -25q-18 -22 -43 -22q-21 0 -36 14t-15 35q0 23 19 42q50 51 126 51q64 0 108.5 -31t44.5 -90q0 -67 -57 -95q32 -11 49.5 -37.5t17.5 -62.5
q0 -67 -49 -102t-115 -35q-85 0 -135 50q-22 22 -22 46q0 21 15.5 36t36.5 15q23 0 48 -26q23 -24 53 -24q22 0 37.5 11.5t15.5 34.5q0 47 -74 47zM679 658l-344 -647q-18 -34 -46 -34q-19 0 -33.5 13t-14.5 33q0 13 8 29l344 649q17 32 46 32q19 0 33.5 -13t14.5 -33
q0 -13 -8 -29z" />
    <glyph glyph-name="questiondown" unicode="&#xbf;" horiz-adv-x="546" 
d="M166 423q0 40 28 67.5t69 27.5q40 0 69 -27.5t29 -66.5t-29 -67t-69 -28t-68.5 27.5t-28.5 66.5zM336 -33q28 53 75 53q34 0 55.5 -21.5t21.5 -54.5q0 -28 -15 -53q-33 -53 -89.5 -81.5t-127.5 -28.5q-98 0 -167 51t-69 149q0 61 26 98.5t86 83.5q24 20 34 32.5t17 34.5
q21 65 80 65q27 0 52.5 -18t25.5 -60q0 -30 -19 -57.5t-59 -65.5l-33 -31q-22 -20 -31.5 -35t-9.5 -36q0 -32 19.5 -51t53.5 -19q50 0 74 45z" />
    <glyph glyph-name="Agrave" unicode="&#xc0;" horiz-adv-x="729" 
d="M549 55l-34 84h-305l-35 -85q-27 -64 -84 -64q-35 0 -59 22t-24 60q0 22 11 48l234 514q38 84 113 84t112 -84l232 -512q10 -24 10 -46q0 -39 -25 -62.5t-60 -23.5q-60 0 -86 65zM363 511l-97 -235h193zM307 776l-68 45q-43 28 -43 63q0 23 16 39t40 16t58 -25l65 -47
q41 -29 41 -61q0 -22 -15 -37t-38 -15q-22 0 -56 22z" />
    <glyph glyph-name="Aacute" unicode="&#xc1;" horiz-adv-x="729" 
d="M549 55l-34 84h-305l-35 -85q-27 -64 -84 -64q-35 0 -59 22t-24 60q0 22 11 48l234 514q38 84 113 84t112 -84l232 -512q10 -24 10 -46q0 -39 -25 -62.5t-60 -23.5q-60 0 -86 65zM363 511l-97 -235h193zM493 821l-68 -45q-34 -22 -56 -22q-23 0 -38 15t-15 37q0 32 41 61
l65 47q34 25 58 25t40 -16t16 -39q0 -35 -43 -63z" />
    <glyph glyph-name="Acircumflex" unicode="&#xc2;" horiz-adv-x="729" 
d="M549 55l-34 84h-305l-35 -85q-27 -64 -84 -64q-35 0 -59 22t-24 60q0 22 11 48l234 514q38 84 113 84t112 -84l232 -512q10 -24 10 -46q0 -39 -25 -62.5t-60 -23.5q-60 0 -86 65zM363 511l-97 -235h193zM366 835l-80 -63q-23 -18 -42 -18q-20 0 -33.5 14t-13.5 33
q0 25 25 45l81 66q35 27 61 27q28 0 61 -27l82 -66q24 -19 24 -45q0 -19 -13.5 -33t-34.5 -14q-19 0 -42 18z" />
    <glyph glyph-name="Atilde" unicode="&#xc3;" horiz-adv-x="729" 
d="M549 55l-34 84h-305l-35 -85q-27 -64 -84 -64q-35 0 -59 22t-24 60q0 22 11 48l234 514q38 84 113 84t112 -84l232 -512q10 -24 10 -46q0 -39 -25 -62.5t-60 -23.5q-60 0 -86 65zM363 511l-97 -235h193zM462 878q21 29 44 29q18 0 29.5 -11t11.5 -29q0 -11 -5 -24
q-31 -76 -110 -76q-38 0 -76 21q-36 20 -55 20t-33 -18q-21 -29 -44 -29q-18 0 -29.5 11t-11.5 29q0 11 5 24q31 76 110 76q38 0 76 -21q36 -20 55 -20t33 18z" />
    <glyph glyph-name="Adieresis" unicode="&#xc4;" horiz-adv-x="729" 
d="M549 55l-34 84h-305l-35 -85q-27 -64 -84 -64q-35 0 -59 22t-24 60q0 22 11 48l234 514q38 84 113 84t112 -84l232 -512q10 -24 10 -46q0 -39 -25 -62.5t-60 -23.5q-60 0 -86 65zM363 511l-97 -235h193zM557 850q0 -34 -24.5 -58t-58.5 -24q-35 0 -59 24t-24 58
q0 33 24 57t59 24q34 0 58.5 -23.5t24.5 -57.5zM340 850q0 -34 -24.5 -58t-59.5 -24q-34 0 -58.5 24t-24.5 58q0 33 24.5 57t58.5 24q35 0 59.5 -23.5t24.5 -57.5z" />
    <glyph glyph-name="Aring" unicode="&#xc5;" horiz-adv-x="729" 
d="M549 55l-34 84h-305l-35 -85q-27 -64 -84 -64q-35 0 -59 22t-24 60q0 22 11 48l234 514q38 84 113 84t112 -84l232 -512q10 -24 10 -46q0 -39 -25 -62.5t-60 -23.5q-60 0 -86 65zM363 511l-97 -235h193zM475 856q0 -46 -31.5 -76.5t-77.5 -30.5q-45 0 -77 30.5t-32 75.5
q0 46 31.5 77t77.5 31q45 0 77 -31t32 -76zM425 856q0 25 -17 41.5t-42 16.5t-42 -17t-17 -42q0 -24 17 -40.5t42 -16.5t42 16.5t17 41.5z" />
    <glyph glyph-name="AE" unicode="&#xc6;" horiz-adv-x="1033" 
d="M514 153h-260l-68 -111q-31 -52 -79 -52q-35 0 -59 23t-24 58q0 29 16 55l339 529q34 53 94 53h431q46 0 63.5 -23t17.5 -49q0 -16 -5 -30.5t-24.5 -28.5t-51.5 -14h-227v-133h212q46 0 62.5 -21.5t16.5 -46.5q0 -15 -4.5 -28.5t-23.5 -27t-51 -13.5h-212v-147h245
q46 0 63.5 -23t17.5 -50q0 -16 -5 -30.5t-24.5 -28.5t-51.5 -14h-312q-50 0 -73 23.5t-23 74.5v55zM504 563l-166 -272h176v272h-10z" />
    <glyph glyph-name="Ccedilla" unicode="&#xc7;" horiz-adv-x="696" 
d="M384 -240q-44 0 -87 13q-30 9 -30 33q0 14 8.5 23.5t22.5 9.5q6 0 23 -5q27 -8 55 -8q50 0 50 32q0 28 -40 28q-10 0 -22 -2t-19 -2q-31 0 -31 26q0 11 12 27l37 50q-143 18 -233 119t-90 251q0 167 109.5 269.5t274.5 102.5q55 0 109.5 -14.5t83.5 -35.5q41 -30 41 -73
q0 -33 -22.5 -55t-55.5 -22q-25 0 -58 21q-39 24 -92 24q-89 0 -146.5 -61.5t-57.5 -155.5q0 -96 56 -156.5t145 -60.5q57 0 102 31q33 23 60 23q32 0 54 -21.5t22 -55.5q0 -40 -39 -71q-29 -24 -78.5 -41.5t-105.5 -20.5l-32 -42q7 1 18 1q103 0 103 -83q0 -52 -44.5 -75
t-102.5 -23z" />
    <glyph glyph-name="Egrave" unicode="&#xc8;" horiz-adv-x="607" 
d="M238 430h225q46 0 62.5 -21.5t16.5 -46.5q0 -15 -4.5 -28.5t-23.5 -27t-51 -13.5h-225v-147h258q46 0 63.5 -23t17.5 -50q0 -16 -5 -30.5t-24.5 -28.5t-51.5 -14h-325q-98 0 -98 98v512q0 98 98 98h307q46 0 63.5 -23t17.5 -49q0 -16 -5 -30.5t-24.5 -28.5t-51.5 -14
h-240v-133zM284 776l-68 45q-43 28 -43 63q0 23 16 39t40 16t58 -25l65 -47q41 -29 41 -61q0 -22 -15 -37t-38 -15q-22 0 -56 22z" />
    <glyph glyph-name="Eacute" unicode="&#xc9;" horiz-adv-x="607" 
d="M238 430h225q46 0 62.5 -21.5t16.5 -46.5q0 -15 -4.5 -28.5t-23.5 -27t-51 -13.5h-225v-147h258q46 0 63.5 -23t17.5 -50q0 -16 -5 -30.5t-24.5 -28.5t-51.5 -14h-325q-98 0 -98 98v512q0 98 98 98h307q46 0 63.5 -23t17.5 -49q0 -16 -5 -30.5t-24.5 -28.5t-51.5 -14
h-240v-133zM431 821l-68 -45q-34 -22 -56 -22q-23 0 -38 15t-15 37q0 32 41 61l65 47q34 25 58 25t40 -16t16 -39q0 -35 -43 -63z" />
    <glyph glyph-name="Ecircumflex" unicode="&#xca;" horiz-adv-x="607" 
d="M238 430h225q46 0 62.5 -21.5t16.5 -46.5q0 -15 -4.5 -28.5t-23.5 -27t-51 -13.5h-225v-147h258q46 0 63.5 -23t17.5 -50q0 -16 -5 -30.5t-24.5 -28.5t-51.5 -14h-325q-98 0 -98 98v512q0 98 98 98h307q46 0 63.5 -23t17.5 -49q0 -16 -5 -30.5t-24.5 -28.5t-51.5 -14
h-240v-133zM324 835l-80 -63q-22 -18 -42 -18t-33.5 14t-13.5 33q0 25 25 45l81 66q34 27 61 27q28 0 61 -27l82 -66q24 -19 24 -45q0 -19 -13.5 -33t-34.5 -14q-19 0 -42 18z" />
    <glyph glyph-name="Edieresis" unicode="&#xcb;" horiz-adv-x="607" 
d="M238 430h225q46 0 62.5 -21.5t16.5 -46.5q0 -15 -4.5 -28.5t-23.5 -27t-51 -13.5h-225v-147h258q46 0 63.5 -23t17.5 -50q0 -16 -5 -30.5t-24.5 -28.5t-51.5 -14h-325q-98 0 -98 98v512q0 98 98 98h307q46 0 63.5 -23t17.5 -49q0 -16 -5 -30.5t-24.5 -28.5t-51.5 -14
h-240v-133zM513 850q0 -34 -24.5 -58t-58.5 -24q-35 0 -59 24t-24 58q0 33 24 57t59 24q34 0 58.5 -23.5t24.5 -57.5zM296 850q0 -34 -24.5 -58t-59.5 -24q-34 0 -58.5 24t-24.5 58q0 33 24.5 57t58.5 24q35 0 59.5 -23.5t24.5 -57.5z" />
    <glyph glyph-name="Igrave" unicode="&#xcc;" horiz-adv-x="318" 
d="M73 86v536q0 54 27.5 75t58.5 21t58.5 -21t27.5 -75v-536q0 -54 -27.5 -75t-58.5 -21t-58.5 21t-27.5 75zM106 776l-68 45q-43 28 -43 63q0 23 16 39t40 16t58 -25l65 -47q41 -29 41 -61q0 -22 -15 -37t-38 -15q-22 0 -56 22z" />
    <glyph glyph-name="Iacute" unicode="&#xcd;" horiz-adv-x="318" 
d="M73 86v536q0 54 27.5 75t58.5 21t58.5 -21t27.5 -75v-536q0 -54 -27.5 -75t-58.5 -21t-58.5 21t-27.5 75zM280 821l-68 -45q-34 -22 -56 -22q-23 0 -38 15t-15 37q0 32 41 61l65 47q34 25 58 25t40 -16t16 -39q0 -35 -43 -63z" />
    <glyph glyph-name="Icircumflex" unicode="&#xce;" horiz-adv-x="318" 
d="M73 86v536q0 54 27.5 75t58.5 21t58.5 -21t27.5 -75v-536q0 -54 -27.5 -75t-58.5 -21t-58.5 21t-27.5 75zM161 835l-80 -63q-23 -18 -42 -18q-20 0 -33.5 14t-13.5 33q0 25 25 45l81 66q34 27 61 27q28 0 61 -27l82 -66q24 -19 24 -45q0 -19 -13.5 -33t-34.5 -14
q-20 0 -42 18z" />
    <glyph glyph-name="Idieresis" unicode="&#xcf;" horiz-adv-x="318" 
d="M73 86v536q0 54 27.5 75t58.5 21t58.5 -21t27.5 -75v-536q0 -54 -27.5 -75t-58.5 -21t-58.5 21t-27.5 75zM351 850q0 -34 -24.5 -58t-58.5 -24q-35 0 -59 24t-24 58q0 33 24 57t59 24q34 0 58.5 -23.5t24.5 -57.5zM134 850q0 -34 -24.5 -58t-59.5 -24q-34 0 -58.5 24
t-24.5 58q0 33 24.5 57t58.5 24q35 0 59.5 -23.5t24.5 -57.5z" />
    <glyph glyph-name="Eth" unicode="&#xd0;" horiz-adv-x="774" 
d="M337 0h-166q-98 0 -98 98v211h-10q-34 0 -47 17t-13 37q0 11 3.5 21.5t18 21t38.5 10.5h10v194q0 98 98 98h158q63 0 119.5 -10.5t109.5 -36.5t91.5 -65t61.5 -100.5t23 -139.5q0 -90 -34 -160t-91.5 -112t-126.5 -63t-145 -21zM556 356q0 57 -19 98.5t-52.5 64.5t-73 33
t-86.5 10h-85v-146h132q34 0 47 -17t13 -36q0 -12 -3.5 -22.5t-18 -21t-38.5 -10.5h-132v-161h81q103 0 169 49t66 159z" />
    <glyph glyph-name="Ntilde" unicode="&#xd1;" horiz-adv-x="790" 
d="M507 57l-269 390h-3l3 -365q0 -36 -15.5 -58.5t-32.5 -28t-35 -5.5q-30 0 -56 20t-26 72v519q0 35 11 60t28.5 36.5t33 16t29.5 4.5q62 0 108 -67l269 -389h3l-3 364q0 36 15.5 58.5t32 28t34.5 5.5q30 0 56.5 -20t26.5 -72v-519q0 -35 -11 -60t-28.5 -36.5t-33 -16
t-29.5 -4.5q-62 0 -108 67zM496 878q21 29 44 29q18 0 29.5 -11t11.5 -29q0 -11 -5 -24q-31 -76 -110 -76q-38 0 -76 21q-36 20 -55 20t-33 -18q-21 -29 -44 -29q-18 0 -29.5 11t-11.5 29q0 11 5 24q31 76 110 76q38 0 76 -21q36 -20 55 -20t33 18z" />
    <glyph glyph-name="Ograve" unicode="&#xd2;" horiz-adv-x="851" 
d="M811 357q0 -167 -109 -271.5t-277 -104.5q-167 0 -276 104.5t-109 271.5q0 168 108.5 269t276.5 101q169 0 277.5 -101t108.5 -269zM628 357q0 94 -57 155t-146 61t-145.5 -61t-56.5 -155q0 -96 56.5 -158t145.5 -62t146 62t57 158zM398 776l-68 45q-43 28 -43 63
q0 23 16 39t40 16t58 -25l65 -47q41 -29 41 -61q0 -22 -15 -37t-38 -15q-22 0 -56 22z" />
    <glyph glyph-name="Oacute" unicode="&#xd3;" horiz-adv-x="851" 
d="M811 357q0 -167 -109 -271.5t-277 -104.5q-167 0 -276 104.5t-109 271.5q0 168 108.5 269t276.5 101q169 0 277.5 -101t108.5 -269zM628 357q0 94 -57 155t-146 61t-145.5 -61t-56.5 -155q0 -96 56.5 -158t145.5 -62t146 62t57 158zM532 821l-68 -45q-34 -22 -56 -22
q-23 0 -38 15t-15 37q0 32 41 61l65 47q34 25 58 25t40 -16t16 -39q0 -35 -43 -63z" />
    <glyph glyph-name="Ocircumflex" unicode="&#xd4;" horiz-adv-x="851" 
d="M811 357q0 -167 -109 -271.5t-277 -104.5q-167 0 -276 104.5t-109 271.5q0 168 108.5 269t276.5 101q169 0 277.5 -101t108.5 -269zM628 357q0 94 -57 155t-146 61t-145.5 -61t-56.5 -155q0 -96 56.5 -158t145.5 -62t146 62t57 158zM428 835l-80 -63q-22 -18 -42 -18
t-33.5 14t-13.5 33q0 25 25 45l81 66q35 27 61 27q28 0 61 -27l82 -66q24 -19 24 -45q0 -19 -13.5 -33t-34.5 -14q-19 0 -42 18z" />
    <glyph glyph-name="Otilde" unicode="&#xd5;" horiz-adv-x="851" 
d="M811 357q0 -167 -109 -271.5t-277 -104.5q-167 0 -276 104.5t-109 271.5q0 168 108.5 269t276.5 101q169 0 277.5 -101t108.5 -269zM628 357q0 94 -57 155t-146 61t-145.5 -61t-56.5 -155q0 -96 56.5 -158t145.5 -62t146 62t57 158zM524 878q21 29 44 29q18 0 29.5 -11
t11.5 -29q0 -11 -5 -24q-31 -76 -110 -76q-38 0 -76 21q-36 20 -55 20t-33 -18q-21 -29 -44 -29q-18 0 -29.5 11t-11.5 29q0 11 5 24q31 76 110 76q38 0 76 -21q36 -20 55 -20t33 18z" />
    <glyph glyph-name="Odieresis" unicode="&#xd6;" horiz-adv-x="851" 
d="M811 357q0 -167 -109 -271.5t-277 -104.5q-167 0 -276 104.5t-109 271.5q0 168 108.5 269t276.5 101q169 0 277.5 -101t108.5 -269zM628 357q0 94 -57 155t-146 61t-145.5 -61t-56.5 -155q0 -96 56.5 -158t145.5 -62t146 62t57 158zM618 850q0 -34 -24.5 -58t-58.5 -24
q-35 0 -59 24t-24 58q0 33 24 57t59 24q34 0 58.5 -23.5t24.5 -57.5zM401 850q0 -34 -24.5 -58t-59.5 -24q-34 0 -58.5 24t-24.5 58q0 33 24.5 57t58.5 24q35 0 59.5 -23.5t24.5 -57.5z" />
    <glyph glyph-name="multiply" unicode="&#xd7;" horiz-adv-x="666" 
d="M466 79l-134 131l-132 -130q-24 -24 -51 -24q-25 0 -44.5 18.5t-19.5 44.5q0 28 24 52l131 130l-132 129q-24 24 -24 53q0 26 19.5 44.5t44.5 18.5q28 0 52 -24l133 -129l131 129q24 24 51 24q24 0 43.5 -18.5t19.5 -43.5q0 -27 -25 -52l-129 -127l135 -133
q23 -23 23 -51q0 -27 -19 -46t-45 -19q-29 0 -52 23z" />
    <glyph glyph-name="Oslash" unicode="&#xd8;" horiz-adv-x="851" 
d="M635 356q0 80 -38 130l-292 -318q46 -37 119 -37q95 0 153 64t58 161zM214 355q0 -73 31 -120l290 315q-44 29 -110 29q-96 0 -153.5 -64t-57.5 -160zM195 51l-59 -63q-19 -20 -38 -20t-31.5 12t-12.5 31t16 36l58 63q-88 94 -88 246q0 168 108.5 269t276.5 101
q126 0 219 -58l58 65q18 20 38 20q19 0 31.5 -12t12.5 -31t-16 -36l-56 -61q99 -101 99 -257q0 -166 -109.5 -269.5t-277.5 -104.5h-5q-135 0 -224 69z" />
    <glyph glyph-name="Ugrave" unicode="&#xd9;" horiz-adv-x="738" 
d="M502 281v342q0 54 27 74.5t59 20.5q31 0 58 -20.5t27 -74.5v-356q0 -128 -83.5 -207t-221.5 -79t-220 78.5t-82 207.5v356q0 54 27 74.5t58 20.5t58 -20.5t27 -74.5v-342q0 -63 33 -104.5t100 -41.5q68 0 100.5 41.5t32.5 104.5zM342 776l-68 45q-43 28 -43 63
q0 23 16 39t40 16t58 -25l65 -47q41 -29 41 -61q0 -22 -15 -37t-38 -15q-22 0 -56 22z" />
    <glyph glyph-name="Uacute" unicode="&#xda;" horiz-adv-x="738" 
d="M502 281v342q0 54 27 74.5t59 20.5q31 0 58 -20.5t27 -74.5v-356q0 -128 -83.5 -207t-221.5 -79t-220 78.5t-82 207.5v356q0 54 27 74.5t58 20.5t58 -20.5t27 -74.5v-342q0 -63 33 -104.5t100 -41.5q68 0 100.5 41.5t32.5 104.5zM469 821l-68 -45q-34 -22 -56 -22
q-23 0 -38 15t-15 37q0 32 41 61l65 47q34 25 58 25t40 -16t16 -39q0 -35 -43 -63z" />
    <glyph glyph-name="Ucircumflex" unicode="&#xdb;" horiz-adv-x="738" 
d="M502 281v342q0 54 27 74.5t59 20.5q31 0 58 -20.5t27 -74.5v-356q0 -128 -83.5 -207t-221.5 -79t-220 78.5t-82 207.5v356q0 54 27 74.5t58 20.5t58 -20.5t27 -74.5v-342q0 -63 33 -104.5t100 -41.5q68 0 100.5 41.5t32.5 104.5zM373 835l-80 -63q-23 -18 -42 -18
q-20 0 -33.5 14t-13.5 33q0 25 25 45l81 66q35 27 61 27q28 0 61 -27l82 -66q24 -19 24 -45q0 -19 -13.5 -33t-34.5 -14q-20 0 -42 18z" />
    <glyph glyph-name="Udieresis" unicode="&#xdc;" horiz-adv-x="738" 
d="M502 281v342q0 54 27 74.5t59 20.5q31 0 58 -20.5t27 -74.5v-356q0 -128 -83.5 -207t-221.5 -79t-220 78.5t-82 207.5v356q0 54 27 74.5t58 20.5t58 -20.5t27 -74.5v-342q0 -63 33 -104.5t100 -41.5q68 0 100.5 41.5t32.5 104.5zM562 850q0 -34 -24.5 -58t-58.5 -24
q-35 0 -59 24t-24 58q0 33 24 57t59 24q34 0 58.5 -23.5t24.5 -57.5zM345 850q0 -34 -24.5 -58t-59.5 -24q-34 0 -58.5 24t-24.5 58q0 33 24.5 57t58.5 24q35 0 59.5 -23.5t24.5 -57.5z" />
    <glyph glyph-name="Yacute" unicode="&#xdd;" horiz-adv-x="669" 
d="M338 446l165 223q37 49 79 49q33 0 57 -22t24 -56t-27 -68l-219 -272v-215q0 -54 -27 -74.5t-58 -20.5q-32 0 -59 20.5t-27 74.5v215l-213 269q-27 35 -27 66q0 35 24.5 59t60.5 24q44 0 84 -53zM457 821l-68 -45q-34 -22 -56 -22q-23 0 -38 15t-15 37q0 32 41 61l65 47
q34 25 58 25t40 -16t16 -39q0 -35 -43 -63z" />
    <glyph glyph-name="Thorn" unicode="&#xde;" horiz-adv-x="640" 
d="M439 368q0 82 -120 82h-75v-168h72q123 0 123 86zM73 86v536q0 54 27.5 75t58.5 21q30 0 57.5 -21t27.5 -75v-35h89q126 0 201.5 -51.5t75.5 -166.5q0 -78 -40.5 -130t-101 -72.5t-139.5 -20.5h-85v-60q0 -54 -27.5 -75t-57.5 -21q-31 0 -58.5 21t-27.5 75z" />
    <glyph glyph-name="germandbls" unicode="&#xdf;" horiz-adv-x="667" 
d="M376 -13q-106 0 -106 72q0 24 17 46.5t60 22.5q116 0 116 102q0 91 -99 111q-67 14 -67 68q0 51 65 69q53 15 53 76q0 34 -22.5 57.5t-61.5 23.5q-55 0 -79 -39.5t-24 -95.5v-418q0 -52 -26 -72t-56 -20t-56 20t-26 72v419q0 120 69 193.5t205 73.5q103 0 172.5 -54.5
t69.5 -145.5q0 -54 -29.5 -95t-74.5 -55v-1q70 -14 111.5 -66t41.5 -129q0 -109 -69 -172t-184 -63z" />
    <glyph glyph-name="agrave" unicode="&#xe0;" horiz-adv-x="566" 
d="M358 200v17h-21q-153 0 -153 -68q0 -26 21 -38.5t50 -12.5q49 0 76 27.5t27 74.5zM171 360q-20 -10 -38 -10q-24 0 -41 17t-17 42q0 37 39 61q72 44 165 44q123 0 176 -62.5t53 -200.5v-175q0 -48 -24.5 -67t-51.5 -19q-23 0 -45.5 14t-28.5 49h-3q-18 -30 -57 -47.5
t-84 -17.5q-44 0 -82.5 13.5t-68.5 50.5t-30 92q0 168 320 168v8q0 33 -23.5 52.5t-61.5 19.5q-33 0 -97 -32zM254 584l-68 45q-43 28 -43 63q0 23 16 39t40 16t58 -25l65 -47q41 -29 41 -61q0 -22 -15 -37t-38 -15q-22 0 -56 22z" />
    <glyph glyph-name="aacute" unicode="&#xe1;" horiz-adv-x="566" 
d="M358 200v17h-21q-153 0 -153 -68q0 -26 21 -38.5t50 -12.5q49 0 76 27.5t27 74.5zM171 360q-20 -10 -38 -10q-24 0 -41 17t-17 42q0 37 39 61q72 44 165 44q123 0 176 -62.5t53 -200.5v-175q0 -48 -24.5 -67t-51.5 -19q-23 0 -45.5 14t-28.5 49h-3q-18 -30 -57 -47.5
t-84 -17.5q-44 0 -82.5 13.5t-68.5 50.5t-30 92q0 168 320 168v8q0 33 -23.5 52.5t-61.5 19.5q-33 0 -97 -32zM384 629l-68 -45q-34 -22 -56 -22q-23 0 -38 15t-15 37q0 32 41 61l65 47q34 25 58 25t40 -16t16 -39q0 -35 -43 -63z" />
    <glyph glyph-name="acircumflex" unicode="&#xe2;" horiz-adv-x="566" 
d="M358 200v17h-21q-153 0 -153 -68q0 -26 21 -38.5t50 -12.5q49 0 76 27.5t27 74.5zM171 360q-20 -10 -38 -10q-24 0 -41 17t-17 42q0 37 39 61q72 44 165 44q123 0 176 -62.5t53 -200.5v-175q0 -48 -24.5 -67t-51.5 -19q-23 0 -45.5 14t-28.5 49h-3q-18 -30 -57 -47.5
t-84 -17.5q-44 0 -82.5 13.5t-68.5 50.5t-30 92q0 168 320 168v8q0 33 -23.5 52.5t-61.5 19.5q-33 0 -97 -32zM285 643l-80 -63q-23 -18 -42 -18q-20 0 -33.5 14t-13.5 33q0 25 25 45l81 66q34 27 61 27q28 0 61 -27l82 -66q24 -19 24 -45q0 -19 -13.5 -33t-34.5 -14
q-20 0 -42 18z" />
    <glyph glyph-name="atilde" unicode="&#xe3;" horiz-adv-x="566" 
d="M358 200v17h-21q-153 0 -153 -68q0 -26 21 -38.5t50 -12.5q49 0 76 27.5t27 74.5zM171 360q-20 -10 -38 -10q-24 0 -41 17t-17 42q0 37 39 61q72 44 165 44q123 0 176 -62.5t53 -200.5v-175q0 -48 -24.5 -67t-51.5 -19q-23 0 -45.5 14t-28.5 49h-3q-18 -30 -57 -47.5
t-84 -17.5q-44 0 -82.5 13.5t-68.5 50.5t-30 92q0 168 320 168v8q0 33 -23.5 52.5t-61.5 19.5q-33 0 -97 -32zM385 686q21 29 44 29q18 0 29.5 -11t11.5 -29q0 -11 -5 -24q-31 -76 -110 -76q-39 0 -76 21q-36 20 -55 20t-33 -18q-21 -29 -44 -29q-18 0 -29.5 11t-11.5 29
q0 11 5 24q31 76 110 76q39 0 76 -21q36 -20 55 -20t33 18z" />
    <glyph glyph-name="adieresis" unicode="&#xe4;" horiz-adv-x="566" 
d="M358 200v17h-21q-153 0 -153 -68q0 -26 21 -38.5t50 -12.5q49 0 76 27.5t27 74.5zM171 360q-20 -10 -38 -10q-24 0 -41 17t-17 42q0 37 39 61q72 44 165 44q123 0 176 -62.5t53 -200.5v-175q0 -48 -24.5 -67t-51.5 -19q-23 0 -45.5 14t-28.5 49h-3q-18 -30 -57 -47.5
t-84 -17.5q-44 0 -82.5 13.5t-68.5 50.5t-30 92q0 168 320 168v8q0 33 -23.5 52.5t-61.5 19.5q-33 0 -97 -32zM477 658q0 -34 -24.5 -58t-58.5 -24q-35 0 -59 24t-24 58q0 33 24 57t59 24q34 0 58.5 -23.5t24.5 -57.5zM260 658q0 -34 -24.5 -58t-59.5 -24q-34 0 -58.5 24
t-24.5 58q0 33 24.5 57t58.5 24q35 0 59.5 -23.5t24.5 -57.5z" />
    <glyph glyph-name="aring" unicode="&#xe5;" horiz-adv-x="566" 
d="M358 200v17h-21q-153 0 -153 -68q0 -26 21 -38.5t50 -12.5q49 0 76 27.5t27 74.5zM171 360q-20 -10 -38 -10q-24 0 -41 17t-17 42q0 37 39 61q72 44 165 44q123 0 176 -62.5t53 -200.5v-175q0 -48 -24.5 -67t-51.5 -19q-23 0 -45.5 14t-28.5 49h-3q-18 -30 -57 -47.5
t-84 -17.5q-44 0 -82.5 13.5t-68.5 50.5t-30 92q0 168 320 168v8q0 33 -23.5 52.5t-61.5 19.5q-33 0 -97 -32zM396 664q0 -46 -31.5 -76.5t-77.5 -30.5q-45 0 -77 30.5t-32 75.5q0 46 31.5 77t77.5 31q45 0 77 -31t32 -76zM346 664q0 25 -17 41.5t-42 16.5t-42 -17t-17 -42
q0 -24 17 -40.5t42 -16.5t42 16.5t17 41.5z" />
    <glyph glyph-name="ae" unicode="&#xe6;" horiz-adv-x="899" 
d="M358 191v16h-21q-77 0 -115 -12t-38 -46q0 -26 21 -38.5t50 -12.5q49 0 76 25t27 68zM498 306h211q0 41 -25.5 68t-72.5 27q-46 0 -78 -28t-35 -67zM617 110q53 0 95 29q31 21 52 21q27 0 45 -17.5t18 -44.5q0 -33 -29 -56q-71 -58 -184 -58q-59 0 -108.5 23.5
t-78.5 66.5q-53 -86 -202 -86q-75 0 -133.5 39t-58.5 117q0 50 26 83.5t74.5 49.5t99.5 22t120 6v7q0 40 -23 60t-62 20q-33 0 -97 -32q-20 -10 -38 -10q-24 0 -41 17t-17 42q0 37 39 61q72 44 165 44q111 0 161 -73q63 73 171 73q93 0 157.5 -51.5t84.5 -141.5q5 -23 5 -38
q0 -79 -85 -79h-274q4 -41 38.5 -67.5t79.5 -26.5z" />
    <glyph glyph-name="ccedilla" unicode="&#xe7;" horiz-adv-x="503" 
d="M283 -240q-44 0 -87 13q-30 9 -30 33q0 14 8.5 23.5t22.5 9.5q5 0 23 -5q27 -8 55 -8q50 0 50 32q0 28 -40 28q-10 0 -22 -2t-19 -2q-31 0 -31 26q0 11 12 27l40 53q-101 15 -163.5 84.5t-62.5 176.5q0 119 79.5 192t198.5 73q64 0 110 -22q48 -23 48 -66
q0 -30 -17.5 -50.5t-49.5 -20.5q-20 0 -44 12q-20 10 -44 10q-51 0 -83 -37.5t-32 -90.5t32 -90t85 -37q26 0 44 9q24 12 44 12q32 0 49.5 -20.5t17.5 -50.5q0 -42 -48 -66q-35 -16 -85 -21l-35 -45q7 1 18 1q103 0 103 -83q0 -52 -44.5 -75t-102.5 -23z" />
    <glyph glyph-name="egrave" unicode="&#xe8;" horiz-adv-x="596" 
d="M196 306h211q0 41 -25.5 68t-72.5 27q-46 0 -78 -28t-35 -67zM410 139q31 21 52 21q27 0 45 -17.5t18 -44.5q0 -33 -29 -56q-71 -58 -183 -58q-117 0 -195.5 70.5t-78.5 192.5q0 120 76.5 193.5t192.5 73.5q93 0 157.5 -51.5t84.5 -141.5q5 -23 5 -38q0 -79 -85 -79h-274
q4 -40 39 -67t80 -27q53 0 95 29zM274 584l-68 45q-43 28 -43 63q0 23 16 39t40 16t58 -25l65 -47q41 -29 41 -61q0 -22 -15 -37t-38 -15q-22 0 -56 22z" />
    <glyph glyph-name="eacute" unicode="&#xe9;" horiz-adv-x="596" 
d="M196 306h211q0 41 -25.5 68t-72.5 27q-46 0 -78 -28t-35 -67zM410 139q31 21 52 21q27 0 45 -17.5t18 -44.5q0 -33 -29 -56q-71 -58 -183 -58q-117 0 -195.5 70.5t-78.5 192.5q0 120 76.5 193.5t192.5 73.5q93 0 157.5 -51.5t84.5 -141.5q5 -23 5 -38q0 -79 -85 -79h-274
q4 -40 39 -67t80 -27q53 0 95 29zM403 629l-68 -45q-34 -22 -56 -22q-23 0 -38 15t-15 37q0 32 41 61l65 47q34 25 58 25t40 -16t16 -39q0 -35 -43 -63z" />
    <glyph glyph-name="ecircumflex" unicode="&#xea;" horiz-adv-x="596" 
d="M196 306h211q0 41 -25.5 68t-72.5 27q-46 0 -78 -28t-35 -67zM410 139q31 21 52 21q27 0 45 -17.5t18 -44.5q0 -33 -29 -56q-71 -58 -183 -58q-117 0 -195.5 70.5t-78.5 192.5q0 120 76.5 193.5t192.5 73.5q93 0 157.5 -51.5t84.5 -141.5q5 -23 5 -38q0 -79 -85 -79h-274
q4 -40 39 -67t80 -27q53 0 95 29zM317 643l-80 -63q-22 -18 -42 -18t-33.5 14t-13.5 33q0 25 25 45l81 66q35 27 61 27q28 0 61 -27l82 -66q24 -19 24 -45q0 -19 -13.5 -33t-34.5 -14q-20 0 -42 18z" />
    <glyph glyph-name="edieresis" unicode="&#xeb;" horiz-adv-x="596" 
d="M196 306h211q0 41 -25.5 68t-72.5 27q-46 0 -78 -28t-35 -67zM410 139q31 21 52 21q27 0 45 -17.5t18 -44.5q0 -33 -29 -56q-71 -58 -183 -58q-117 0 -195.5 70.5t-78.5 192.5q0 120 76.5 193.5t192.5 73.5q93 0 157.5 -51.5t84.5 -141.5q5 -23 5 -38q0 -79 -85 -79h-274
q4 -40 39 -67t80 -27q53 0 95 29zM505 658q0 -34 -24.5 -58t-58.5 -24q-35 0 -59 24t-24 58q0 33 24 57t59 24q34 0 58.5 -23.5t24.5 -57.5zM288 658q0 -34 -24.5 -58t-59.5 -24q-34 0 -58.5 24t-24.5 58q0 33 24.5 57t58.5 24q35 0 59.5 -23.5t24.5 -57.5z" />
    <glyph glyph-name="igrave" unicode="&#xec;" horiz-adv-x="296" 
d="M66 82v334q0 52 26 72t56 20t56 -20t26 -72v-334q0 -52 -26 -72t-56 -20t-56 20t-26 72zM92 584l-68 45q-43 28 -43 63q0 23 16 39t40 16t58 -25l65 -47q41 -29 41 -61q0 -22 -15 -37t-38 -15q-22 0 -56 22z" />
    <glyph glyph-name="iacute" unicode="&#xed;" horiz-adv-x="296" 
d="M66 82v334q0 52 26 72t56 20t56 -20t26 -72v-334q0 -52 -26 -72t-56 -20t-56 20t-26 72zM271 629l-68 -45q-34 -22 -56 -22q-23 0 -38 15t-15 37q0 32 41 61l65 47q34 25 58 25t40 -16t16 -39q0 -35 -43 -63z" />
    <glyph glyph-name="icircumflex" unicode="&#xee;" horiz-adv-x="296" 
d="M66 82v334q0 52 26 72t56 20t56 -20t26 -72v-334q0 -52 -26 -72t-56 -20t-56 20t-26 72zM154 643l-80 -63q-22 -18 -42 -18t-33.5 14t-13.5 33q0 25 25 45l81 66q35 27 61 27q28 0 61 -27l82 -66q24 -19 24 -45q0 -19 -13.5 -33t-34.5 -14q-19 0 -42 18z" />
    <glyph glyph-name="idieresis" unicode="&#xef;" horiz-adv-x="296" 
d="M66 82v334q0 52 26 72t56 20t56 -20t26 -72v-334q0 -52 -26 -72t-56 -20t-56 20t-26 72zM342 658q0 -34 -24.5 -58t-58.5 -24q-35 0 -59 24t-24 58q0 33 24 57t59 24q34 0 58.5 -23.5t24.5 -57.5zM125 658q0 -34 -24.5 -58t-59.5 -24q-34 0 -58.5 24t-24.5 58
q0 33 24.5 57t58.5 24q35 0 59.5 -23.5t24.5 -57.5z" />
    <glyph glyph-name="eth" unicode="&#xf0;" horiz-adv-x="632" 
d="M213 667q-38 33 -38 63q0 27 19.5 47t48.5 20q23 0 57 -28l50 -43l91 39q17 7 29 7q20 0 33 -13.5t13 -32.5q0 -31 -35 -46l-56 -24q168 -177 168 -374q0 -137 -76 -217.5t-202 -80.5q-117 0 -196.5 73.5t-79.5 192.5q0 117 76 188.5t188 71.5q49 0 82 -25l2 1
q-36 57 -97 113l-99 -42q-15 -6 -25 -6q-19 0 -32.5 13t-13.5 33q0 31 34 45zM435 250q0 51 -32.5 89t-87.5 38t-86.5 -38t-31.5 -89q0 -52 32 -90t87 -38t87 38t32 90z" />
    <glyph glyph-name="ntilde" unicode="&#xf1;" horiz-adv-x="616" 
d="M64 82v338q0 50 25 69t54 19q28 0 53 -17.5t27 -61.5h2q18 35 58.5 59t90.5 24q93 0 137.5 -59.5t44.5 -144.5v-226q0 -52 -26.5 -72t-56.5 -20t-56 20t-26 72v190q0 105 -74 105q-42 0 -65 -31t-23 -76v-188q0 -52 -26.5 -72t-56.5 -20t-56 20t-26 72zM409 686
q21 29 44 29q18 0 29.5 -11t11.5 -29q0 -11 -5 -24q-31 -76 -110 -76q-39 0 -76 21q-36 20 -55 20t-33 -18q-21 -29 -44 -29q-18 0 -29.5 11t-11.5 29q0 11 5 24q31 76 110 76q39 0 76 -21q36 -20 55 -20t33 18z" />
    <glyph glyph-name="ograve" unicode="&#xf2;" horiz-adv-x="632" 
d="M592 251q0 -119 -80 -193t-197 -74q-116 0 -196 74t-80 193t80 191t196 72q117 0 197 -72t80 -191zM434 251q0 51 -32 89t-87 38t-86 -37.5t-31 -89.5t31.5 -90.5t86.5 -38.5t86.5 38.5t31.5 90.5zM271 584l-68 45q-43 28 -43 63q0 23 16 39t40 16t58 -25l65 -47
q41 -29 41 -61q0 -22 -15 -37t-38 -15q-22 0 -56 22z" />
    <glyph glyph-name="oacute" unicode="&#xf3;" horiz-adv-x="632" 
d="M592 251q0 -119 -80 -193t-197 -74q-116 0 -196 74t-80 193t80 191t196 72q117 0 197 -72t80 -191zM434 251q0 51 -32 89t-87 38t-86 -37.5t-31 -89.5t31.5 -90.5t86.5 -38.5t86.5 38.5t31.5 90.5zM424 629l-68 -45q-34 -22 -56 -22q-23 0 -38 15t-15 37q0 32 41 61
l65 47q34 25 58 25t40 -16t16 -39q0 -35 -43 -63z" />
    <glyph glyph-name="ocircumflex" unicode="&#xf4;" horiz-adv-x="632" 
d="M592 251q0 -119 -80 -193t-197 -74q-116 0 -196 74t-80 193t80 191t196 72q117 0 197 -72t80 -191zM434 251q0 51 -32 89t-87 38t-86 -37.5t-31 -89.5t31.5 -90.5t86.5 -38.5t86.5 38.5t31.5 90.5zM318 643l-80 -63q-23 -18 -42 -18q-20 0 -33.5 14t-13.5 33q0 25 25 45
l81 66q35 27 61 27q28 0 61 -27l82 -66q24 -19 24 -45q0 -19 -13.5 -33t-34.5 -14q-19 0 -42 18z" />
    <glyph glyph-name="otilde" unicode="&#xf5;" horiz-adv-x="632" 
d="M592 251q0 -119 -80 -193t-197 -74q-116 0 -196 74t-80 193t80 191t196 72q117 0 197 -72t80 -191zM434 251q0 51 -32 89t-87 38t-86 -37.5t-31 -89.5t31.5 -90.5t86.5 -38.5t86.5 38.5t31.5 90.5zM413 686q21 29 44 29q18 0 29.5 -11t11.5 -29q0 -11 -5 -24
q-31 -76 -110 -76q-39 0 -76 21q-36 20 -55 20t-33 -18q-21 -29 -44 -29q-18 0 -29.5 11t-11.5 29q0 11 5 24q31 76 110 76q39 0 76 -21q36 -20 55 -20t33 18z" />
    <glyph glyph-name="odieresis" unicode="&#xf6;" horiz-adv-x="632" 
d="M592 251q0 -119 -80 -193t-197 -74q-116 0 -196 74t-80 193t80 191t196 72q117 0 197 -72t80 -191zM434 251q0 51 -32 89t-87 38t-86 -37.5t-31 -89.5t31.5 -90.5t86.5 -38.5t86.5 38.5t31.5 90.5zM507 658q0 -34 -24.5 -58t-58.5 -24q-35 0 -59 24t-24 58q0 33 24 57
t59 24q34 0 58.5 -23.5t24.5 -57.5zM290 658q0 -34 -24.5 -58t-59.5 -24q-34 0 -58.5 24t-24.5 58q0 33 24.5 57t58.5 24q35 0 59.5 -23.5t24.5 -57.5z" />
    <glyph glyph-name="divide" unicode="&#xf7;" horiz-adv-x="666" 
d="M246 489q0 34 26 59t61 25t60.5 -25t25.5 -59q0 -35 -25.5 -60t-60.5 -25t-61 25t-26 60zM246 117q0 34 26 59t61 25t60.5 -25t25.5 -59q0 -35 -25.5 -60t-60.5 -25t-61 25.5t-26 59.5zM525 240h-385q-39 0 -55 20.5t-16 42.5q0 23 15.5 43.5t55.5 20.5h385
q40 0 55.5 -20.5t15.5 -43.5q0 -13 -4.5 -25.5t-22 -25t-44.5 -12.5z" />
    <glyph glyph-name="oslash" unicode="&#xf8;" horiz-adv-x="632" 
d="M372 365q-24 19 -59 19q-56 0 -88.5 -38.5t-32.5 -91.5q0 -37 14 -57zM436 248q0 36 -13 58l-167 -168q22 -20 61 -20q56 0 87.5 38.5t31.5 91.5zM53 44l43 42q-57 65 -57 164q0 118 79.5 191.5t196.5 73.5q94 0 160 -49l46 46q14 14 32 14q17 0 29 -11.5t12 -29.5
t-16 -34l-41 -40q55 -64 55 -161q0 -118 -80 -192t-197 -74q-93 0 -157 47l-49 -48q-14 -14 -32 -14q-17 0 -28.5 12t-11.5 29q0 18 16 34z" />
    <glyph glyph-name="ugrave" unicode="&#xf9;" horiz-adv-x="614" 
d="M550 416v-338q0 -50 -25 -69t-53 -19t-53 17.5t-27 61.5h-2q-18 -35 -58.5 -59t-90.5 -24q-93 0 -137.5 59.5t-44.5 144.5v226q0 52 26.5 72t56.5 20t56 -20t26 -72v-188q0 -106 74 -106q41 0 64.5 31t23.5 76v187q0 52 26 72t56 20t56 -20t26 -72zM282 584l-68 45
q-43 28 -43 63q0 23 16 39t40 16t58 -25l65 -47q41 -29 41 -61q0 -22 -15 -37t-38 -15q-22 0 -56 22z" />
    <glyph glyph-name="uacute" unicode="&#xfa;" horiz-adv-x="614" 
d="M550 416v-338q0 -50 -25 -69t-53 -19t-53 17.5t-27 61.5h-2q-18 -35 -58.5 -59t-90.5 -24q-93 0 -137.5 59.5t-44.5 144.5v226q0 52 26.5 72t56.5 20t56 -20t26 -72v-188q0 -106 74 -106q41 0 64.5 31t23.5 76v187q0 52 26 72t56 20t56 -20t26 -72zM413 629l-68 -45
q-34 -22 -56 -22q-23 0 -38 15t-15 37q0 32 41 61l65 47q34 25 58 25t40 -16t16 -39q0 -35 -43 -63z" />
    <glyph glyph-name="ucircumflex" unicode="&#xfb;" horiz-adv-x="614" 
d="M550 416v-338q0 -50 -25 -69t-53 -19t-53 17.5t-27 61.5h-2q-18 -35 -58.5 -59t-90.5 -24q-93 0 -137.5 59.5t-44.5 144.5v226q0 52 26.5 72t56.5 20t56 -20t26 -72v-188q0 -106 74 -106q41 0 64.5 31t23.5 76v187q0 52 26 72t56 20t56 -20t26 -72zM311 643l-80 -63
q-23 -18 -42 -18q-20 0 -33.5 14t-13.5 33q0 25 25 45l81 66q34 27 61 27q28 0 61 -27l82 -66q24 -19 24 -45q0 -19 -13.5 -33t-34.5 -14q-20 0 -42 18z" />
    <glyph glyph-name="udieresis" unicode="&#xfc;" horiz-adv-x="614" 
d="M550 416v-338q0 -50 -25 -69t-53 -19t-53 17.5t-27 61.5h-2q-18 -35 -58.5 -59t-90.5 -24q-93 0 -137.5 59.5t-44.5 144.5v226q0 52 26.5 72t56.5 20t56 -20t26 -72v-188q0 -106 74 -106q41 0 64.5 31t23.5 76v187q0 52 26 72t56 20t56 -20t26 -72zM499 658
q0 -34 -24.5 -58t-58.5 -24q-35 0 -59 24t-24 58q0 33 24 57t59 24q34 0 58.5 -23.5t24.5 -57.5zM282 658q0 -34 -24.5 -58t-59.5 -24q-34 0 -58.5 24t-24.5 58q0 33 24.5 57t58.5 24q35 0 59.5 -23.5t24.5 -57.5z" />
    <glyph glyph-name="yacute" unicode="&#xfd;" horiz-adv-x="567" 
d="M187 442l104 -262h3l91 257q24 71 80 71q35 0 58 -21.5t23 -54.5q0 -21 -9 -44l-194 -465q-35 -85 -82.5 -124t-136.5 -39h-9q-46 0 -64 22t-18 48q0 25 17 47.5t61 22.5q53 0 77 62l18 46l-172 374q-11 25 -11 46q0 34 23 57t59 23q57 0 82 -66zM404 629l-68 -45
q-34 -22 -56 -22q-23 0 -38 15t-15 37q0 32 41 61l65 47q34 25 58 25t40 -16t16 -39q0 -35 -43 -63z" />
    <glyph glyph-name="thorn" unicode="&#xfe;" horiz-adv-x="659" 
d="M66 -158v832q0 52 26 72t56 20q29 0 55 -20t26 -72v-229h3q57 67 152 67q105 0 170 -76.5t65 -184.5q0 -110 -64 -187.5t-173 -77.5q-46 0 -87.5 19t-63.5 51h-2v-214q0 -52 -26 -72t-55 -20q-30 0 -56 20t-26 72zM461 251q0 52 -31.5 89.5t-86.5 37.5q-53 0 -86.5 -39
t-33.5 -89q0 -51 33.5 -89.5t86.5 -38.5q55 0 86.5 38t31.5 91z" />
    <glyph glyph-name="ydieresis" unicode="&#xff;" horiz-adv-x="567" 
d="M187 442l104 -262h3l91 257q24 71 80 71q35 0 58 -21.5t23 -54.5q0 -21 -9 -44l-194 -465q-35 -85 -82.5 -124t-136.5 -39h-9q-46 0 -64 22t-18 48q0 25 17 47.5t61 22.5q53 0 77 62l18 46l-172 374q-11 25 -11 46q0 34 23 57t59 23q57 0 82 -66zM485 658
q0 -34 -24.5 -58t-58.5 -24q-35 0 -59 24t-24 58q0 33 24 57t59 24q34 0 58.5 -23.5t24.5 -57.5zM268 658q0 -34 -24.5 -58t-59.5 -24q-34 0 -58.5 24t-24.5 58q0 33 24.5 57t58.5 24q35 0 59.5 -23.5t24.5 -57.5z" />
    <glyph glyph-name="Amacron" unicode="&#x100;" horiz-adv-x="729" 
d="M549 55l-34 84h-305l-35 -85q-27 -64 -84 -64q-35 0 -59 22t-24 60q0 22 11 48l234 514q38 84 113 84t112 -84l232 -512q10 -24 10 -46q0 -39 -25 -62.5t-60 -23.5q-60 0 -86 65zM363 511l-97 -235h193zM242 884h244q30 0 42 -15.5t12 -32.5q0 -10 -3.5 -20t-16.5 -19
t-34 -9h-244q-30 0 -42 15.5t-12 32.5q0 10 3.5 20t16.5 19t34 9z" />
    <glyph glyph-name="amacron" unicode="&#x101;" horiz-adv-x="566" 
d="M358 200v17h-21q-153 0 -153 -68q0 -26 21 -38.5t50 -12.5q49 0 76 27.5t27 74.5zM171 360q-20 -10 -38 -10q-24 0 -41 17t-17 42q0 37 39 61q72 44 165 44q123 0 176 -62.5t53 -200.5v-175q0 -48 -24.5 -67t-51.5 -19q-23 0 -45.5 14t-28.5 49h-3q-18 -30 -57 -47.5
t-84 -17.5q-44 0 -82.5 13.5t-68.5 50.5t-30 92q0 168 320 168v8q0 33 -23.5 52.5t-61.5 19.5q-33 0 -97 -32zM164 692h244q30 0 42 -15.5t12 -32.5q0 -10 -3.5 -20t-16.5 -19t-34 -9h-244q-30 0 -42 15.5t-12 32.5q0 10 3.5 20t16.5 19t34 9z" />
    <glyph glyph-name="Abreve" unicode="&#x102;" horiz-adv-x="729" 
d="M549 55l-34 84h-305l-35 -85q-27 -64 -84 -64q-35 0 -59 22t-24 60q0 22 11 48l234 514q38 84 113 84t112 -84l232 -512q10 -24 10 -46q0 -39 -25 -62.5t-60 -23.5q-60 0 -86 65zM363 511l-97 -235h193zM363 852q54 0 75 33t47 33q19 0 31.5 -12.5t12.5 -30.5
q0 -12 -4 -22q-35 -89 -162 -89t-162 89q-4 10 -4 22q0 18 12.5 30.5t31.5 12.5q26 0 47 -33t75 -33z" />
    <glyph glyph-name="abreve" unicode="&#x103;" horiz-adv-x="566" 
d="M358 200v17h-21q-153 0 -153 -68q0 -26 21 -38.5t50 -12.5q49 0 76 27.5t27 74.5zM171 360q-20 -10 -38 -10q-24 0 -41 17t-17 42q0 37 39 61q72 44 165 44q123 0 176 -62.5t53 -200.5v-175q0 -48 -24.5 -67t-51.5 -19q-23 0 -45.5 14t-28.5 49h-3q-18 -30 -57 -47.5
t-84 -17.5q-44 0 -82.5 13.5t-68.5 50.5t-30 92q0 168 320 168v8q0 33 -23.5 52.5t-61.5 19.5q-33 0 -97 -32zM286 660q54 0 75 33t47 33q19 0 31.5 -12.5t12.5 -30.5q0 -12 -4 -22q-35 -89 -162 -89t-162 89q-4 10 -4 22q0 18 12.5 30.5t31.5 12.5q26 0 47 -33t75 -33z" />
    <glyph glyph-name="Aogonek" unicode="&#x104;" horiz-adv-x="729" 
d="M549 55l-34 84h-305l-35 -85q-27 -64 -84 -64q-35 0 -59 22t-24 60q0 22 11 48l234 514q38 84 113 84t112 -84l232 -512q10 -24 10 -46q0 -57 -47 -78q-63 -40 -86 -66t-23 -50q0 -16 10.5 -26t26.5 -10q13 0 31 7q9 4 19 4q15 0 24.5 -10t9.5 -25q0 -22 -24 -35
q-41 -23 -88 -23q-46 0 -79.5 23t-33.5 68q0 79 124 151q-23 18 -35 49zM363 511l-97 -235h193z" />
    <glyph glyph-name="aogonek" unicode="&#x105;" horiz-adv-x="566" 
d="M171 360q-20 -10 -38 -10q-24 0 -41 17t-17 42q0 37 39 61q72 44 165 44q123 0 176 -62.5t53 -200.5v-175q0 -58 -43 -79q-109 -58 -109 -115q0 -16 10.5 -26t26.5 -10q14 0 31 7q9 4 19 4q15 0 24.5 -10t9.5 -25q0 -22 -24 -35q-41 -23 -88 -23q-46 0 -79.5 23t-33.5 68
q0 79 129 153q-19 15 -23 45h-3q-18 -30 -57 -47.5t-84 -17.5q-44 0 -82.5 13.5t-68.5 50.5t-30 92q0 168 320 168v8q0 33 -23.5 52.5t-61.5 19.5q-33 0 -97 -32zM358 200v17h-21q-153 0 -153 -68q0 -26 21 -38.5t50 -12.5q49 0 76 27.5t27 74.5z" />
    <glyph glyph-name="Cacute" unicode="&#x106;" horiz-adv-x="696" 
d="M522 548q-39 24 -92 24q-89 0 -146.5 -61.5t-57.5 -155.5q0 -96 56 -156.5t145 -60.5q57 0 102 31q33 23 60 23q32 0 54 -21.5t22 -55.5q0 -40 -39 -71q-32 -26 -87.5 -44.5t-117.5 -18.5q-165 0 -273 104.5t-108 269.5q0 167 109.5 269.5t274.5 102.5q55 0 109.5 -14.5
t83.5 -35.5q41 -30 41 -73q0 -33 -22.5 -55t-55.5 -22q-25 0 -58 21zM518 821l-68 -45q-34 -22 -56 -22q-23 0 -38 15t-15 37q0 32 41 61l65 47q34 25 58 25t40 -16t16 -39q0 -35 -43 -63z" />
    <glyph glyph-name="cacute" unicode="&#x107;" horiz-adv-x="503" 
d="M318 -16q-121 0 -200 72t-79 193q0 119 79.5 192t198.5 73q64 0 110 -22q48 -23 48 -66q0 -30 -17.5 -50.5t-49.5 -20.5q-20 0 -44 12q-20 10 -44 10q-51 0 -83 -37.5t-32 -90.5t32 -90t85 -37q26 0 44 9q24 12 44 12q32 0 49.5 -20.5t17.5 -50.5q0 -42 -48 -66
q-44 -22 -111 -22zM422 629l-68 -45q-34 -22 -56 -22q-23 0 -38 15t-15 37q0 32 41 61l65 47q34 25 58 25t40 -16t16 -39q0 -35 -43 -63z" />
    <glyph glyph-name="Ccircumflex" unicode="&#x108;" horiz-adv-x="696" 
d="M522 548q-39 24 -92 24q-89 0 -146.5 -61.5t-57.5 -155.5q0 -96 56 -156.5t145 -60.5q57 0 102 31q33 23 60 23q32 0 54 -21.5t22 -55.5q0 -40 -39 -71q-32 -26 -87.5 -44.5t-117.5 -18.5q-165 0 -273 104.5t-108 269.5q0 167 109.5 269.5t274.5 102.5q55 0 109.5 -14.5
t83.5 -35.5q41 -30 41 -73q0 -33 -22.5 -55t-55.5 -22q-25 0 -58 21zM426 835l-80 -63q-22 -18 -42 -18t-33.5 14t-13.5 33q0 25 25 45l81 66q35 27 61 27q28 0 61 -27l82 -66q24 -19 24 -45q0 -19 -13.5 -33t-34.5 -14q-19 0 -42 18z" />
    <glyph glyph-name="ccircumflex" unicode="&#x109;" horiz-adv-x="503" 
d="M318 -16q-121 0 -200 72t-79 193q0 119 79.5 192t198.5 73q64 0 110 -22q48 -23 48 -66q0 -30 -17.5 -50.5t-49.5 -20.5q-20 0 -44 12q-20 10 -44 10q-51 0 -83 -37.5t-32 -90.5t32 -90t85 -37q26 0 44 9q24 12 44 12q32 0 49.5 -20.5t17.5 -50.5q0 -42 -48 -66
q-44 -22 -111 -22zM313 643l-80 -63q-23 -18 -42 -18q-20 0 -33.5 14t-13.5 33q0 25 25 45l81 66q34 27 61 27q28 0 61 -27l82 -66q24 -19 24 -45q0 -19 -13.5 -33t-34.5 -14q-20 0 -42 18z" />
    <glyph glyph-name="Cdotaccent" unicode="&#x10a;" horiz-adv-x="696" 
d="M522 548q-39 24 -92 24q-89 0 -146.5 -61.5t-57.5 -155.5q0 -96 56 -156.5t145 -60.5q57 0 102 31q33 23 60 23q32 0 54 -21.5t22 -55.5q0 -40 -39 -71q-32 -26 -87.5 -44.5t-117.5 -18.5q-165 0 -273 104.5t-108 269.5q0 167 109.5 269.5t274.5 102.5q55 0 109.5 -14.5
t83.5 -35.5q41 -30 41 -73q0 -33 -22.5 -55t-55.5 -22q-25 0 -58 21zM510 849q0 -36 -26 -60.5t-64 -24.5q-37 0 -63 25t-26 60t26 60.5t63 25.5q38 0 64 -25t26 -61z" />
    <glyph glyph-name="cdotaccent" unicode="&#x10b;" horiz-adv-x="503" 
d="M318 -16q-121 0 -200 72t-79 193q0 119 79.5 192t198.5 73q64 0 110 -22q48 -23 48 -66q0 -30 -17.5 -50.5t-49.5 -20.5q-20 0 -44 12q-20 10 -44 10q-51 0 -83 -37.5t-32 -90.5t32 -90t85 -37q26 0 44 9q24 12 44 12q32 0 49.5 -20.5t17.5 -50.5q0 -42 -48 -66
q-44 -22 -111 -22zM401 657q0 -36 -26 -60.5t-64 -24.5q-37 0 -63 25t-26 60t26 60.5t63 25.5q38 0 64 -25t26 -61z" />
    <glyph glyph-name="Ccaron" unicode="&#x10c;" horiz-adv-x="696" 
d="M522 548q-39 24 -92 24q-89 0 -146.5 -61.5t-57.5 -155.5q0 -96 56 -156.5t145 -60.5q57 0 102 31q33 23 60 23q32 0 54 -21.5t22 -55.5q0 -40 -39 -71q-32 -26 -87.5 -44.5t-117.5 -18.5q-165 0 -273 104.5t-108 269.5q0 167 109.5 269.5t274.5 102.5q55 0 109.5 -14.5
t83.5 -35.5q41 -30 41 -73q0 -33 -22.5 -55t-55.5 -22q-25 0 -58 21zM421 858l80 63q22 18 42 18t33.5 -14t13.5 -33q0 -25 -25 -45l-81 -66q-31 -27 -61 -27q-28 0 -61 27l-82 66q-24 19 -24 45q0 19 13.5 33t34.5 14q20 0 42 -18z" />
    <glyph glyph-name="ccaron" unicode="&#x10d;" horiz-adv-x="503" 
d="M318 -16q-121 0 -200 72t-79 193q0 119 79.5 192t198.5 73q64 0 110 -22q48 -23 48 -66q0 -30 -17.5 -50.5t-49.5 -20.5q-20 0 -44 12q-20 10 -44 10q-51 0 -83 -37.5t-32 -90.5t32 -90t85 -37q26 0 44 9q24 12 44 12q32 0 49.5 -20.5t17.5 -50.5q0 -42 -48 -66
q-44 -22 -111 -22zM307 666l80 63q23 18 42 18q20 0 33.5 -14t13.5 -33q0 -25 -25 -45l-81 -66q-31 -27 -61 -27q-28 0 -61 27l-82 66q-24 19 -24 45q0 19 13.5 33t34.5 14q20 0 42 -18z" />
    <glyph glyph-name="Dcaron" unicode="&#x10e;" horiz-adv-x="774" 
d="M556 356q0 57 -19 98.5t-52.5 64.5t-73 33t-86.5 10h-85v-414h81q103 0 169 49t66 159zM337 0h-166q-98 0 -98 98v512q0 98 98 98h158q63 0 119.5 -10.5t109.5 -36.5t91.5 -65t61.5 -100.5t23 -139.5q0 -90 -34 -160t-91.5 -112t-126.5 -63t-145 -21zM356 858l80 63
q22 18 42 18t33.5 -14t13.5 -33q0 -25 -25 -45l-81 -66q-31 -27 -61 -27q-28 0 -61 27l-82 66q-24 19 -24 45q0 19 13.5 33t34.5 14q19 0 42 -18z" />
    <glyph glyph-name="dcaron" unicode="&#x10f;" horiz-adv-x="658" 
d="M592 674v-598q0 -49 -24 -67.5t-52 -18.5q-26 0 -49.5 17t-25.5 58h-2q-24 -37 -68.5 -58t-94.5 -21q-108 0 -172.5 77.5t-64.5 187.5q0 108 65 184.5t170 76.5q95 0 152 -67h2v229q0 52 26 72t56 20t56 -20t26 -72zM435 250q0 50 -33.5 89t-86.5 39q-55 0 -86.5 -37.5
t-31.5 -89.5q0 -53 31.5 -91t86.5 -38q53 0 86.5 38.5t33.5 89.5zM782 612l-30 -66q-25 -58 -63 -58q-23 0 -39.5 14t-16.5 38q0 14 13 50l24 64q24 64 67 64q25 0 42 -16t17 -39q0 -18 -14 -51z" />
    <glyph glyph-name="Dcroat" unicode="&#x110;" horiz-adv-x="774" 
d="M337 0h-166q-98 0 -98 98v211h-10q-34 0 -47 17t-13 37q0 11 3.5 21.5t18 21t38.5 10.5h10v194q0 98 98 98h158q63 0 119.5 -10.5t109.5 -36.5t91.5 -65t61.5 -100.5t23 -139.5q0 -90 -34 -160t-91.5 -112t-126.5 -63t-145 -21zM556 356q0 57 -19 98.5t-52.5 64.5t-73 33
t-86.5 10h-85v-146h132q34 0 47 -17t13 -36q0 -12 -3.5 -22.5t-18 -21t-38.5 -10.5h-132v-161h81q103 0 169 49t66 159z" />
    <glyph glyph-name="dcroat" unicode="&#x111;" horiz-adv-x="658" 
d="M592 674v-15h6q20 0 32 -8.5t15 -17.5t3 -18q0 -10 -3 -19t-15 -17.5t-32 -8.5h-6v-494q0 -49 -24 -67.5t-52 -18.5q-26 0 -49.5 17t-25.5 58h-2q-24 -37 -68.5 -58t-94.5 -21q-108 0 -172.5 77.5t-64.5 187.5q0 108 65 184.5t170 76.5q95 0 152 -67h2v125h-109
q-20 0 -32 8.5t-15 17.5t-3 19q0 9 3 18t15 17.5t32 8.5h109v15q0 52 26 72t56 20t56 -20t26 -72zM435 250q0 50 -33.5 89t-86.5 39q-55 0 -86.5 -37.5t-31.5 -89.5q0 -53 31.5 -91t86.5 -38q53 0 86.5 38.5t33.5 89.5z" />
    <glyph glyph-name="Emacron" unicode="&#x112;" horiz-adv-x="607" 
d="M238 430h225q46 0 62.5 -21.5t16.5 -46.5q0 -15 -4.5 -28.5t-23.5 -27t-51 -13.5h-225v-147h258q46 0 63.5 -23t17.5 -50q0 -16 -5 -30.5t-24.5 -28.5t-51.5 -14h-325q-98 0 -98 98v512q0 98 98 98h307q46 0 63.5 -23t17.5 -49q0 -16 -5 -30.5t-24.5 -28.5t-51.5 -14
h-240v-133zM194 884h244q30 0 42 -15.5t12 -32.5q0 -10 -3.5 -20t-16.5 -19t-34 -9h-244q-30 0 -42 15.5t-12 32.5q0 10 3.5 20t16.5 19t34 9z" />
    <glyph glyph-name="emacron" unicode="&#x113;" horiz-adv-x="596" 
d="M196 306h211q0 41 -25.5 68t-72.5 27q-46 0 -78 -28t-35 -67zM410 139q31 21 52 21q27 0 45 -17.5t18 -44.5q0 -33 -29 -56q-71 -58 -183 -58q-117 0 -195.5 70.5t-78.5 192.5q0 120 76.5 193.5t192.5 73.5q93 0 157.5 -51.5t84.5 -141.5q5 -23 5 -38q0 -79 -85 -79h-274
q4 -40 39 -67t80 -27q53 0 95 29zM190 692h244q30 0 42 -15.5t12 -32.5q0 -10 -3.5 -20t-16.5 -19t-34 -9h-244q-30 0 -42 15.5t-12 32.5q0 10 3.5 20t16.5 19t34 9z" />
    <glyph glyph-name="Ebreve" unicode="&#x114;" horiz-adv-x="607" 
d="M238 430h225q46 0 62.5 -21.5t16.5 -46.5q0 -15 -4.5 -28.5t-23.5 -27t-51 -13.5h-225v-147h258q46 0 63.5 -23t17.5 -50q0 -16 -5 -30.5t-24.5 -28.5t-51.5 -14h-325q-98 0 -98 98v512q0 98 98 98h307q46 0 63.5 -23t17.5 -49q0 -16 -5 -30.5t-24.5 -28.5t-51.5 -14
h-240v-133zM316 852q54 0 75 33t47 33q19 0 31.5 -12.5t12.5 -30.5q0 -12 -4 -22q-35 -89 -162 -89t-162 89q-4 10 -4 22q0 18 12.5 30.5t31.5 12.5q26 0 47 -33t75 -33z" />
    <glyph glyph-name="ebreve" unicode="&#x115;" horiz-adv-x="596" 
d="M196 306h211q0 41 -25.5 68t-72.5 27q-46 0 -78 -28t-35 -67zM410 139q31 21 52 21q27 0 45 -17.5t18 -44.5q0 -33 -29 -56q-71 -58 -183 -58q-117 0 -195.5 70.5t-78.5 192.5q0 120 76.5 193.5t192.5 73.5q93 0 157.5 -51.5t84.5 -141.5q5 -23 5 -38q0 -79 -85 -79h-274
q4 -40 39 -67t80 -27q53 0 95 29zM312 660q54 0 75 33t47 33q19 0 31.5 -12.5t12.5 -30.5q0 -12 -4 -22q-35 -89 -162 -89t-162 89q-4 10 -4 22q0 18 12.5 30.5t31.5 12.5q26 0 47 -33t75 -33z" />
    <glyph glyph-name="Edotaccent" unicode="&#x116;" horiz-adv-x="607" 
d="M238 430h225q46 0 62.5 -21.5t16.5 -46.5q0 -15 -4.5 -28.5t-23.5 -27t-51 -13.5h-225v-147h258q46 0 63.5 -23t17.5 -50q0 -16 -5 -30.5t-24.5 -28.5t-51.5 -14h-325q-98 0 -98 98v512q0 98 98 98h307q46 0 63.5 -23t17.5 -49q0 -16 -5 -30.5t-24.5 -28.5t-51.5 -14
h-240v-133zM406 849q0 -36 -26 -60.5t-64 -24.5q-37 0 -63 25t-26 60t26 60.5t63 25.5q38 0 64 -25t26 -61z" />
    <glyph glyph-name="edotaccent" unicode="&#x117;" horiz-adv-x="596" 
d="M196 306h211q0 41 -25.5 68t-72.5 27q-46 0 -78 -28t-35 -67zM410 139q31 21 52 21q27 0 45 -17.5t18 -44.5q0 -33 -29 -56q-71 -58 -183 -58q-117 0 -195.5 70.5t-78.5 192.5q0 120 76.5 193.5t192.5 73.5q93 0 157.5 -51.5t84.5 -141.5q5 -23 5 -38q0 -79 -85 -79h-274
q4 -40 39 -67t80 -27q53 0 95 29zM401 657q0 -36 -26 -60.5t-64 -24.5q-37 0 -63 25t-26 60t26 60.5t63 25.5q38 0 64 -25t26 -61z" />
    <glyph glyph-name="Eogonek" unicode="&#x118;" horiz-adv-x="607" 
d="M238 430h225q46 0 62.5 -21.5t16.5 -46.5q0 -15 -4.5 -28.5t-23.5 -27t-51 -13.5h-225v-147h258q46 0 63.5 -23t17.5 -50q0 -39 -29 -60q-88 -78 -88 -131q0 -16 10.5 -26t26.5 -10q13 0 31 7q9 4 19 4q15 0 24.5 -10t9.5 -25q0 -22 -24 -35q-41 -23 -88 -23
q-46 0 -79.5 23t-33.5 68q0 71 87 145h-272q-98 0 -98 98v512q0 98 98 98h307q46 0 63.5 -23t17.5 -49q0 -16 -5 -30.5t-24.5 -28.5t-51.5 -14h-240v-133z" />
    <glyph glyph-name="eogonek" unicode="&#x119;" horiz-adv-x="596" 
d="M378 -147q9 4 19 4q15 0 24.5 -10t9.5 -25q0 -22 -24 -35q-41 -23 -88 -23q-46 0 -79.5 23t-33.5 68q0 61 82 130q-109 8 -179 77.5t-70 184.5q0 120 76.5 193.5t192.5 73.5q93 0 157.5 -51.5t84.5 -141.5q5 -23 5 -38q0 -79 -85 -79h-274q4 -40 39 -67t80 -27
q53 0 95 29q31 21 52 21q27 0 45 -17.5t18 -44.5q0 -33 -29 -56q-44 -36 -105 -49q-81 -69 -81 -111q0 -16 10.5 -26t26.5 -10q13 0 31 7zM196 306h211q0 41 -25.5 68t-72.5 27q-46 0 -78 -28t-35 -67z" />
    <glyph glyph-name="Ecaron" unicode="&#x11a;" horiz-adv-x="607" 
d="M238 430h225q46 0 62.5 -21.5t16.5 -46.5q0 -15 -4.5 -28.5t-23.5 -27t-51 -13.5h-225v-147h258q46 0 63.5 -23t17.5 -50q0 -16 -5 -30.5t-24.5 -28.5t-51.5 -14h-325q-98 0 -98 98v512q0 98 98 98h307q46 0 63.5 -23t17.5 -49q0 -16 -5 -30.5t-24.5 -28.5t-51.5 -14
h-240v-133zM316 858l80 63q22 18 42 18t33.5 -14t13.5 -33q0 -25 -25 -45l-81 -66q-31 -27 -61 -27q-28 0 -61 27l-82 66q-24 19 -24 45q0 19 13.5 33t34.5 14q19 0 42 -18z" />
    <glyph glyph-name="ecaron" unicode="&#x11b;" horiz-adv-x="596" 
d="M196 306h211q0 41 -25.5 68t-72.5 27q-46 0 -78 -28t-35 -67zM410 139q31 21 52 21q27 0 45 -17.5t18 -44.5q0 -33 -29 -56q-71 -58 -183 -58q-117 0 -195.5 70.5t-78.5 192.5q0 120 76.5 193.5t192.5 73.5q93 0 157.5 -51.5t84.5 -141.5q5 -23 5 -38q0 -79 -85 -79h-274
q4 -40 39 -67t80 -27q53 0 95 29zM311 666l80 63q23 18 42 18q20 0 33.5 -14t13.5 -33q0 -25 -25 -45l-81 -66q-31 -27 -61 -27q-28 0 -61 27l-82 66q-24 19 -24 45q0 19 13.5 33t34.5 14q20 0 42 -18z" />
    <glyph glyph-name="Gcircumflex" unicode="&#x11c;" horiz-adv-x="769" 
d="M702 324v-209q0 -81 -77 -104q-96 -29 -196 -29q-171 0 -280 103.5t-109 269.5q0 167 109.5 269.5t274.5 102.5q127 0 204 -49q45 -29 45 -72q0 -34 -21.5 -56.5t-53.5 -22.5q-24 0 -54 17q-58 32 -117 32q-88 0 -146.5 -63t-58.5 -158q0 -100 57 -161.5t159 -61.5
q63 0 107 19v129h-68q-43 0 -60 22t-17 47q0 10 3 20.5t10.5 22t24 19t39.5 7.5h131q94 0 94 -94zM430 835l-80 -63q-22 -18 -42 -18t-33.5 14t-13.5 33q0 25 25 45l81 66q34 27 61 27q28 0 61 -27l82 -66q24 -19 24 -45q0 -19 -13.5 -33t-34.5 -14q-19 0 -42 18z" />
    <glyph glyph-name="gcircumflex" unicode="&#x11d;" horiz-adv-x="658" 
d="M436 252q0 53 -33.5 89.5t-87.5 36.5t-85.5 -36t-31.5 -90q0 -52 32 -89.5t85 -37.5q55 0 88 37t33 90zM103 -191q-41 27 -41 65q0 30 18.5 50.5t49.5 20.5q24 0 55 -19q55 -33 114 -33q63 0 97.5 37.5t34.5 100.5v30h-3q-51 -66 -151 -66q-109 0 -173.5 74t-64.5 182
t64.5 184.5t172.5 76.5q107 0 159 -78h2q3 40 27 57t50 17q17 0 32.5 -5.5t30.5 -26.5t15 -56v-373q0 -142 -78 -214.5t-215 -72.5q-123 0 -196 49zM323 643l-80 -63q-23 -18 -42 -18q-20 0 -33.5 14t-13.5 33q0 25 25 45l81 66q34 27 61 27q28 0 61 -27l82 -66
q24 -19 24 -45q0 -19 -13.5 -33t-34.5 -14q-20 0 -42 18z" />
    <glyph glyph-name="Gbreve" unicode="&#x11e;" horiz-adv-x="769" 
d="M702 324v-209q0 -81 -77 -104q-96 -29 -196 -29q-171 0 -280 103.5t-109 269.5q0 167 109.5 269.5t274.5 102.5q127 0 204 -49q45 -29 45 -72q0 -34 -21.5 -56.5t-53.5 -22.5q-24 0 -54 17q-58 32 -117 32q-88 0 -146.5 -63t-58.5 -158q0 -100 57 -161.5t159 -61.5
q63 0 107 19v129h-68q-43 0 -60 22t-17 47q0 10 3 20.5t10.5 22t24 19t39.5 7.5h131q94 0 94 -94zM431 852q54 0 75 33t47 33q19 0 31.5 -12.5t12.5 -30.5q0 -12 -4 -22q-35 -89 -162 -89t-162 89q-4 10 -4 22q0 18 12.5 30.5t31.5 12.5q26 0 47 -33t75 -33z" />
    <glyph glyph-name="gbreve" unicode="&#x11f;" horiz-adv-x="658" 
d="M436 252q0 53 -33.5 89.5t-87.5 36.5t-85.5 -36t-31.5 -90q0 -52 32 -89.5t85 -37.5q55 0 88 37t33 90zM103 -191q-41 27 -41 65q0 30 18.5 50.5t49.5 20.5q24 0 55 -19q55 -33 114 -33q63 0 97.5 37.5t34.5 100.5v30h-3q-51 -66 -151 -66q-109 0 -173.5 74t-64.5 182
t64.5 184.5t172.5 76.5q107 0 159 -78h2q3 40 27 57t50 17q17 0 32.5 -5.5t30.5 -26.5t15 -56v-373q0 -142 -78 -214.5t-215 -72.5q-123 0 -196 49zM325 660q54 0 75 33t47 33q19 0 31.5 -12.5t12.5 -30.5q0 -12 -4 -22q-35 -89 -162 -89t-162 89q-4 10 -4 22
q0 18 12.5 30.5t31.5 12.5q26 0 47 -33t75 -33z" />
    <glyph glyph-name="Gdotaccent" unicode="&#x120;" horiz-adv-x="769" 
d="M702 324v-209q0 -81 -77 -104q-96 -29 -196 -29q-171 0 -280 103.5t-109 269.5q0 167 109.5 269.5t274.5 102.5q127 0 204 -49q45 -29 45 -72q0 -34 -21.5 -56.5t-53.5 -22.5q-24 0 -54 17q-58 32 -117 32q-88 0 -146.5 -63t-58.5 -158q0 -100 57 -161.5t159 -61.5
q63 0 107 19v129h-68q-43 0 -60 22t-17 47q0 10 3 20.5t10.5 22t24 19t39.5 7.5h131q94 0 94 -94zM516 849q0 -36 -26 -60.5t-64 -24.5q-37 0 -63 25t-26 60t26 60.5t63 25.5q38 0 64 -25t26 -61z" />
    <glyph glyph-name="gdotaccent" unicode="&#x121;" horiz-adv-x="658" 
d="M436 252q0 53 -33.5 89.5t-87.5 36.5t-85.5 -36t-31.5 -90q0 -52 32 -89.5t85 -37.5q55 0 88 37t33 90zM103 -191q-41 27 -41 65q0 30 18.5 50.5t49.5 20.5q24 0 55 -19q55 -33 114 -33q63 0 97.5 37.5t34.5 100.5v30h-3q-51 -66 -151 -66q-109 0 -173.5 74t-64.5 182
t64.5 184.5t172.5 76.5q107 0 159 -78h2q3 40 27 57t50 17q17 0 32.5 -5.5t30.5 -26.5t15 -56v-373q0 -142 -78 -214.5t-215 -72.5q-123 0 -196 49zM411 657q0 -36 -26 -60.5t-64 -24.5q-37 0 -63 25t-26 60t26 60.5t63 25.5q38 0 64 -25t26 -61z" />
    <glyph glyph-name="Gcommaaccent" unicode="&#x122;" horiz-adv-x="769" 
d="M702 324v-209q0 -81 -77 -104q-96 -29 -196 -29q-171 0 -280 103.5t-109 269.5q0 167 109.5 269.5t274.5 102.5q127 0 204 -49q45 -29 45 -72q0 -34 -21.5 -56.5t-53.5 -22.5q-24 0 -54 17q-58 32 -117 32q-88 0 -146.5 -63t-58.5 -158q0 -100 57 -161.5t159 -61.5
q63 0 107 19v129h-68q-43 0 -60 22t-17 47q0 10 3 20.5t10.5 22t24 19t39.5 7.5h131q94 0 94 -94zM463 -146l-36 -52q-35 -52 -68 -52q-23 0 -39 15.5t-16 37.5q0 21 23 57l36 56q31 49 66 49q24 0 40 -16t16 -39q0 -24 -22 -56z" />
    <glyph glyph-name="gcommaaccent" unicode="&#x123;" horiz-adv-x="658" 
d="M436 252q0 53 -33.5 89.5t-87.5 36.5t-85.5 -36t-31.5 -90q0 -52 32 -89.5t85 -37.5q55 0 88 37t33 90zM103 -191q-41 27 -41 65q0 30 18.5 50.5t49.5 20.5q24 0 55 -19q55 -33 114 -33q63 0 97.5 37.5t34.5 100.5v30h-3q-51 -66 -151 -66q-109 0 -173.5 74t-64.5 182
t64.5 184.5t172.5 76.5q107 0 159 -78h2q3 40 27 57t50 17q17 0 32.5 -5.5t30.5 -26.5t15 -56v-373q0 -142 -78 -214.5t-215 -72.5q-123 0 -196 49zM286 673l36 52q35 52 68 52q23 0 39 -15.5t16 -37.5q0 -21 -23 -57l-36 -56q-31 -49 -66 -49q-24 0 -40 16t-16 39
q0 24 22 56z" />
    <glyph glyph-name="Hcircumflex" unicode="&#x124;" horiz-adv-x="764" 
d="M73 86v536q0 54 27.5 75t58.5 21q30 0 57.5 -21t27.5 -75v-182h276v182q0 54 27.5 75t58.5 21q30 0 57.5 -21t27.5 -75v-536q0 -54 -27.5 -75t-57.5 -21q-31 0 -58.5 21t-27.5 75v210h-276v-210q0 -54 -27.5 -75t-57.5 -21q-31 0 -58.5 21t-27.5 75zM388 835l-80 -63
q-23 -18 -42 -18q-20 0 -33.5 14t-13.5 33q0 25 25 45l81 66q34 27 61 27q28 0 61 -27l82 -66q24 -19 24 -45q0 -19 -13.5 -33t-34.5 -14q-19 0 -42 18z" />
    <glyph glyph-name="hcircumflex" unicode="&#x125;" horiz-adv-x="617" 
d="M66 82v592q0 52 26 72t56 20t56 -20t26 -72v-239h2q18 32 56 54.5t87 22.5q94 0 138 -59.5t44 -144.5v-226q0 -52 -26.5 -72t-56.5 -20t-56 20t-26 72v188q0 105 -73 105q-41 0 -65 -30t-24 -76v-187q0 -52 -26 -72t-56 -20t-56 20t-26 72zM318 867l-80 -63
q-23 -18 -42 -18q-20 0 -33.5 14t-13.5 33q0 25 25 45l81 66q35 27 61 27q28 0 61 -27l82 -66q24 -19 24 -45q0 -19 -13.5 -33t-34.5 -14q-19 0 -42 18z" />
    <glyph glyph-name="Hbar" unicode="&#x126;" horiz-adv-x="764" 
d="M73 86v536q0 54 27.5 75t58.5 21q30 0 57.5 -21t27.5 -75v-33h276v33q0 54 27.5 75t58.5 21q30 0 57.5 -21t27.5 -75v-536q0 -54 -27.5 -75t-57.5 -21q-31 0 -58.5 21t-27.5 75v210h-276v-210q0 -54 -27.5 -75t-57.5 -21q-31 0 -58.5 21t-27.5 75zM244 440h276v60h-276
v-60z" />
    <glyph glyph-name="hbar" unicode="&#x127;" horiz-adv-x="617" 
d="M66 82v488h-6q-20 0 -32 8.5t-15 17.5t-3 19q0 9 3 18t15 17.5t32 8.5h6v15q0 52 26 72t56 20t56 -20t26 -72v-15h109q20 0 32 -8.5t15 -17.5t3 -18q0 -10 -3 -19t-15 -17.5t-32 -8.5h-109v-135h2q18 32 56 54.5t87 22.5q94 0 138 -59.5t44 -144.5v-226q0 -52 -26.5 -72
t-56.5 -20t-56 20t-26 72v188q0 105 -73 105q-41 0 -65 -30t-24 -76v-187q0 -52 -26 -72t-56 -20t-56 20t-26 72z" />
    <glyph glyph-name="Itilde" unicode="&#x128;" horiz-adv-x="318" 
d="M73 86v536q0 54 27.5 75t58.5 21t58.5 -21t27.5 -75v-536q0 -54 -27.5 -75t-58.5 -21t-58.5 21t-27.5 75zM257 878q21 29 44 29q18 0 29.5 -11t11.5 -29q0 -11 -5 -24q-31 -76 -110 -76q-39 0 -76 21q-36 20 -55 20t-33 -18q-21 -29 -44 -29q-18 0 -29.5 11t-11.5 29
q0 11 5 24q31 76 110 76q39 0 76 -21q36 -20 55 -20t33 18z" />
    <glyph glyph-name="itilde" unicode="&#x129;" horiz-adv-x="296" 
d="M66 82v334q0 52 26 72t56 20t56 -20t26 -72v-334q0 -52 -26 -72t-56 -20t-56 20t-26 72zM247 686q21 29 44 29q18 0 29.5 -11t11.5 -29q0 -11 -5 -24q-31 -76 -110 -76q-39 0 -76 21q-36 20 -55 20t-33 -18q-21 -29 -44 -29q-18 0 -29.5 11t-11.5 29q0 11 5 24
q31 76 110 76q39 0 76 -21q36 -20 55 -20t33 18z" />
    <glyph glyph-name="Imacron" unicode="&#x12a;" horiz-adv-x="318" 
d="M73 86v536q0 54 27.5 75t58.5 21t58.5 -21t27.5 -75v-536q0 -54 -27.5 -75t-58.5 -21t-58.5 21t-27.5 75zM36 884h244q30 0 42 -15.5t12 -32.5q0 -10 -3.5 -20t-16.5 -19t-34 -9h-244q-30 0 -42 15.5t-12 32.5q0 10 3.5 20t16.5 19t34 9z" />
    <glyph glyph-name="imacron" unicode="&#x12b;" horiz-adv-x="296" 
d="M66 82v334q0 52 26 72t56 20t56 -20t26 -72v-334q0 -52 -26 -72t-56 -20t-56 20t-26 72zM26 692h244q30 0 42 -15.5t12 -32.5q0 -10 -3.5 -20t-16.5 -19t-34 -9h-244q-30 0 -42 15.5t-12 32.5q0 10 3.5 20t16.5 19t34 9z" />
    <glyph glyph-name="Iogonek" unicode="&#x12e;" horiz-adv-x="318" 
d="M73 86v536q0 54 27.5 75t58.5 21t58.5 -21t27.5 -75v-536q0 -43 -23 -70q-46 -53 -62 -80.5t-16 -53.5q0 -16 10 -26t26 -10q14 0 31 7q9 4 19 4q15 0 24.5 -10t9.5 -25q0 -22 -24 -35q-41 -23 -88 -23q-46 0 -79 22.5t-33 67.5q0 61 85 143q-52 18 -52 89z" />
    <glyph glyph-name="iogonek" unicode="&#x12f;" horiz-adv-x="296" 
d="M66 82v334q0 52 26 72t56 20t56 -20t26 -72v-334q0 -44 -24 -70q-47 -52 -64 -78.5t-17 -51.5q0 -16 10 -26t26 -10q14 0 31 7q9 4 19 4q15 0 24.5 -10t9.5 -25q0 -22 -24 -35q-41 -23 -88 -23q-46 0 -79 22.5t-33 67.5q0 34 20.5 65.5t71.5 77.5q-47 20 -47 85zM242 657
q0 -38 -27.5 -64t-66.5 -26t-66.5 26.5t-27.5 63.5q0 36 27.5 63t66.5 27t66.5 -26.5t27.5 -63.5z" />
    <glyph glyph-name="Idotaccent" unicode="&#x130;" horiz-adv-x="318" 
d="M73 86v536q0 54 27.5 75t58.5 21t58.5 -21t27.5 -75v-536q0 -54 -27.5 -75t-58.5 -21t-58.5 21t-27.5 75zM249 849q0 -36 -26 -60.5t-64 -24.5q-37 0 -63 25t-26 60t26 60.5t63 25.5q38 0 64 -25t26 -61z" />
    <glyph glyph-name="dotlessi" unicode="&#x131;" horiz-adv-x="296" 
d="M66 82v334q0 52 26 72t56 20t56 -20t26 -72v-334q0 -52 -26 -72t-56 -20t-56 20t-26 72z" />
    <glyph glyph-name="Jcircumflex" unicode="&#x134;" horiz-adv-x="529" 
d="M288 241v381q0 54 27.5 75t58.5 21t58.5 -21t27.5 -75v-380q0 -37 -5.5 -70.5t-21 -69.5t-40.5 -62t-67.5 -42.5t-98.5 -16.5q-105 0 -167 62q-36 36 -36 76q0 32 22 53t56 21q33 0 69 -37q20 -20 48 -20q39 0 54 27t15 78zM376 835l-80 -63q-23 -18 -42 -18
q-20 0 -33.5 14t-13.5 33q0 25 25 45l81 66q35 27 61 27q28 0 61 -27l82 -66q24 -19 24 -45q0 -19 -13.5 -33t-34.5 -14q-19 0 -42 18z" />
    <glyph glyph-name="jcircumflex" unicode="&#x135;" horiz-adv-x="299" 
d="M233 416v-429q0 -108 -45.5 -167t-135.5 -59q-99 0 -99 70q0 31 19.5 50t53.5 19q43 0 43 65v451q0 52 26 72t56 20t56 -20t26 -72zM152 643l-80 -63q-22 -18 -42 -18t-33.5 14t-13.5 33q0 25 25 45l81 66q35 27 61 27q28 0 61 -27l82 -66q24 -19 24 -45q0 -19 -13.5 -33
t-34.5 -14q-19 0 -42 18z" />
    <glyph glyph-name="Kcommaaccent" unicode="&#x136;" horiz-adv-x="711" 
d="M244 420l269 266q32 32 68 32q34 0 56.5 -21.5t22.5 -54.5q0 -39 -35 -70l-211 -190l241 -238q34 -34 34 -69q0 -37 -24.5 -61t-61.5 -24q-39 0 -71 35l-289 301h-2v-242q0 -53 -27 -73.5t-57 -20.5q-12 0 -24.5 3.5t-27 12.5t-23.5 29.5t-9 48.5v540q0 53 27 73.5
t57 20.5q12 0 24.5 -3.5t27 -12.5t23.5 -29.5t9 -48.5v-204h3zM403 -146l-36 -52q-35 -52 -68 -52q-23 0 -39 15.5t-16 37.5q0 21 23 57l36 56q31 49 66 49q24 0 40 -16t16 -39q0 -24 -22 -56z" />
    <glyph glyph-name="kcommaaccent" unicode="&#x137;" horiz-adv-x="595" 
d="M65 82v592q0 52 26 72t56 20t56.5 -20t26.5 -72v-378h3l168 177q34 35 71 35q33 0 54 -22t21 -53q0 -36 -34 -66l-102 -94l126 -141q27 -29 27 -62q0 -34 -22.5 -57t-56.5 -23q-42 0 -81 46l-171 203h-3v-157q0 -52 -26.5 -72t-56.5 -20t-56 20t-26 72zM346 -146l-36 -52
q-35 -52 -68 -52q-23 0 -39 15.5t-16 37.5q0 21 23 57l36 56q31 49 66 49q24 0 40 -16t16 -39q0 -24 -22 -56z" />
    <glyph glyph-name="Lacute" unicode="&#x139;" horiz-adv-x="526" 
d="M445 0h-274q-98 0 -98 98v524q0 54 27.5 75t58.5 21t58.5 -21t27.5 -75v-473h200q47 0 65.5 -24t18.5 -50q0 -27 -18.5 -51t-65.5 -24zM284 821l-68 -45q-34 -22 -56 -22q-23 0 -38 15t-15 37q0 32 41 61l65 47q34 25 58 25t40 -16t16 -39q0 -35 -43 -63z" />
    <glyph glyph-name="lacute" unicode="&#x13a;" horiz-adv-x="298" 
d="M66 83v590q0 53 26.5 73t56.5 20t56.5 -20t26.5 -73v-590q0 -53 -26.5 -73t-56.5 -20t-56.5 20t-26.5 73zM270 849l-68 -45q-34 -22 -56 -22q-23 0 -38 15t-15 37q0 32 41 61l65 47q34 25 58 25t40 -16t16 -39q0 -35 -43 -63z" />
    <glyph glyph-name="Lcommaaccent" unicode="&#x13b;" horiz-adv-x="526" 
d="M445 0h-274q-98 0 -98 98v524q0 54 27.5 75t58.5 21t58.5 -21t27.5 -75v-473h200q47 0 65.5 -24t18.5 -50q0 -27 -18.5 -51t-65.5 -24zM326 -146l-36 -52q-35 -52 -68 -52q-23 0 -39 15.5t-16 37.5q0 21 23 57l36 56q31 49 66 49q24 0 40 -16t16 -39q0 -24 -22 -56z" />
    <glyph glyph-name="lcommaaccent" unicode="&#x13c;" horiz-adv-x="298" 
d="M66 83v590q0 53 26.5 73t56.5 20t56.5 -20t26.5 -73v-590q0 -53 -26.5 -73t-56.5 -20t-56.5 20t-26.5 73zM183 -146l-36 -52q-35 -52 -68 -52q-23 0 -39 15.5t-16 37.5q0 21 23 57l36 56q31 49 66 49q24 0 40 -16t16 -39q0 -24 -22 -56z" />
    <glyph glyph-name="Lcaron" unicode="&#x13d;" horiz-adv-x="526" 
d="M445 0h-274q-98 0 -98 98v524q0 54 27.5 75t58.5 21t58.5 -21t27.5 -75v-473h200q47 0 65.5 -24t18.5 -50q0 -27 -18.5 -51t-65.5 -24zM440 612l-30 -66q-25 -58 -63 -58q-23 0 -39.5 14t-16.5 38q0 14 13 50l24 64q24 64 67 64q25 0 42 -16t17 -39q0 -18 -14 -51z" />
    <glyph glyph-name="lcaron" unicode="&#x13e;" horiz-adv-x="298" 
d="M66 83v590q0 53 26.5 73t56.5 20t56.5 -20t26.5 -73v-590q0 -53 -26.5 -73t-56.5 -20t-56.5 20t-26.5 73zM427 612l-30 -66q-25 -58 -63 -58q-23 0 -39.5 14t-16.5 38q0 14 13 50l24 64q24 64 67 64q25 0 42 -16t17 -39q0 -18 -14 -51z" />
    <glyph glyph-name="Ldot" unicode="&#x13f;" horiz-adv-x="526" 
d="M445 0h-274q-98 0 -98 98v524q0 54 27.5 75t58.5 21t58.5 -21t27.5 -75v-473h200q47 0 65.5 -24t18.5 -50q0 -27 -18.5 -51t-65.5 -24zM478 437q0 -36 -26 -60.5t-64 -24.5q-37 0 -63 25t-26 60t26 60.5t63 25.5q38 0 64 -25t26 -61z" />
    <glyph glyph-name="ldot" unicode="&#x140;" horiz-adv-x="448" 
d="M66 83v590q0 53 26.5 73t56.5 20t56.5 -20t26.5 -73v-590q0 -53 -26.5 -73t-56.5 -20t-56.5 20t-26.5 73zM448 467q0 -36 -26 -60.5t-64 -24.5q-37 0 -63 25t-26 60t26 60.5t63 25.5q38 0 64 -25t26 -61z" />
    <glyph glyph-name="Lslash" unicode="&#x141;" horiz-adv-x="526" 
d="M445 0h-274q-98 0 -98 98v79q-15 -10 -33 -10q-22 0 -37 14.5t-15 37.5q0 26 25 47l60 53v303q0 54 27.5 75t58.5 21t58.5 -21t27.5 -75v-176l107 94q21 18 42 18q22 0 37 -14.5t15 -37.5q0 -26 -25 -47l-176 -154v-156h200q47 0 65.5 -24t18.5 -50q0 -27 -18.5 -51
t-65.5 -24z" />
    <glyph glyph-name="lslash" unicode="&#x142;" horiz-adv-x="298" 
d="M66 83v186q-13 -8 -28 -8q-22 0 -36 14t-14 35q0 23 21 44l57 55v264q0 53 26.5 73t56.5 20t56.5 -20t26.5 -73v-136q12 9 28 9q22 0 36 -14t14 -35q0 -23 -21 -44l-57 -56v-314q0 -53 -26.5 -73t-56.5 -20t-56.5 20t-26.5 73z" />
    <glyph glyph-name="Nacute" unicode="&#x143;" horiz-adv-x="790" 
d="M507 57l-269 390h-3l3 -365q0 -36 -15.5 -58.5t-32.5 -28t-35 -5.5q-30 0 -56 20t-26 72v519q0 35 11 60t28.5 36.5t33 16t29.5 4.5q62 0 108 -67l269 -389h3l-3 364q0 36 15.5 58.5t32 28t34.5 5.5q30 0 56.5 -20t26.5 -72v-519q0 -35 -11 -60t-28.5 -36.5t-33 -16
t-29.5 -4.5q-62 0 -108 67zM512 821l-68 -45q-34 -22 -56 -22q-23 0 -38 15t-15 37q0 32 41 61l65 47q34 25 58 25t40 -16t16 -39q0 -35 -43 -63z" />
    <glyph glyph-name="nacute" unicode="&#x144;" horiz-adv-x="616" 
d="M64 82v338q0 50 25 69t54 19q28 0 53 -17.5t27 -61.5h2q18 35 58.5 59t90.5 24q93 0 137.5 -59.5t44.5 -144.5v-226q0 -52 -26.5 -72t-56.5 -20t-56 20t-26 72v190q0 105 -74 105q-42 0 -65 -31t-23 -76v-188q0 -52 -26.5 -72t-56.5 -20t-56 20t-26 72zM408 629l-68 -45
q-34 -22 -56 -22q-23 0 -38 15t-15 37q0 32 41 61l65 47q34 25 58 25t40 -16t16 -39q0 -35 -43 -63z" />
    <glyph glyph-name="Ncommaaccent" unicode="&#x145;" horiz-adv-x="790" 
d="M507 57l-269 390h-3l3 -365q0 -36 -15.5 -58.5t-32.5 -28t-35 -5.5q-30 0 -56 20t-26 72v519q0 35 11 60t28.5 36.5t33 16t29.5 4.5q62 0 108 -67l269 -389h3l-3 364q0 36 15.5 58.5t32 28t34.5 5.5q30 0 56.5 -20t26.5 -72v-519q0 -35 -11 -60t-28.5 -36.5t-33 -16
t-29.5 -4.5q-62 0 -108 67zM425 -146l-36 -52q-35 -52 -68 -52q-23 0 -39 15.5t-16 37.5q0 21 23 57l36 56q31 49 66 49q24 0 40 -16t16 -39q0 -24 -22 -56z" />
    <glyph glyph-name="ncommaaccent" unicode="&#x146;" horiz-adv-x="616" 
d="M64 82v338q0 50 25 69t54 19q28 0 53 -17.5t27 -61.5h2q18 35 58.5 59t90.5 24q93 0 137.5 -59.5t44.5 -144.5v-226q0 -52 -26.5 -72t-56.5 -20t-56 20t-26 72v190q0 105 -74 105q-42 0 -65 -31t-23 -76v-188q0 -52 -26.5 -72t-56.5 -20t-56 20t-26 72zM342 -146l-36 -52
q-35 -52 -68 -52q-23 0 -39 15.5t-16 37.5q0 21 23 57l36 56q31 49 66 49q24 0 40 -16t16 -39q0 -24 -22 -56z" />
    <glyph glyph-name="Ncaron" unicode="&#x147;" horiz-adv-x="790" 
d="M507 57l-269 390h-3l3 -365q0 -36 -15.5 -58.5t-32.5 -28t-35 -5.5q-30 0 -56 20t-26 72v519q0 35 11 60t28.5 36.5t33 16t29.5 4.5q62 0 108 -67l269 -389h3l-3 364q0 36 15.5 58.5t32 28t34.5 5.5q30 0 56.5 -20t26.5 -72v-519q0 -35 -11 -60t-28.5 -36.5t-33 -16
t-29.5 -4.5q-62 0 -108 67zM396 858l80 63q22 18 42 18t33.5 -14t13.5 -33q0 -25 -25 -45l-81 -66q-31 -27 -61 -27q-28 0 -61 27l-82 66q-24 19 -24 45q0 19 13.5 33t34.5 14q19 0 42 -18z" />
    <glyph glyph-name="ncaron" unicode="&#x148;" horiz-adv-x="616" 
d="M64 82v338q0 50 25 69t54 19q28 0 53 -17.5t27 -61.5h2q18 35 58.5 59t90.5 24q93 0 137.5 -59.5t44.5 -144.5v-226q0 -52 -26.5 -72t-56.5 -20t-56 20t-26 72v190q0 105 -74 105q-42 0 -65 -31t-23 -76v-188q0 -52 -26.5 -72t-56.5 -20t-56 20t-26 72zM309 666l80 63
q23 18 42 18q20 0 33.5 -14t13.5 -33q0 -25 -25 -45l-81 -66q-31 -27 -61 -27q-28 0 -61 27l-82 66q-24 19 -24 45q0 19 13.5 33t34.5 14q20 0 42 -18z" />
    <glyph glyph-name="Omacron" unicode="&#x14c;" horiz-adv-x="851" 
d="M811 357q0 -167 -109 -271.5t-277 -104.5q-167 0 -276 104.5t-109 271.5q0 168 108.5 269t276.5 101q169 0 277.5 -101t108.5 -269zM628 357q0 94 -57 155t-146 61t-145.5 -61t-56.5 -155q0 -96 56.5 -158t145.5 -62t146 62t57 158zM301 884h244q30 0 42 -15.5t12 -32.5
q0 -10 -3.5 -20t-16.5 -19t-34 -9h-244q-30 0 -42 15.5t-12 32.5q0 10 3.5 20t16.5 19t34 9z" />
    <glyph glyph-name="omacron" unicode="&#x14d;" horiz-adv-x="632" 
d="M592 251q0 -119 -80 -193t-197 -74q-116 0 -196 74t-80 193t80 191t196 72q117 0 197 -72t80 -191zM434 251q0 51 -32 89t-87 38t-86 -37.5t-31 -89.5t31.5 -90.5t86.5 -38.5t86.5 38.5t31.5 90.5zM193 692h244q30 0 42 -15.5t12 -32.5q0 -10 -3.5 -20t-16.5 -19t-34 -9
h-244q-30 0 -42 15.5t-12 32.5q0 10 3.5 20t16.5 19t34 9z" />
    <glyph glyph-name="Obreve" unicode="&#x14e;" horiz-adv-x="851" 
d="M811 357q0 -167 -109 -271.5t-277 -104.5q-167 0 -276 104.5t-109 271.5q0 168 108.5 269t276.5 101q169 0 277.5 -101t108.5 -269zM628 357q0 94 -57 155t-146 61t-145.5 -61t-56.5 -155q0 -96 56.5 -158t145.5 -62t146 62t57 158zM424 852q54 0 75 33t47 33
q19 0 31.5 -12.5t12.5 -30.5q0 -12 -4 -22q-35 -89 -162 -89t-162 89q-4 10 -4 22q0 18 12.5 30.5t31.5 12.5q26 0 47 -33t75 -33z" />
    <glyph glyph-name="obreve" unicode="&#x14f;" horiz-adv-x="632" 
d="M592 251q0 -119 -80 -193t-197 -74q-116 0 -196 74t-80 193t80 191t196 72q117 0 197 -72t80 -191zM434 251q0 51 -32 89t-87 38t-86 -37.5t-31 -89.5t31.5 -90.5t86.5 -38.5t86.5 38.5t31.5 90.5zM314 660q54 0 75 33t47 33q19 0 31.5 -12.5t12.5 -30.5q0 -12 -4 -22
q-35 -89 -162 -89t-162 89q-4 10 -4 22q0 18 12.5 30.5t31.5 12.5q26 0 47 -33t75 -33z" />
    <glyph glyph-name="Ohungarumlaut" unicode="&#x150;" horiz-adv-x="851" 
d="M811 357q0 -167 -109 -271.5t-277 -104.5q-167 0 -276 104.5t-109 271.5q0 168 108.5 269t276.5 101q169 0 277.5 -101t108.5 -269zM628 357q0 94 -57 155t-146 61t-145.5 -61t-56.5 -155q0 -96 56.5 -158t145.5 -62t146 62t57 158zM435 822l-56 -43q-33 -25 -57 -25
t-38.5 15t-14.5 36q0 29 39 62l54 44q33 28 57 28t40 -16t16 -39q0 -33 -40 -62zM656 822l-56 -43q-32 -25 -57 -25q-23 0 -38 15t-15 36q0 29 39 62l54 44q33 28 57 28t40 -16t16 -39q0 -33 -40 -62z" />
    <glyph glyph-name="ohungarumlaut" unicode="&#x151;" horiz-adv-x="632" 
d="M592 251q0 -119 -80 -193t-197 -74q-116 0 -196 74t-80 193t80 191t196 72q117 0 197 -72t80 -191zM434 251q0 51 -32 89t-87 38t-86 -37.5t-31 -89.5t31.5 -90.5t86.5 -38.5t86.5 38.5t31.5 90.5zM334 630l-56 -43q-32 -25 -57 -25q-23 0 -38 15t-15 36q0 29 39 62
l54 44q33 28 57 28t40 -16t16 -39q0 -33 -40 -62zM555 630l-56 -43q-33 -25 -57 -25t-38.5 15t-14.5 36q0 29 39 62l54 44q33 28 57 28t40 -16t16 -39q0 -33 -40 -62z" />
    <glyph glyph-name="OE" unicode="&#x152;" horiz-adv-x="1019" 
d="M664 430h211q46 0 62.5 -21.5t16.5 -46.5q0 -15 -4.5 -28.5t-23.5 -27t-51 -13.5h-211v-147h244q46 0 63.5 -23t17.5 -50q0 -16 -5 -30.5t-24.5 -28.5t-51.5 -14h-466q-62 0 -119 12t-109 39t-90.5 67.5t-61 101t-22.5 135.5q0 93 34 163.5t92.5 110.5t127.5 59.5
t148 19.5h448q46 0 63.5 -23t17.5 -49q0 -16 -5 -30.5t-24.5 -28.5t-51.5 -14h-226v-133zM501 146v417h-46q-48 0 -87.5 -10t-73.5 -33t-53 -66t-19 -102q0 -105 66 -155.5t163 -50.5h50z" />
    <glyph glyph-name="oe" unicode="&#x153;" horiz-adv-x="973" 
d="M198 251q0 -52 31 -90.5t86 -38.5t86.5 38.5t31.5 90.5q0 51 -31.5 89t-86.5 38t-86 -38t-31 -89zM573 306h211q0 41 -25.5 68t-72.5 27q-46 0 -78 -28t-35 -67zM690 -16q-62 0 -112.5 22.5t-78.5 60.5q-65 -83 -186 -83q-116 0 -195 73.5t-79 193.5q0 119 79 191t195 72
q59 0 108.5 -24t78.5 -63q73 87 187 87q93 0 156.5 -51.5t83.5 -141.5q5 -23 5 -38q0 -79 -85 -79h-274q5 -41 39.5 -67.5t79.5 -26.5q53 0 95 29q31 21 52 21q27 0 45 -17.5t18 -44.5q0 -33 -29 -56q-71 -58 -183 -58z" />
    <glyph glyph-name="Racute" unicode="&#x154;" horiz-adv-x="663" 
d="M445 491q0 79 -114 79h-91v-165h81q124 0 124 86zM467 34l-165 247h-61v-197q0 -53 -27 -73.5t-57 -20.5t-57 20.5t-27 73.5v526q0 98 98 98h172q139 0 205 -59.5t66 -154.5q0 -70 -38 -119.5t-106 -70.5l131 -175q22 -30 22 -59q0 -34 -24 -57t-59 -23q-44 0 -73 44z
M420 821l-68 -45q-34 -22 -56 -22q-23 0 -38 15t-15 37q0 32 41 61l65 47q34 25 58 25t40 -16t16 -39q0 -35 -43 -63z" />
    <glyph glyph-name="racute" unicode="&#x155;" horiz-adv-x="396" 
d="M64 82v338q0 50 25 69t54 19q28 0 53.5 -18.5t25.5 -63.5h2q38 85 104 85q34 0 53.5 -20t19.5 -52q0 -31 -20 -53t-64 -25q-42 -3 -65.5 -32t-23.5 -73v-174q0 -52 -26 -72t-56 -20t-56 20t-26 72zM314 629l-68 -45q-34 -22 -56 -22q-23 0 -38 15t-15 37q0 32 41 61
l65 47q34 25 58 25t40 -16t16 -39q0 -35 -43 -63z" />
    <glyph glyph-name="Rcommaaccent" unicode="&#x156;" horiz-adv-x="663" 
d="M445 491q0 79 -114 79h-91v-165h81q124 0 124 86zM467 34l-165 247h-61v-197q0 -53 -27 -73.5t-57 -20.5t-57 20.5t-27 73.5v526q0 98 98 98h172q139 0 205 -59.5t66 -154.5q0 -70 -38 -119.5t-106 -70.5l131 -175q22 -30 22 -59q0 -34 -24 -57t-59 -23q-44 0 -73 44z
M376 -146l-36 -52q-35 -52 -68 -52q-23 0 -39 15.5t-16 37.5q0 21 23 57l36 56q31 49 66 49q24 0 40 -16t16 -39q0 -24 -22 -56z" />
    <glyph glyph-name="rcommaaccent" unicode="&#x157;" horiz-adv-x="396" 
d="M64 82v338q0 50 25 69t54 19q28 0 53.5 -18.5t25.5 -63.5h2q38 85 104 85q34 0 53.5 -20t19.5 -52q0 -31 -20 -53t-64 -25q-42 -3 -65.5 -32t-23.5 -73v-174q0 -52 -26 -72t-56 -20t-56 20t-26 72zM182 -146l-36 -52q-35 -52 -68 -52q-23 0 -39 15.5t-16 37.5q0 21 23 57
l36 56q31 49 66 49q24 0 40 -16t16 -39q0 -24 -22 -56z" />
    <glyph glyph-name="Rcaron" unicode="&#x158;" horiz-adv-x="663" 
d="M445 491q0 79 -114 79h-91v-165h81q124 0 124 86zM467 34l-165 247h-61v-197q0 -53 -27 -73.5t-57 -20.5t-57 20.5t-27 73.5v526q0 98 98 98h172q139 0 205 -59.5t66 -154.5q0 -70 -38 -119.5t-106 -70.5l131 -175q22 -30 22 -59q0 -34 -24 -57t-59 -23q-44 0 -73 44z
M319 858l80 63q23 18 42 18q20 0 33.5 -14t13.5 -33q0 -25 -25 -45l-81 -66q-31 -27 -61 -27q-28 0 -61 27l-82 66q-24 19 -24 45q0 19 13.5 33t34.5 14q20 0 42 -18z" />
    <glyph glyph-name="rcaron" unicode="&#x159;" horiz-adv-x="396" 
d="M64 82v338q0 50 25 69t54 19q28 0 53.5 -18.5t25.5 -63.5h2q38 85 104 85q34 0 53.5 -20t19.5 -52q0 -31 -20 -53t-64 -25q-42 -3 -65.5 -32t-23.5 -73v-174q0 -52 -26 -72t-56 -20t-56 20t-26 72zM227 666l80 63q23 18 42 18q20 0 33.5 -14t13.5 -33q0 -25 -25 -45
l-81 -66q-31 -27 -61 -27q-28 0 -61 27l-82 66q-24 19 -24 45q0 19 13.5 33t34.5 14q20 0 42 -18z" />
    <glyph glyph-name="Sacute" unicode="&#x15a;" horiz-adv-x="591" 
d="M76 39q-39 30 -39 67q0 33 22.5 56.5t56.5 23.5q26 0 58 -23q55 -40 118 -40q35 0 60.5 19.5t25.5 57.5q0 16 -7.5 28.5t-16.5 21t-32 18.5t-39 15.5t-52 17.5q-39 13 -67 27t-56 37t-43 58t-15 81q0 56 24 100.5t64 70t87.5 38.5t98.5 13q93 0 161 -41q46 -28 46 -71
q0 -31 -20.5 -53t-51.5 -22q-19 0 -50 16q-57 30 -93 30q-41 0 -67.5 -17.5t-26.5 -53.5q0 -17 7 -29.5t23.5 -22t32.5 -16t46 -15.5q39 -13 61 -21t56.5 -26.5t53.5 -38.5t34 -53.5t15 -73.5q0 -115 -78.5 -175.5t-192.5 -60.5q-54 0 -113 16t-91 41zM414 821l-68 -45
q-34 -22 -56 -22q-23 0 -38 15t-15 37q0 32 41 61l65 47q34 25 58 25t40 -16t16 -39q0 -35 -43 -63z" />
    <glyph glyph-name="sacute" unicode="&#x15b;" horiz-adv-x="472" 
d="M68 23q-38 25 -38 61q0 27 18 45.5t45 18.5q24 0 50 -18q41 -28 82 -28q24 0 41.5 10.5t17.5 32.5t-21 32.5t-78 23.5q-145 34 -145 146q0 82 63 124.5t144 42.5q85 0 135 -29q42 -24 42 -60q0 -27 -17 -44.5t-45 -17.5q-17 0 -42 14q-34 19 -67 19q-26 0 -44 -10
t-18 -30t18.5 -28.5t72.5 -20.5q159 -36 159 -153q0 -87 -62.5 -128.5t-150.5 -41.5q-101 0 -160 39zM348 629l-68 -45q-34 -22 -56 -22q-23 0 -38 15t-15 37q0 32 41 61l65 47q34 25 58 25t40 -16t16 -39q0 -35 -43 -63z" />
    <glyph glyph-name="Scircumflex" unicode="&#x15c;" horiz-adv-x="591" 
d="M76 39q-39 30 -39 67q0 33 22.5 56.5t56.5 23.5q26 0 58 -23q55 -40 118 -40q35 0 60.5 19.5t25.5 57.5q0 16 -7.5 28.5t-16.5 21t-32 18.5t-39 15.5t-52 17.5q-39 13 -67 27t-56 37t-43 58t-15 81q0 56 24 100.5t64 70t87.5 38.5t98.5 13q93 0 161 -41q46 -28 46 -71
q0 -31 -20.5 -53t-51.5 -22q-19 0 -50 16q-57 30 -93 30q-41 0 -67.5 -17.5t-26.5 -53.5q0 -17 7 -29.5t23.5 -22t32.5 -16t46 -15.5q39 -13 61 -21t56.5 -26.5t53.5 -38.5t34 -53.5t15 -73.5q0 -115 -78.5 -175.5t-192.5 -60.5q-54 0 -113 16t-91 41zM319 835l-80 -63
q-22 -18 -42 -18t-33.5 14t-13.5 33q0 25 25 45l81 66q34 27 61 27q28 0 61 -27l82 -66q24 -19 24 -45q0 -19 -13.5 -33t-34.5 -14q-19 0 -42 18z" />
    <glyph glyph-name="scircumflex" unicode="&#x15d;" horiz-adv-x="472" 
d="M68 23q-38 25 -38 61q0 27 18 45.5t45 18.5q24 0 50 -18q41 -28 82 -28q24 0 41.5 10.5t17.5 32.5t-21 32.5t-78 23.5q-145 34 -145 146q0 82 63 124.5t144 42.5q85 0 135 -29q42 -24 42 -60q0 -27 -17 -44.5t-45 -17.5q-17 0 -42 14q-34 19 -67 19q-26 0 -44 -10
t-18 -30t18.5 -28.5t72.5 -20.5q159 -36 159 -153q0 -87 -62.5 -128.5t-150.5 -41.5q-101 0 -160 39zM246 643l-80 -63q-22 -18 -42 -18t-33.5 14t-13.5 33q0 25 25 45l81 66q35 27 61 27q28 0 61 -27l82 -66q24 -19 24 -45q0 -19 -13.5 -33t-34.5 -14q-19 0 -42 18z" />
    <glyph glyph-name="Scedilla" unicode="&#x15e;" horiz-adv-x="591" 
d="M270 -240q-44 0 -87 13q-30 9 -30 33q0 14 8.5 23.5t22.5 9.5q6 0 23 -5q27 -8 55 -8q50 0 50 32q0 28 -40 28q-10 0 -22 -2t-19 -2q-31 0 -31 26q0 11 12 27l36 49q-113 9 -172 55q-39 30 -39 67q0 33 22.5 56.5t56.5 23.5q26 0 58 -23q55 -40 118 -40q35 0 60.5 19.5
t25.5 57.5q0 16 -7.5 28.5t-16.5 21t-32 18.5t-39 15.5t-52 17.5q-39 13 -67 27t-56 37t-43 58t-15 81q0 56 24 100.5t64 70t87.5 38.5t98.5 13q93 0 161 -41q46 -28 46 -71q0 -31 -20.5 -53t-51.5 -22q-19 0 -50 16q-57 30 -93 30q-41 0 -67.5 -17.5t-26.5 -53.5
q0 -17 7 -29.5t23.5 -22t32.5 -16t46 -15.5q39 -13 61 -21t56.5 -26.5t53.5 -38.5t34 -53.5t15 -73.5q0 -102 -62 -161t-158 -71l-35 -46q7 1 18 1q103 0 103 -83q0 -52 -44.5 -75t-102.5 -23z" />
    <glyph glyph-name="scedilla" unicode="&#x15f;" horiz-adv-x="472" 
d="M216 -240q-44 0 -87 13q-30 9 -30 33q0 14 8.5 23.5t22.5 9.5q6 0 23 -5q27 -8 55 -8q50 0 50 32q0 28 -40 28q-10 0 -22 -2t-19 -2q-31 0 -31 26q0 11 12 27l38 51q-84 7 -128 37q-38 25 -38 61q0 27 18 45.5t45 18.5q24 0 50 -18q41 -28 82 -28q24 0 41.5 10.5
t17.5 32.5t-21 32.5t-78 23.5q-145 34 -145 146q0 82 63 124.5t144 42.5q85 0 135 -29q42 -24 42 -60q0 -27 -17 -44.5t-45 -17.5q-17 0 -42 14q-34 19 -67 19q-26 0 -44 -10t-18 -30t18.5 -28.5t72.5 -20.5q159 -36 159 -153q0 -74 -46 -115t-116 -51l-37 -48q7 1 18 1
q103 0 103 -83q0 -52 -44.5 -75t-102.5 -23z" />
    <glyph glyph-name="Scaron" unicode="&#x160;" horiz-adv-x="591" 
d="M76 39q-39 30 -39 67q0 33 22.5 56.5t56.5 23.5q26 0 58 -23q55 -40 118 -40q35 0 60.5 19.5t25.5 57.5q0 16 -7.5 28.5t-16.5 21t-32 18.5t-39 15.5t-52 17.5q-39 13 -67 27t-56 37t-43 58t-15 81q0 56 24 100.5t64 70t87.5 38.5t98.5 13q93 0 161 -41q46 -28 46 -71
q0 -31 -20.5 -53t-51.5 -22q-19 0 -50 16q-57 30 -93 30q-41 0 -67.5 -17.5t-26.5 -53.5q0 -17 7 -29.5t23.5 -22t32.5 -16t46 -15.5q39 -13 61 -21t56.5 -26.5t53.5 -38.5t34 -53.5t15 -73.5q0 -115 -78.5 -175.5t-192.5 -60.5q-54 0 -113 16t-91 41zM317 858l80 63
q23 18 42 18q20 0 33.5 -14t13.5 -33q0 -25 -25 -45l-81 -66q-31 -27 -61 -27q-28 0 -61 27l-82 66q-24 19 -24 45q0 19 13.5 33t34.5 14q20 0 42 -18z" />
    <glyph glyph-name="scaron" unicode="&#x161;" horiz-adv-x="472" 
d="M68 23q-38 25 -38 61q0 27 18 45.5t45 18.5q24 0 50 -18q41 -28 82 -28q24 0 41.5 10.5t17.5 32.5t-21 32.5t-78 23.5q-145 34 -145 146q0 82 63 124.5t144 42.5q85 0 135 -29q42 -24 42 -60q0 -27 -17 -44.5t-45 -17.5q-17 0 -42 14q-34 19 -67 19q-26 0 -44 -10
t-18 -30t18.5 -28.5t72.5 -20.5q159 -36 159 -153q0 -87 -62.5 -128.5t-150.5 -41.5q-101 0 -160 39zM242 666l80 63q22 18 42 18t33.5 -14t13.5 -33q0 -25 -25 -45l-81 -66q-31 -27 -61 -27q-28 0 -61 27l-82 66q-24 19 -24 45q0 19 13.5 33t34.5 14q19 0 42 -18z" />
    <glyph glyph-name="Tcommaaccent" unicode="&#x162;" horiz-adv-x="581" 
d="M205 562h-129q-46 0 -63.5 23t-17.5 50q0 16 5 30.5t24.5 28.5t51.5 14h429q46 0 63.5 -23t17.5 -50q0 -16 -5 -30.5t-24.5 -28.5t-51.5 -14h-129v-476q0 -54 -27.5 -75t-57.5 -21q-31 0 -58.5 21t-27.5 75v476zM325 -146l-36 -52q-35 -52 -68 -52q-23 0 -39 15.5
t-16 37.5q0 21 23 57l36 56q31 49 66 49q24 0 40 -16t16 -39q0 -24 -22 -56z" />
    <glyph glyph-name="tcommaaccent" unicode="&#x163;" horiz-adv-x="372" 
d="M81 498v51q0 51 26 70.5t55 19.5q28 0 54 -19.5t26 -70.5v-51h58q38 0 53.5 -20t15.5 -41q0 -22 -15.5 -42t-53.5 -20h-58v-190q0 -35 11.5 -51.5t37.5 -16.5h13q29 0 45 -18t16 -41q0 -70 -106 -70q-95 0 -136 46t-41 131v210h-21q-38 0 -53.5 20t-15.5 42q0 21 15.5 41
t53.5 20h20zM245 -146l-36 -52q-35 -52 -68 -52q-23 0 -39 15.5t-16 37.5q0 21 23 57l36 56q31 49 66 49q24 0 40 -16t16 -39q0 -24 -22 -56z" />
    <glyph glyph-name="Tcaron" unicode="&#x164;" horiz-adv-x="581" 
d="M205 562h-129q-46 0 -63.5 23t-17.5 50q0 16 5 30.5t24.5 28.5t51.5 14h429q46 0 63.5 -23t17.5 -50q0 -16 -5 -30.5t-24.5 -28.5t-51.5 -14h-129v-476q0 -54 -27.5 -75t-57.5 -21q-31 0 -58.5 21t-27.5 75v476zM290 858l80 63q22 18 42 18t33.5 -14t13.5 -33
q0 -25 -25 -45l-81 -66q-31 -27 -61 -27q-28 0 -61 27l-82 66q-24 19 -24 45q0 19 13.5 33t34.5 14q19 0 42 -18z" />
    <glyph glyph-name="tcaron" unicode="&#x165;" horiz-adv-x="372" 
d="M81 498v51q0 51 26 70.5t55 19.5q28 0 54 -19.5t26 -70.5v-51h58q38 0 53.5 -20t15.5 -41q0 -22 -15.5 -42t-53.5 -20h-58v-190q0 -35 11.5 -51.5t37.5 -16.5h13q29 0 45 -18t16 -41q0 -70 -106 -70q-95 0 -136 46t-41 131v210h-21q-38 0 -53.5 20t-15.5 42q0 21 15.5 41
t53.5 20h20zM434 635l-30 -66q-25 -58 -63 -58q-23 0 -39.5 14t-16.5 38q0 14 13 50l24 64q24 64 67 64q25 0 42 -16t17 -39q0 -18 -14 -51z" />
    <glyph glyph-name="Tbar" unicode="&#x166;" horiz-adv-x="581" 
d="M205 562h-129q-46 0 -63.5 23t-17.5 50q0 16 5 30.5t24.5 28.5t51.5 14h429q46 0 63.5 -23t17.5 -50q0 -16 -5 -30.5t-24.5 -28.5t-51.5 -14h-129v-85h96q20 0 32 -8.5t15 -17.5t3 -18q0 -10 -3 -19t-15 -17.5t-32 -8.5h-96v-302q0 -54 -27.5 -75t-57.5 -21
q-31 0 -58.5 21t-27.5 75v302h-91q-20 0 -32 8.5t-15 17.5t-3 19q0 9 3 18t15 17.5t32 8.5h91v85z" />
    <glyph glyph-name="tbar" unicode="&#x167;" horiz-adv-x="372" 
d="M81 498v51q0 51 26 70.5t55 19.5q28 0 54 -19.5t26 -70.5v-51h58q38 0 53.5 -20t15.5 -41q0 -22 -15.5 -42t-53.5 -20h-58v-71h57q20 0 32 -8.5t15 -17.5t3 -18q0 -10 -3 -19t-15 -17.5t-32 -8.5h-57v-30q0 -35 11.5 -51.5t37.5 -16.5h13q29 0 45 -18t16 -41
q0 -70 -106 -70q-95 0 -136 46t-41 131v50h-31q-20 0 -32 8.5t-15 17.5t-3 19q0 9 3 18t15 17.5t32 8.5h31v71h-21q-38 0 -53.5 20t-15.5 42q0 21 15.5 41t53.5 20h20z" />
    <glyph glyph-name="Utilde" unicode="&#x168;" horiz-adv-x="738" 
d="M502 281v342q0 54 27 74.5t59 20.5q31 0 58 -20.5t27 -74.5v-356q0 -128 -83.5 -207t-221.5 -79t-220 78.5t-82 207.5v356q0 54 27 74.5t58 20.5t58 -20.5t27 -74.5v-342q0 -63 33 -104.5t100 -41.5q68 0 100.5 41.5t32.5 104.5zM471 878q21 29 44 29q18 0 29.5 -11
t11.5 -29q0 -11 -5 -24q-31 -76 -110 -76q-39 0 -76 21q-36 20 -55 20t-33 -18q-21 -29 -44 -29q-18 0 -29.5 11t-11.5 29q0 11 5 24q31 76 110 76q39 0 76 -21q36 -20 55 -20t33 18z" />
    <glyph glyph-name="utilde" unicode="&#x169;" horiz-adv-x="614" 
d="M550 416v-338q0 -50 -25 -69t-53 -19t-53 17.5t-27 61.5h-2q-18 -35 -58.5 -59t-90.5 -24q-93 0 -137.5 59.5t-44.5 144.5v226q0 52 26.5 72t56.5 20t56 -20t26 -72v-188q0 -106 74 -106q41 0 64.5 31t23.5 76v187q0 52 26 72t56 20t56 -20t26 -72zM403 686q21 29 44 29
q18 0 29.5 -11t11.5 -29q0 -11 -5 -24q-31 -76 -110 -76q-39 0 -76 21q-36 20 -55 20t-33 -18q-21 -29 -44 -29q-18 0 -29.5 11t-11.5 29q0 11 5 24q31 76 110 76q39 0 76 -21q36 -20 55 -20t33 18z" />
    <glyph glyph-name="Umacron" unicode="&#x16a;" horiz-adv-x="738" 
d="M502 281v342q0 54 27 74.5t59 20.5q31 0 58 -20.5t27 -74.5v-356q0 -128 -83.5 -207t-221.5 -79t-220 78.5t-82 207.5v356q0 54 27 74.5t58 20.5t58 -20.5t27 -74.5v-342q0 -63 33 -104.5t100 -41.5q68 0 100.5 41.5t32.5 104.5zM252 884h244q30 0 42 -15.5t12 -32.5
q0 -10 -3.5 -20t-16.5 -19t-34 -9h-244q-30 0 -42 15.5t-12 32.5q0 10 3.5 20t16.5 19t34 9z" />
    <glyph glyph-name="umacron" unicode="&#x16b;" horiz-adv-x="614" 
d="M550 416v-338q0 -50 -25 -69t-53 -19t-53 17.5t-27 61.5h-2q-18 -35 -58.5 -59t-90.5 -24q-93 0 -137.5 59.5t-44.5 144.5v226q0 52 26.5 72t56.5 20t56 -20t26 -72v-188q0 -106 74 -106q41 0 64.5 31t23.5 76v187q0 52 26 72t56 20t56 -20t26 -72zM182 692h244
q30 0 42 -15.5t12 -32.5q0 -10 -3.5 -20t-16.5 -19t-34 -9h-244q-30 0 -42 15.5t-12 32.5q0 10 3.5 20t16.5 19t34 9z" />
    <glyph glyph-name="Ubreve" unicode="&#x16c;" horiz-adv-x="738" 
d="M502 281v342q0 54 27 74.5t59 20.5q31 0 58 -20.5t27 -74.5v-356q0 -128 -83.5 -207t-221.5 -79t-220 78.5t-82 207.5v356q0 54 27 74.5t58 20.5t58 -20.5t27 -74.5v-342q0 -63 33 -104.5t100 -41.5q68 0 100.5 41.5t32.5 104.5zM370 852q54 0 75 33t47 33
q19 0 31.5 -12.5t12.5 -30.5q0 -12 -4 -22q-35 -89 -162 -89t-162 89q-4 10 -4 22q0 18 12.5 30.5t31.5 12.5q26 0 47 -33t75 -33z" />
    <glyph glyph-name="ubreve" unicode="&#x16d;" horiz-adv-x="614" 
d="M550 416v-338q0 -50 -25 -69t-53 -19t-53 17.5t-27 61.5h-2q-18 -35 -58.5 -59t-90.5 -24q-93 0 -137.5 59.5t-44.5 144.5v226q0 52 26.5 72t56.5 20t56 -20t26 -72v-188q0 -106 74 -106q41 0 64.5 31t23.5 76v187q0 52 26 72t56 20t56 -20t26 -72zM305 660q54 0 75 33
t47 33q19 0 31.5 -12.5t12.5 -30.5q0 -12 -4 -22q-35 -89 -162 -89t-162 89q-4 10 -4 22q0 18 12.5 30.5t31.5 12.5q26 0 47 -33t75 -33z" />
    <glyph glyph-name="Uring" unicode="&#x16e;" horiz-adv-x="738" 
d="M502 281v342q0 54 27 74.5t59 20.5q31 0 58 -20.5t27 -74.5v-356q0 -128 -83.5 -207t-221.5 -79t-220 78.5t-82 207.5v356q0 54 27 74.5t58 20.5t58 -20.5t27 -74.5v-342q0 -63 33 -104.5t100 -41.5q68 0 100.5 41.5t32.5 104.5zM483 856q0 -46 -31.5 -76.5t-77.5 -30.5
q-45 0 -77 30.5t-32 75.5q0 46 31.5 77t77.5 31q45 0 77 -31t32 -76zM433 856q0 25 -17 41.5t-42 16.5t-42 -17t-17 -42q0 -24 17 -40.5t42 -16.5t42 16.5t17 41.5z" />
    <glyph glyph-name="uring" unicode="&#x16f;" horiz-adv-x="614" 
d="M550 416v-338q0 -50 -25 -69t-53 -19t-53 17.5t-27 61.5h-2q-18 -35 -58.5 -59t-90.5 -24q-93 0 -137.5 59.5t-44.5 144.5v226q0 52 26.5 72t56.5 20t56 -20t26 -72v-188q0 -106 74 -106q41 0 64.5 31t23.5 76v187q0 52 26 72t56 20t56 -20t26 -72zM414 664
q0 -46 -31.5 -76.5t-77.5 -30.5q-45 0 -77 30.5t-32 75.5q0 46 31.5 77t77.5 31q45 0 77 -31t32 -76zM364 664q0 25 -17 41.5t-42 16.5t-42 -17t-17 -42q0 -24 17 -40.5t42 -16.5t42 16.5t17 41.5z" />
    <glyph glyph-name="Uhungarumlaut" unicode="&#x170;" horiz-adv-x="738" 
d="M502 281v342q0 54 27 74.5t59 20.5q31 0 58 -20.5t27 -74.5v-356q0 -128 -83.5 -207t-221.5 -79t-220 78.5t-82 207.5v356q0 54 27 74.5t58 20.5t58 -20.5t27 -74.5v-342q0 -63 33 -104.5t100 -41.5q68 0 100.5 41.5t32.5 104.5zM378 822l-56 -43q-32 -25 -57 -25
q-23 0 -38 15t-15 36q0 29 39 62l54 44q33 28 57 28t40 -16t16 -39q0 -33 -40 -62zM599 822l-56 -43q-32 -25 -57 -25q-24 0 -38.5 15t-14.5 36q0 29 39 62l54 44q33 28 57 28t40 -16t16 -39q0 -33 -40 -62z" />
    <glyph glyph-name="uhungarumlaut" unicode="&#x171;" horiz-adv-x="614" 
d="M550 416v-338q0 -50 -25 -69t-53 -19t-53 17.5t-27 61.5h-2q-18 -35 -58.5 -59t-90.5 -24q-93 0 -137.5 59.5t-44.5 144.5v226q0 52 26.5 72t56.5 20t56 -20t26 -72v-188q0 -106 74 -106q41 0 64.5 31t23.5 76v187q0 52 26 72t56 20t56 -20t26 -72zM323 630l-56 -43
q-33 -25 -57 -25t-38.5 15t-14.5 36q0 29 39 62l54 44q33 28 57 28t40 -16t16 -39q0 -33 -40 -62zM544 630l-56 -43q-32 -25 -57 -25q-23 0 -38 15t-15 36q0 29 39 62l54 44q33 28 57 28t40 -16t16 -39q0 -33 -40 -62z" />
    <glyph glyph-name="Uogonek" unicode="&#x172;" horiz-adv-x="738" 
d="M427 -147q9 4 19 4q15 0 24.5 -10t9.5 -25q0 -22 -24 -35q-41 -23 -88 -23q-46 0 -79.5 23t-33.5 68q0 59 79 128q-124 10 -196 86.5t-72 197.5v356q0 54 27 74.5t58 20.5t58 -20.5t27 -74.5v-342q0 -63 33 -104.5t100 -41.5q68 0 100.5 41.5t32.5 104.5v342
q0 54 27 74.5t59 20.5q31 0 58 -20.5t27 -74.5v-356q0 -111 -64.5 -186.5t-175.5 -93.5q-74 -65 -74 -105q0 -16 10.5 -26t26.5 -10q14 0 31 7z" />
    <glyph glyph-name="uogonek" unicode="&#x173;" horiz-adv-x="614" 
d="M550 416v-338q0 -26 -8 -43.5t-16 -24.5t-23 -15q-109 -61 -109 -113q0 -16 10.5 -26t26.5 -10q13 0 31 7q9 4 19 4q15 0 24.5 -10t9.5 -25q0 -22 -24 -35q-41 -23 -88 -23q-46 0 -79.5 23t-33.5 68q0 78 129 152q-26 21 -27 62h-2q-18 -35 -58.5 -59t-90.5 -24
q-93 0 -137.5 59.5t-44.5 144.5v226q0 52 26.5 72t56.5 20t56 -20t26 -72v-188q0 -106 74 -106q41 0 64.5 31t23.5 76v187q0 52 26 72t56 20t56 -20t26 -72z" />
    <glyph glyph-name="Wcircumflex" unicode="&#x174;" horiz-adv-x="1025" 
d="M1010 597l-158 -513q-29 -94 -109 -94q-81 0 -109 94l-120 395h-3l-120 -395q-28 -94 -109 -94t-110 94l-156 508q-6 20 -6 40q0 37 25 61.5t61 24.5q68 0 89 -82l106 -399h3l106 371q19 67 48.5 88.5t65.5 21.5q16 0 29.5 -3.5t29.5 -13.5t30.5 -33.5t24.5 -59.5
l107 -371h3l109 403q21 78 86 78q34 0 58.5 -22t24.5 -60q0 -16 -6 -39zM518 835l-80 -63q-22 -18 -42 -18t-33.5 14t-13.5 33q0 25 25 45l81 66q35 27 61 27q28 0 61 -27l82 -66q24 -19 24 -45q0 -19 -13.5 -33t-34.5 -14q-19 0 -42 18z" />
    <glyph glyph-name="wcircumflex" unicode="&#x175;" horiz-adv-x="871" 
d="M185 436l74 -253h3l72 235q27 90 104 90q75 0 103 -89l75 -236h2l75 256q20 69 80 69q33 0 55.5 -22t22.5 -54q0 -16 -8 -40l-116 -319q-30 -83 -106 -83q-80 0 -107 83l-79 237h-2l-77 -237q-26 -83 -107 -83q-76 0 -106 83l-115 319q-6 18 -6 37q0 34 23 56.5t58 22.5
q62 0 82 -72zM441 643l-80 -63q-23 -18 -42 -18q-20 0 -33.5 14t-13.5 33q0 25 25 45l81 66q34 27 61 27q28 0 61 -27l82 -66q24 -19 24 -45q0 -19 -13.5 -33t-34.5 -14q-20 0 -42 18z" />
    <glyph glyph-name="Ycircumflex" unicode="&#x176;" horiz-adv-x="669" 
d="M338 446l165 223q37 49 79 49q33 0 57 -22t24 -56t-27 -68l-219 -272v-215q0 -54 -27 -74.5t-58 -20.5q-32 0 -59 20.5t-27 74.5v215l-213 269q-27 35 -27 66q0 35 24.5 59t60.5 24q44 0 84 -53zM341 835l-80 -63q-23 -18 -42 -18q-20 0 -33.5 14t-13.5 33q0 25 25 45
l81 66q34 27 61 27q28 0 61 -27l82 -66q24 -19 24 -45q0 -19 -13.5 -33t-34.5 -14q-20 0 -42 18z" />
    <glyph glyph-name="ycircumflex" unicode="&#x177;" horiz-adv-x="567" 
d="M187 442l104 -262h3l91 257q24 71 80 71q35 0 58 -21.5t23 -54.5q0 -21 -9 -44l-194 -465q-35 -85 -82.5 -124t-136.5 -39h-9q-46 0 -64 22t-18 48q0 25 17 47.5t61 22.5q53 0 77 62l18 46l-172 374q-11 25 -11 46q0 34 23 57t59 23q57 0 82 -66zM295 643l-80 -63
q-23 -18 -42 -18q-20 0 -33.5 14t-13.5 33q0 25 25 45l81 66q34 27 61 27q28 0 61 -27l82 -66q24 -19 24 -45q0 -19 -13.5 -33t-34.5 -14q-20 0 -42 18z" />
    <glyph glyph-name="Ydieresis" unicode="&#x178;" horiz-adv-x="669" 
d="M338 446l165 223q37 49 79 49q33 0 57 -22t24 -56t-27 -68l-219 -272v-215q0 -54 -27 -74.5t-58 -20.5q-32 0 -59 20.5t-27 74.5v215l-213 269q-27 35 -27 66q0 35 24.5 59t60.5 24q44 0 84 -53zM530 850q0 -34 -24.5 -58t-58.5 -24q-35 0 -59 24t-24 58q0 33 24 57
t59 24q34 0 58.5 -23.5t24.5 -57.5zM313 850q0 -34 -24.5 -58t-59.5 -24q-34 0 -58.5 24t-24.5 58q0 33 24.5 57t58.5 24q35 0 59.5 -23.5t24.5 -57.5z" />
    <glyph glyph-name="Zacute" unicode="&#x179;" horiz-adv-x="635" 
d="M523 0h-389q-60 0 -82.5 29.5t-22.5 62.5q0 43 45 99l303 372h-262q-46 0 -63.5 23t-17.5 50q0 15 5 29.5t24.5 28.5t51.5 14h389q54 0 75 -27.5t21 -58.5q0 -41 -41 -91l-314 -383h278q47 0 65.5 -23.5t18.5 -49.5q0 -27 -18.5 -51t-65.5 -24zM435 821l-68 -45
q-34 -22 -56 -22q-23 0 -38 15t-15 37q0 32 41 61l65 47q34 25 58 25t40 -16t16 -39q0 -35 -43 -63z" />
    <glyph glyph-name="zacute" unicode="&#x17a;" horiz-adv-x="512" 
d="M58 153l210 219h-165q-39 0 -54.5 20.5t-15.5 42.5q0 9 2.5 18.5t9.5 20t22 17.5t36 7h292q47 0 65 -24t18 -51q0 -39 -35 -74l-216 -222h191q39 0 54.5 -20.5t15.5 -43.5q0 -9 -2.5 -18.5t-9.5 -20t-22 -17.5t-36 -7h-307q-49 0 -68 25t-19 53q0 40 34 75zM365 629
l-68 -45q-34 -22 -56 -22q-23 0 -38 15t-15 37q0 32 41 61l65 47q34 25 58 25t40 -16t16 -39q0 -35 -43 -63z" />
    <glyph glyph-name="Zdotaccent" unicode="&#x17b;" horiz-adv-x="635" 
d="M523 0h-389q-60 0 -82.5 29.5t-22.5 62.5q0 43 45 99l303 372h-262q-46 0 -63.5 23t-17.5 50q0 15 5 29.5t24.5 28.5t51.5 14h389q54 0 75 -27.5t21 -58.5q0 -41 -41 -91l-314 -383h278q47 0 65.5 -23.5t18.5 -49.5q0 -27 -18.5 -51t-65.5 -24zM418 849q0 -36 -26 -60.5
t-64 -24.5q-37 0 -63 25t-26 60t26 60.5t63 25.5q38 0 64 -25t26 -61z" />
    <glyph glyph-name="zdotaccent" unicode="&#x17c;" horiz-adv-x="512" 
d="M58 153l210 219h-165q-39 0 -54.5 20.5t-15.5 42.5q0 9 2.5 18.5t9.5 20t22 17.5t36 7h292q47 0 65 -24t18 -51q0 -39 -35 -74l-216 -222h191q39 0 54.5 -20.5t15.5 -43.5q0 -9 -2.5 -18.5t-9.5 -20t-22 -17.5t-36 -7h-307q-49 0 -68 25t-19 53q0 40 34 75zM349 657
q0 -36 -26 -60.5t-64 -24.5q-37 0 -63 25t-26 60t26 60.5t63 25.5q38 0 64 -25t26 -61z" />
    <glyph glyph-name="Zcaron" unicode="&#x17d;" horiz-adv-x="635" 
d="M523 0h-389q-60 0 -82.5 29.5t-22.5 62.5q0 43 45 99l303 372h-262q-46 0 -63.5 23t-17.5 50q0 15 5 29.5t24.5 28.5t51.5 14h389q54 0 75 -27.5t21 -58.5q0 -41 -41 -91l-314 -383h278q47 0 65.5 -23.5t18.5 -49.5q0 -27 -18.5 -51t-65.5 -24zM318 858l80 63
q23 18 42 18q20 0 33.5 -14t13.5 -33q0 -25 -25 -45l-81 -66q-31 -27 -61 -27q-28 0 -61 27l-82 66q-24 19 -24 45q0 19 13.5 33t34.5 14q19 0 42 -18z" />
    <glyph glyph-name="zcaron" unicode="&#x17e;" horiz-adv-x="512" 
d="M58 153l210 219h-165q-39 0 -54.5 20.5t-15.5 42.5q0 9 2.5 18.5t9.5 20t22 17.5t36 7h292q47 0 65 -24t18 -51q0 -39 -35 -74l-216 -222h191q39 0 54.5 -20.5t15.5 -43.5q0 -9 -2.5 -18.5t-9.5 -20t-22 -17.5t-36 -7h-307q-49 0 -68 25t-19 53q0 40 34 75zM261 666
l80 63q23 18 42 18q20 0 33.5 -14t13.5 -33q0 -25 -25 -45l-81 -66q-31 -27 -61 -27q-28 0 -61 27l-82 66q-24 19 -24 45q0 19 13.5 33t34.5 14q20 0 42 -18z" />
    <glyph glyph-name="florin" unicode="&#x192;" horiz-adv-x="646" 
d="M113 -7q24 0 38.5 20.5t24.5 68.5l49 241h-61q-35 0 -49 18.5t-14 38.5q0 11 4 22.5t19 22.5t40 11h81l16 78q10 45 22 77.5t35 65t61 49.5t90 17q33 0 61 -8q59 -17 59 -67q0 -28 -17.5 -47.5t-47.5 -19.5q-5 0 -19 2.5t-21 2.5q-50 0 -68 -85l-14 -65h73q35 0 49 -18
t14 -38q0 -12 -4 -23.5t-19 -22.5t-40 -11h-95l-55 -274q-37 -188 -195 -188q-38 0 -57 6q-57 16 -57 66q0 26 17 45t46 19q5 0 16.5 -2t17.5 -2z" />
    <glyph glyph-name="Scommaaccent" unicode="&#x218;" horiz-adv-x="591" 
d="M76 39q-39 30 -39 67q0 33 22.5 56.5t56.5 23.5q26 0 58 -23q55 -40 118 -40q35 0 60.5 19.5t25.5 57.5q0 16 -7.5 28.5t-16.5 21t-32 18.5t-39 15.5t-52 17.5q-39 13 -67 27t-56 37t-43 58t-15 81q0 56 24 100.5t64 70t87.5 38.5t98.5 13q93 0 161 -41q46 -28 46 -71
q0 -31 -20.5 -53t-51.5 -22q-19 0 -50 16q-57 30 -93 30q-41 0 -67.5 -17.5t-26.5 -53.5q0 -17 7 -29.5t23.5 -22t32.5 -16t46 -15.5q39 -13 61 -21t56.5 -26.5t53.5 -38.5t34 -53.5t15 -73.5q0 -115 -78.5 -175.5t-192.5 -60.5q-54 0 -113 16t-91 41zM324 -146l-36 -52
q-35 -52 -68 -52q-23 0 -39 15.5t-16 37.5q0 21 23 57l36 56q31 49 66 49q24 0 40 -16t16 -39q0 -24 -22 -56z" />
    <glyph glyph-name="scommaaccent" unicode="&#x219;" horiz-adv-x="472" 
d="M68 23q-38 25 -38 61q0 27 18 45.5t45 18.5q24 0 50 -18q41 -28 82 -28q24 0 41.5 10.5t17.5 32.5t-21 32.5t-78 23.5q-145 34 -145 146q0 82 63 124.5t144 42.5q85 0 135 -29q42 -24 42 -60q0 -27 -17 -44.5t-45 -17.5q-17 0 -42 14q-34 19 -67 19q-26 0 -44 -10
t-18 -30t18.5 -28.5t72.5 -20.5q159 -36 159 -153q0 -87 -62.5 -128.5t-150.5 -41.5q-101 0 -160 39zM264 -146l-36 -52q-35 -52 -68 -52q-23 0 -39 15.5t-16 37.5q0 21 23 57l36 56q31 49 66 49q24 0 40 -16t16 -39q0 -24 -22 -56z" />
    <glyph glyph-name="uni021A" unicode="&#x21a;" horiz-adv-x="581" 
d="M205 562h-129q-46 0 -63.5 23t-17.5 50q0 16 5 30.5t24.5 28.5t51.5 14h429q46 0 63.5 -23t17.5 -50q0 -16 -5 -30.5t-24.5 -28.5t-51.5 -14h-129v-476q0 -54 -27.5 -75t-57.5 -21q-31 0 -58.5 21t-27.5 75v476zM325 -146l-36 -52q-35 -52 -68 -52q-23 0 -39 15.5
t-16 37.5q0 21 23 57l36 56q31 49 66 49q24 0 40 -16t16 -39q0 -24 -22 -56z" />
    <glyph glyph-name="uni021B" unicode="&#x21b;" horiz-adv-x="372" 
d="M81 498v51q0 51 26 70.5t55 19.5q28 0 54 -19.5t26 -70.5v-51h58q38 0 53.5 -20t15.5 -41q0 -22 -15.5 -42t-53.5 -20h-58v-190q0 -35 11.5 -51.5t37.5 -16.5h13q29 0 45 -18t16 -41q0 -70 -106 -70q-95 0 -136 46t-41 131v210h-21q-38 0 -53.5 20t-15.5 42q0 21 15.5 41
t53.5 20h20zM245 -146l-36 -52q-35 -52 -68 -52q-23 0 -39 15.5t-16 37.5q0 21 23 57l36 56q31 49 66 49q24 0 40 -16t16 -39q0 -24 -22 -56z" />
    <glyph glyph-name="dotlessj" unicode="&#x237;" horiz-adv-x="299" 
d="M233 416v-429q0 -108 -45.5 -167t-135.5 -59q-99 0 -99 70q0 31 19.5 50t53.5 19q43 0 43 65v451q0 52 26 72t56 20t56 -20t26 -72z" />
    <glyph glyph-name="circumflex" unicode="&#x2c6;" 
d="M153 643l-80 -63q-23 -18 -42 -18q-20 0 -33.5 14t-13.5 33q0 25 25 45l81 66q34 27 61 27q28 0 61 -27l82 -66q24 -19 24 -45q0 -19 -13.5 -33t-34.5 -14q-20 0 -42 18z" />
    <glyph glyph-name="caron" unicode="&#x2c7;" 
d="M149 666l80 63q23 18 42 18q20 0 33.5 -14t13.5 -33q0 -25 -25 -45l-81 -66q-31 -27 -61 -27q-28 0 -61 27l-82 66q-24 19 -24 45q0 19 13.5 33t34.5 14q20 0 42 -18z" />
    <glyph glyph-name="uni02C9" unicode="&#x2c9;" 
d="M28 884h244q30 0 42 -15.5t12 -32.5q0 -10 -3.5 -20t-16.5 -19t-34 -9h-244q-30 0 -42 15.5t-12 32.5q0 10 3.5 20t16.5 19t34 9z" />
    <glyph glyph-name="breve" unicode="&#x2d8;" 
d="M150 660q54 0 75 33t47 33q19 0 31.5 -12.5t12.5 -30.5q0 -12 -4 -22q-35 -89 -162 -89t-162 89q-4 10 -4 22q0 18 12.5 30.5t31.5 12.5q26 0 47 -33t75 -33z" />
    <glyph glyph-name="dotaccent" unicode="&#x2d9;" 
d="M240 657q0 -36 -26 -60.5t-64 -24.5q-37 0 -63 25t-26 60t26 60.5t63 25.5q38 0 64 -25t26 -61z" />
    <glyph glyph-name="ring" unicode="&#x2da;" 
d="M259 664q0 -46 -31.5 -76.5t-77.5 -30.5q-45 0 -77 30.5t-32 75.5q0 46 31.5 77t77.5 31q45 0 77 -31t32 -76zM209 664q0 25 -17 41.5t-42 16.5t-42 -17t-17 -42q0 -24 17 -40.5t42 -16.5t42 16.5t17 41.5z" />
    <glyph glyph-name="ogonek" unicode="&#x2db;" 
d="M184 -147q9 4 19 4q15 0 24.5 -10t9.5 -25q0 -22 -24 -35q-41 -23 -88 -23q-46 0 -79.5 23t-33.5 68q0 76 134 169h91q-121 -93 -121 -142q0 -16 10.5 -26t26.5 -10q13 0 31 7z" />
    <glyph glyph-name="tilde" unicode="&#x2dc;" 
d="M247 686q21 29 44 29q18 0 29.5 -11t11.5 -29q0 -11 -5 -24q-31 -76 -110 -76q-39 0 -76 21q-36 20 -55 20t-33 -18q-21 -29 -44 -29q-18 0 -29.5 11t-11.5 29q0 11 5 24q31 76 110 76q39 0 76 -21q36 -20 55 -20t33 18z" />
    <glyph glyph-name="hungarumlaut" unicode="&#x2dd;" 
d="M157 630l-56 -43q-33 -25 -57 -25t-38.5 15t-14.5 36q0 29 39 62l54 44q33 28 57 28t40 -16t16 -39q0 -33 -40 -62zM378 630l-56 -43q-32 -25 -57 -25q-23 0 -38 15t-15 36q0 29 39 62l54 44q33 28 57 28t40 -16t16 -39q0 -33 -40 -62z" />
    <glyph glyph-name="uni0394" unicode="&#x394;" horiz-adv-x="710" 
d="M495 145l-150 358l-142 -358h292zM444 644l215 -507q16 -37 16 -62q0 -16 -5 -31t-26 -29.5t-56 -14.5h-467q-35 0 -56 14.5t-26 29.5t-5 31q0 23 16 62l204 508q29 73 95 73q65 0 95 -74z" />
    <glyph glyph-name="uni03A9" unicode="&#x3a9;" horiz-adv-x="771" 
d="M51 405q0 139 97 227.5t237 88.5q141 0 238 -87.5t97 -226.5q0 -93 -43.5 -160.5t-123.5 -91.5v-11h96q45 0 63 -23t18 -49q0 -15 -5 -29.5t-24.5 -28.5t-51.5 -14h-137q-83 0 -83 82v67q0 34 10 52t39 38q82 57 82 166q0 78 -51.5 126.5t-121.5 48.5q-72 0 -123.5 -48.5
t-51.5 -127.5q0 -105 81 -162q28 -19 38.5 -39.5t10.5 -54.5v-67q0 -82 -83 -82h-137q-45 0 -63 23t-18 49q0 15 5 29.5t24.5 28.5t51.5 14h96v11q-165 61 -167 251z" />
    <glyph glyph-name="uni03BC" unicode="&#x3bc;" horiz-adv-x="666" 
d="M426 57h-1q-37 -64 -111 -64q-41 0 -63 20v-159q0 -51 -26 -70.5t-55 -19.5t-55 19.5t-26 70.5v564q0 51 26 70.5t55 19.5t55 -19.5t26 -70.5v-168q0 -29 4.5 -53.5t23 -47.5t49.5 -23q47 0 69 31t22 80v181q0 51 26 70.5t55 19.5t55 -19.5t26 -70.5v-351q0 -49 -25 -68
t-52 -19q-15 0 -30 5t-30.5 23.5t-17.5 48.5z" />
    <glyph glyph-name="pi" unicode="&#x3c0;" horiz-adv-x="666" 
d="M568 126q2 0 8 0.5t8 0.5q24 0 40 -15t16 -42q0 -32 -26 -49q-41 -28 -106 -28q-64 0 -94 38t-30 100v230h-115v-278q0 -53 -26.5 -73t-56.5 -20t-56.5 20t-26.5 73v278h-2q-43 0 -60 22t-17 46q0 10 3 20.5t10.5 22t24 19t39.5 7.5h457q43 0 60 -22t17 -47q0 -10 -3 -20
t-10.5 -21.5t-24 -19t-39.5 -7.5h-11v-201q0 -34 21 -34z" />
    <glyph glyph-name="endash" unicode="&#x2013;" horiz-adv-x="400" 
d="M322 210h-244q-33 0 -45.5 16.5t-12.5 35.5q0 18 12.5 34.5t45.5 16.5h244q33 0 45.5 -16.5t12.5 -34.5q0 -19 -12.5 -35.5t-45.5 -16.5z" />
    <glyph glyph-name="emdash" unicode="&#x2014;" horiz-adv-x="600" 
d="M522 209h-444q-33 0 -45.5 16.5t-12.5 35.5t12.5 35.5t45.5 16.5h444q33 0 45.5 -16.5t12.5 -35.5t-12.5 -35.5t-45.5 -16.5z" />
    <glyph glyph-name="quoteleft" unicode="&#x2018;" 
d="M238 621l-37 -131q-17 -63 -69 -63q-28 0 -47.5 18t-19.5 47q0 15 7 38l41 128q19 60 65 60q27 0 46.5 -16t19.5 -44q0 -14 -6 -37z" />
    <glyph glyph-name="quoteright" unicode="&#x2019;" 
d="M62 524l37 131q17 63 69 63q28 0 47.5 -18t19.5 -47q0 -15 -7 -38l-41 -128q-19 -60 -65 -60q-27 0 -46.5 16t-19.5 44q0 14 6 37z" />
    <glyph glyph-name="quotesinglbase" unicode="&#x201a;" 
d="M62 -39l37 131q17 63 69 63q28 0 47.5 -18t19.5 -47q0 -15 -7 -38l-41 -128q-19 -60 -65 -60q-27 0 -46.5 16t-19.5 44q0 14 6 37z" />
    <glyph glyph-name="quotedblleft" unicode="&#x201c;" horiz-adv-x="507" 
d="M238 621l-37 -131q-17 -63 -69 -63q-28 0 -47.5 18t-19.5 47q0 15 7 38l41 128q19 60 65 60q27 0 46.5 -16t19.5 -44q0 -14 -6 -37zM445 621l-37 -131q-18 -63 -69 -63q-28 0 -47.5 18t-19.5 47q0 15 7 38l41 128q19 60 65 60q27 0 46.5 -16t19.5 -44q0 -14 -6 -37z" />
    <glyph glyph-name="quotedblright" unicode="&#x201d;" horiz-adv-x="507" 
d="M269 524l37 131q18 63 69 63q28 0 47.5 -18t19.5 -47q0 -15 -7 -38l-41 -128q-19 -60 -65 -60q-27 0 -46.5 16t-19.5 44q0 14 6 37zM62 524l37 131q17 63 69 63q28 0 47.5 -18t19.5 -47q0 -15 -7 -38l-41 -128q-19 -60 -65 -60q-27 0 -46.5 16t-19.5 44q0 14 6 37z" />
    <glyph glyph-name="quotedblbase" unicode="&#x201e;" horiz-adv-x="507" 
d="M269 -39l37 131q18 63 69 63q28 0 47.5 -18t19.5 -47q0 -15 -7 -38l-41 -128q-19 -60 -65 -60q-27 0 -46.5 16t-19.5 44q0 14 6 37zM62 -39l37 131q17 63 69 63q28 0 47.5 -18t19.5 -47q0 -15 -7 -38l-41 -128q-19 -60 -65 -60q-27 0 -46.5 16t-19.5 44q0 14 6 37z" />
    <glyph glyph-name="dagger" unicode="&#x2020;" horiz-adv-x="603" 
d="M229 -61v443h-131q-39 0 -54.5 20.5t-15.5 42.5q0 21 15.5 41.5t54.5 20.5h131v133q0 44 22.5 61t48.5 17t48.5 -17t22.5 -61v-133h134q39 0 54.5 -20.5t15.5 -41.5q0 -22 -15.5 -42.5t-54.5 -20.5h-134v-443q0 -44 -22.5 -61t-48.5 -17t-48.5 17t-22.5 61z" />
    <glyph glyph-name="daggerdbl" unicode="&#x2021;" horiz-adv-x="603" 
d="M230 -61v111h-129q-39 0 -54 20t-15 42t15 42t54 20h129v231h-129q-39 0 -54 20t-15 42t15 42t54 20h129v111q0 44 22.5 61t48.5 17t48.5 -17t22.5 -61v-111h131q39 0 54 -20t15 -42t-15 -42t-54 -20h-131v-231h131q39 0 54 -20t15 -42t-15 -42t-54 -20h-131v-111
q0 -44 -22.5 -61t-48.5 -17t-48.5 17t-22.5 61z" />
    <glyph glyph-name="bullet" unicode="&#x2022;" horiz-adv-x="500" 
d="M427 354q0 -74 -51.5 -125.5t-125.5 -51.5t-125.5 51.5t-51.5 125.5t51.5 125.5t125.5 51.5t125.5 -51.5t51.5 -125.5z" />
    <glyph glyph-name="ellipsis" unicode="&#x2026;" horiz-adv-x="1000" 
d="M933 88q0 -41 -29.5 -69.5t-70.5 -28.5t-71.5 28t-30.5 69t30 70t72 29q41 0 70.5 -28.5t29.5 -69.5zM600 88q0 -41 -29.5 -69.5t-70.5 -28.5t-71.5 28t-30.5 69t30 70t72 29q41 0 70.5 -28.5t29.5 -69.5zM267 88q0 -41 -29.5 -69.5t-70.5 -28.5t-71 28t-30 69
q0 40 30 69.5t71 29.5t70.5 -28.5t29.5 -69.5z" />
    <glyph glyph-name="perthousand" unicode="&#x2030;" horiz-adv-x="1245" 
d="M1210 167q0 -74 -53 -126.5t-127 -52.5t-126.5 52.5t-52.5 126.5t52.5 126t126.5 52t127 -52t53 -126zM1104 167q0 31 -21 52.5t-53 21.5t-53 -21.5t-21 -52.5t21 -52.5t53 -21.5t53 21.5t21 52.5zM812 167q0 -74 -53 -126.5t-127 -52.5t-127 52.5t-53 126.5t53 126
t127 52t127 -52t53 -126zM706 167q0 31 -21.5 52.5t-52.5 21.5q-32 0 -53 -21.5t-21 -52.5t21 -52.5t53 -21.5q31 0 52.5 21.5t21.5 52.5zM394 542q0 -74 -53 -126.5t-127 -52.5t-127 52.5t-53 126.5t53 126t127 52t127 -52t53 -126zM288 542q0 31 -21.5 52.5t-52.5 21.5
q-32 0 -53 -21t-21 -53t21 -53t53 -21q31 0 52.5 21.5t21.5 52.5zM637 658l-344 -647q-18 -34 -46 -34q-19 0 -33.5 13t-14.5 33q0 13 8 29l344 649q17 32 46 32q19 0 33.5 -13t14.5 -33q0 -13 -8 -29z" />
    <glyph glyph-name="guilsinglleft" unicode="&#x2039;" horiz-adv-x="318" 
d="M156 65l-97 140q-20 28 -20 49t20 49l97 140q21 31 52 31q24 0 41 -15.5t17 -41.5q0 -20 -14 -40l-84 -123l84 -123q14 -20 14 -40q0 -26 -17 -41.5t-41 -15.5q-31 0 -52 31z" />
    <glyph glyph-name="guilsinglright" unicode="&#x203a;" horiz-adv-x="318" 
d="M259 205l-97 -140q-21 -31 -52 -31q-24 0 -41 15.5t-17 41.5q0 20 14 40l84 123l-84 123q-14 20 -14 40q0 26 17 41.5t41 15.5q31 0 52 -31l97 -140q20 -28 20 -49t-20 -49z" />
    <glyph glyph-name="fraction" unicode="&#x2044;" horiz-adv-x="100" 
d="M259 658l-344 -647q-18 -34 -46 -34q-19 0 -33.5 13t-14.5 33q0 13 8 29l344 649q17 32 46 32q19 0 33.5 -13t14.5 -33q0 -13 -8 -29z" />
    <glyph glyph-name="Euro" unicode="&#x20ac;" horiz-adv-x="646" 
d="M506 127q21 7 33 7q27 0 44.5 -18.5t17.5 -46.5q0 -40 -49 -64q-50 -24 -124 -24q-126 0 -206.5 64.5t-108.5 170.5h-35q-32 0 -44.5 16.5t-12.5 35.5q0 11 3.5 21t17.5 20t36 10h22q-1 12 -1 35q0 18 3 36h-20q-32 0 -44.5 16.5t-12.5 35.5q0 11 3.5 21.5t17.5 20.5
t36 10h35q32 109 121 171t212 62q65 0 100 -13q51 -19 51 -62q0 -28 -17.5 -48.5t-48.5 -20.5q-16 0 -36 5q-28 6 -54 6q-53 0 -99 -26.5t-63 -73.5h207q32 0 44.5 -16.5t12.5 -35.5q0 -11 -3.5 -21.5t-17.5 -20.5t-36 -10h-235q-2 -12 -2 -37q0 -23 1 -34h184
q32 0 44.5 -16.5t12.5 -34.5q0 -11 -3.5 -21.5t-17.5 -20.5t-36 -10h-163q14 -43 60 -71.5t105 -28.5q34 0 66 11z" />
    <glyph glyph-name="afii61289" unicode="&#x2113;" horiz-adv-x="500" 
d="M336 557q0 26 -9.5 44t-25.5 18q-15 0 -25 -19.5t-10 -49.5v-157q70 71 70 164zM111 162l-16 -13q-17 -15 -37 -15t-34 14.5t-14 35.5q0 24 23 42l77 61v233q0 85 54 143t138 58q73 0 116.5 -42.5t43.5 -112.5q0 -77 -47 -149t-149 -154v-101q0 -33 16.5 -48t40.5 -15
q21 0 51 15q24 12 39 12q20 0 33.5 -14.5t13.5 -34.5q0 -27 -30 -47q-65 -44 -146 -44q-82 0 -127.5 42.5t-45.5 108.5v25z" />
    <glyph glyph-name="trademark" unicode="&#x2122;" horiz-adv-x="1000" 
d="M343 613h-75v-267q0 -34 -17.5 -47t-36.5 -13q-12 0 -23 3.5t-22 18t-11 38.5v267h-75q-30 0 -41.5 15t-11.5 33q0 10 3 19.5t16 18.5t34 9h260q30 0 41.5 -15t11.5 -32q0 -10 -3 -19.5t-16 -19t-34 -9.5zM706 416l102 243q25 59 72 59q24 0 46 -16.5t22 -59.5v-296
q0 -34 -17 -47t-36 -13t-36 13t-17 47v162h-2l-77 -174q-19 -48 -60 -48q-38 0 -59 48l-76 174h-2v-162q0 -18 -5.5 -30.5t-14.5 -18.5t-17 -8.5t-15 -2.5q-19 0 -36 13t-17 47v296q0 43 22 59.5t46 16.5q47 0 73 -59z" />
    <glyph glyph-name="Omega" unicode="&#x2126;" horiz-adv-x="771" 
d="M51 405q0 139 97 227.5t237 88.5q141 0 238 -87.5t97 -226.5q0 -93 -43.5 -160.5t-123.5 -91.5v-11h96q45 0 63 -23t18 -49q0 -15 -5 -29.5t-24.5 -28.5t-51.5 -14h-137q-83 0 -83 82v67q0 34 10 52t39 38q82 57 82 166q0 78 -51.5 126.5t-121.5 48.5q-72 0 -123.5 -48.5
t-51.5 -127.5q0 -105 81 -162q28 -19 38.5 -39.5t10.5 -54.5v-67q0 -82 -83 -82h-137q-45 0 -63 23t-18 49q0 15 5 29.5t24.5 28.5t51.5 14h96v11q-165 61 -167 251z" />
    <glyph glyph-name="estimated" unicode="&#x212e;" horiz-adv-x="605" 
d="M561 259h-404v-181q59 -59 145 -59q122 0 193 120l35 -21q-46 -72 -98 -103.5t-130 -31.5q-115 0 -186.5 79t-71.5 197q0 119 71 197.5t187 78.5q115 0 186.5 -77t72.5 -199zM157 295h291v145q-63 60 -147 60t-144 -60v-145z" />
    <glyph glyph-name="partialdiff" unicode="&#x2202;" horiz-adv-x="666" 
d="M210 559q-34 -23 -57 -23q-28 0 -46 19t-18 47q0 31 31 57q77 62 179 62q64 0 115.5 -22t83.5 -57t53 -83t29.5 -97.5t8.5 -102.5t-6 -100t-24.5 -98.5t-47.5 -88.5t-79 -61t-116 -24q-109 0 -178 67.5t-69 174.5q0 101 64.5 164.5t175.5 63.5q65 0 118 -29
q-1 61 -34 107.5t-95 46.5q-54 0 -88 -23zM420 292q-47 36 -92 36t-69 -29t-24 -77q0 -45 23.5 -73.5t60.5 -28.5q51 0 76 47t25 112v13z" />
    <glyph glyph-name="Delta" unicode="&#x2206;" horiz-adv-x="710" 
d="M495 145l-150 358l-142 -358h292zM444 644l215 -507q16 -37 16 -62q0 -16 -5 -31t-26 -29.5t-56 -14.5h-467q-35 0 -56 14.5t-26 29.5t-5 31q0 23 16 62l204 508q29 73 95 73q65 0 95 -74z" />
    <glyph glyph-name="product" unicode="&#x220f;" horiz-adv-x="753" 
d="M149 786h456q90 0 90 -90v-836q0 -33 -14.5 -53t-30 -25.5t-31.5 -5.5t-31.5 5.5t-30 25.5t-14.5 53v793h-332v-793q0 -33 -14.5 -53t-30 -25.5t-31.5 -5.5t-31.5 5.5t-30 25.5t-14.5 53v836q0 90 90 90z" />
    <glyph glyph-name="summation" unicode="&#x2211;" horiz-adv-x="666" 
d="M441 231l-231 -312h369q42 0 58.5 -21.5t16.5 -44.5q0 -24 -16.5 -45.5t-58.5 -21.5h-482q-46 0 -63.5 23t-17.5 50q0 29 28 67l274 366l-262 354q-28 38 -28 67q0 16 5 30.5t24.5 28.5t51.5 14h458q42 0 58.5 -21.5t16.5 -44.5q0 -24 -16.5 -45.5t-58.5 -21.5h-340
l215 -298q23 -32 23 -62q0 -28 -24 -62z" />
    <glyph glyph-name="minus" unicode="&#x2212;" horiz-adv-x="666" 
d="M127 365h412q38 0 53.5 -20t15.5 -41q0 -22 -15.5 -42t-53.5 -20h-412q-38 0 -53.5 20t-15.5 42q0 21 15.5 41t53.5 20z" />
    <glyph glyph-name="uni2215" unicode="&#x2215;" horiz-adv-x="100" 
d="M259 658l-344 -647q-18 -34 -46 -34q-19 0 -33.5 13t-14.5 33q0 13 8 29l344 649q17 32 46 32q19 0 33.5 -13t14.5 -33q0 -13 -8 -29z" />
    <glyph glyph-name="uni2219" unicode="&#x2219;" 
d="M251 291q0 -41 -29.5 -69.5t-70.5 -28.5q-42 0 -72 28t-30 69t30 70t72 29q41 0 70.5 -28.5t29.5 -69.5z" />
    <glyph glyph-name="radical" unicode="&#x221a;" horiz-adv-x="569" 
d="M213 -160l-119 246q-16 -8 -31 -8q-27 0 -44.5 18t-17.5 45q0 41 45 61l42 19q26 12 45 12q42 0 65 -50l78 -167l147 717q13 63 71 63q30 0 50 -18.5t20 -47.5q0 -10 -3 -27l-182 -851q-16 -76 -82 -76q-53 0 -84 64z" />
    <glyph glyph-name="infinity" unicode="&#x221e;" horiz-adv-x="837" 
d="M792 266q0 -82 -49.5 -136.5t-133.5 -54.5q-97 0 -190 103q-47 -50 -88.5 -76t-99.5 -26q-84 0 -135 53.5t-51 135.5q0 80 49.5 133.5t132.5 53.5q59 0 103.5 -28.5t88.5 -80.5q43 51 87.5 80.5t103.5 29.5q83 0 132.5 -53.5t49.5 -133.5zM674 263q0 31 -18 51t-49 20
q-47 0 -114 -72q62 -68 117 -68q29 0 46.5 19.5t17.5 49.5zM344 262q-71 71 -117 71q-28 0 -46 -20.5t-18 -49.5q0 -31 18 -49.5t49 -18.5q51 0 114 67z" />
    <glyph glyph-name="integral" unicode="&#x222b;" horiz-adv-x="633" 
d="M371 553v-489q0 -32 -0.5 -53t-4 -53t-10 -53.5t-19 -46t-30.5 -39t-45 -24t-61 -9.5q-43 0 -83 22.5t-40 66.5q0 28 18.5 47.5t47.5 19.5q23 0 36 -15t20.5 -30t15.5 -15q7 0 9.5 10.5t2.5 42.5q0 14 -1 41.5t-1 41.5v489q0 32 0.5 53t4 53t10 53.5t19 46t30.5 39t45 24
t61 9.5q43 0 83 -22.5t40 -66.5q0 -28 -18.5 -47.5t-47.5 -19.5q-23 0 -36 15t-20.5 30t-15.5 15q-7 0 -9.5 -10.5t-2.5 -42.5q0 -14 1 -41.5t1 -41.5z" />
    <glyph glyph-name="approxequal" unicode="&#x2248;" horiz-adv-x="666" 
d="M453 409q31 0 48 30q19 34 49 34q21 0 36 -13t15 -36q0 -17 -8 -37q-40 -111 -144 -111q-41 0 -123 30q-90 34 -112 34q-32 0 -49 -30q-19 -34 -49 -34q-21 0 -36 13t-15 36q0 17 8 37q39 106 142 106q43 0 127 -32q71 -27 111 -27zM453 196q31 0 48 30q19 34 49 34
q21 0 36 -13t15 -36q0 -17 -8 -37q-40 -111 -144 -111q-41 0 -123 30q-90 34 -112 34q-32 0 -49 -30q-19 -34 -49 -34q-21 0 -36 13t-15 36q0 17 8 37q39 106 142 106q43 0 127 -32q71 -27 111 -27z" />
    <glyph glyph-name="notequal" unicode="&#x2260;" horiz-adv-x="666" 
d="M318 110l-47 -93q-22 -42 -58 -42q-26 0 -46 17.5t-20 44.5q0 17 11 39l18 34h-41q-39 0 -55 20.5t-16 42.5q0 23 15.5 43.5t55.5 20.5h106l43 84h-149q-39 0 -55 20.5t-16 42.5q0 23 15.5 43.5t55.5 20.5h214l49 95q21 41 58 41q26 0 46 -17.5t20 -44.5q0 -19 -11 -38
l-19 -36h38q40 0 55.5 -20.5t15.5 -43.5q0 -13 -4.5 -25.5t-22 -25t-44.5 -12.5h-103l-43 -84h146q40 0 55.5 -20.5t15.5 -43.5q0 -13 -4.5 -25.5t-22 -25t-44.5 -12.5h-212z" />
    <glyph glyph-name="lessequal" unicode="&#x2264;" horiz-adv-x="666" 
d="M552 533l-271 -115l271 -112q45 -18 45 -60q0 -28 -18 -45.5t-45 -17.5q-16 0 -35 8l-382 161q-48 20 -48 68q0 47 48 67l382 161q19 8 35 8q27 0 45 -17.5t18 -45.5q0 -42 -45 -60zM138 141h390q38 0 53.5 -20t15.5 -41q0 -22 -15.5 -42t-53.5 -20h-390q-38 0 -53.5 20
t-15.5 42q0 21 15.5 41t53.5 20z" />
    <glyph glyph-name="greaterequal" unicode="&#x2265;" horiz-adv-x="666" 
d="M385 418l-271 115q-45 18 -45 60q0 28 18 45.5t45 17.5q16 0 35 -8l382 -161q48 -20 48 -67q0 -48 -48 -68l-382 -161q-19 -8 -35 -8q-27 0 -45 17.5t-18 45.5q0 42 45 60zM138 141h390q38 0 53.5 -20t15.5 -41q0 -22 -15.5 -42t-53.5 -20h-390q-38 0 -53.5 20t-15.5 42
q0 21 15.5 41t53.5 20z" />
    <glyph glyph-name="lozenge" unicode="&#x25ca;" horiz-adv-x="606" 
d="M405 356l-103 241l-101 -241l101 -241zM521 302l-148 -298q-25 -49 -71 -49q-48 0 -71 49l-145 298q-14 29 -14 54t14 54l145 298q24 49 71 49q46 0 71 -49l148 -298q14 -29 14 -54t-14 -54z" />
    <glyph glyph-name="uniF8FF" unicode="&#xf8ff;" horiz-adv-x="512" 
d="M222 146v8q0 18 9 25t19 7t19 -7t9 -25v-8q0 -18 -9 -25t-19 -7t-19 7t-9 25zM50 50h412v617h-412v-617zM0 32v654q0 32 31 32h450q31 0 31 -32v-654q0 -32 -31 -32h-450q-31 0 -31 32zM223 254q0 50 12.5 78t46.5 59q31 29 39.5 47.5t8.5 41.5q0 35 -21.5 57t-52.5 22
q-61 0 -79 -75q-6 -23 -26 -23q-11 0 -18 7.5t-7 17.5q0 5 2 14q24 109 131 109q54 0 89 -34t35 -91q0 -35 -13 -63t-52 -65q-31 -30 -39 -46t-8 -56q0 -27 -24 -27t-24 27z" />
    <glyph glyph-name="grave.cap" 
d="M109 776l-68 45q-43 28 -43 63q0 23 16 39t40 16t58 -25l65 -47q41 -29 41 -61q0 -22 -15 -37t-38 -15q-22 0 -56 22z" />
    <glyph glyph-name="acute.cap" 
d="M259 821l-68 -45q-34 -22 -56 -22q-23 0 -38 15t-15 37q0 32 41 61l65 47q34 25 58 25t40 -16t16 -39q0 -35 -43 -63z" />
    <glyph glyph-name="circumflex.cap" 
d="M153 835l-80 -63q-23 -18 -42 -18q-20 0 -33.5 14t-13.5 33q0 25 25 45l81 66q34 27 61 27q28 0 61 -27l82 -66q24 -19 24 -45q0 -19 -13.5 -33t-34.5 -14q-20 0 -42 18z" />
    <glyph glyph-name="caron.cap" 
d="M149 858l80 63q23 18 42 18q20 0 33.5 -14t13.5 -33q0 -25 -25 -45l-81 -66q-31 -27 -61 -27q-28 0 -61 27l-82 66q-24 19 -24 45q0 19 13.5 33t34.5 14q20 0 42 -18z" />
    <glyph glyph-name="caron.alt" 
d="M235 612l-30 -66q-25 -58 -63 -58q-23 0 -39.5 14t-16.5 38q0 14 13 50l24 64q24 64 67 64q25 0 42 -16t17 -39q0 -18 -14 -51z" />
    <glyph glyph-name="tilde.cap" 
d="M247 878q21 29 44 29q18 0 29.5 -11t11.5 -29q0 -11 -5 -24q-31 -76 -110 -76q-39 0 -76 21q-36 20 -55 20t-33 -18q-21 -29 -44 -29q-18 0 -29.5 11t-11.5 29q0 11 5 24q31 76 110 76q39 0 76 -21q36 -20 55 -20t33 18z" />
    <glyph glyph-name="dieresis.cap" 
d="M342 850q0 -34 -24.5 -58t-58.5 -24q-35 0 -59 24t-24 58q0 33 24 57t59 24q34 0 58.5 -23.5t24.5 -57.5zM125 850q0 -34 -24.5 -58t-59.5 -24q-34 0 -58.5 24t-24.5 58q0 33 24.5 57t58.5 24q35 0 59.5 -23.5t24.5 -57.5z" />
    <glyph glyph-name="macron.cap" 
d="M28 884h244q30 0 42 -15.5t12 -32.5q0 -10 -3.5 -20t-16.5 -19t-34 -9h-244q-30 0 -42 15.5t-12 32.5q0 10 3.5 20t16.5 19t34 9z" />
    <glyph glyph-name="breve.cap" 
d="M150 852q54 0 75 33t47 33q19 0 31.5 -12.5t12.5 -30.5q0 -12 -4 -22q-35 -89 -162 -89t-162 89q-4 10 -4 22q0 18 12.5 30.5t31.5 12.5q26 0 47 -33t75 -33z" />
    <glyph glyph-name="ring.cap" 
d="M259 856q0 -46 -31.5 -76.5t-77.5 -30.5q-45 0 -77 30.5t-32 75.5q0 46 31.5 77t77.5 31q45 0 77 -31t32 -76zM209 856q0 25 -17 41.5t-42 16.5t-42 -17t-17 -42q0 -24 17 -40.5t42 -16.5t42 16.5t17 41.5z" />
    <glyph glyph-name="hungarumlaut.cap" 
d="M156 822l-56 -43q-33 -25 -57 -25q-23 0 -38 15t-15 36q0 29 39 62l54 44q33 28 57 28t40 -16t16 -39q0 -33 -40 -62zM377 822l-56 -43q-33 -25 -57 -25t-38.5 15t-14.5 36q0 29 39 62l54 44q33 28 57 28t40 -16t16 -39q0 -33 -40 -62z" />
    <glyph glyph-name="dotaccent.cap" 
d="M240 849q0 -36 -26 -60.5t-64 -24.5q-37 0 -63 25t-26 60t26 60.5t63 25.5q38 0 64 -25t26 -61z" />
    <glyph glyph-name="commaaccent" 
d="M195 -146l-36 -52q-35 -52 -68 -52q-23 0 -39 15.5t-16 37.5q0 21 23 57l36 56q31 49 66 49q24 0 40 -16t16 -39q0 -24 -22 -56z" />
    <glyph glyph-name="commaaccent.alt" 
d="M95 673l36 52q35 52 68 52q23 0 39 -15.5t16 -37.5q0 -21 -23 -57l-36 -56q-31 -49 -66 -49q-24 0 -40 16t-16 39q0 24 22 56z" />
    <glyph glyph-name="exclam.sc" horiz-adv-x="339" 
d="M266 83q0 -40 -28 -66.5t-69 -26.5q-40 0 -68 26.5t-28 65.5t28 66.5t68 27.5q41 0 69 -27t28 -66zM86 303v177q0 53 26.5 73t56.5 20t56.5 -20t26.5 -73v-177q0 -53 -26.5 -73t-56.5 -20t-56.5 20t-26.5 73z" />
    <glyph glyph-name="dollar.sc" horiz-adv-x="576" 
d="M263 362v80q-19 -3 -29.5 -13t-10.5 -23q0 -31 40 -44zM324 213v-89q43 6 43 42q0 32 -43 47zM130 23q-42 20 -42 62q0 29 19 48t47 19q17 0 54 -16q25 -10 46 -12v103q-92 24 -134 59.5t-42 108.5q0 71 55.5 117.5t127.5 51.5v23q0 16 7 25t14 11.5t14 2.5t14 -2.5
t14 -11.5t7 -25v-23q63 -3 114 -27q41 -19 41 -59q0 -28 -19 -46.5t-46 -18.5q-17 0 -46 15q-22 10 -42 13v-94q89 -22 135.5 -62t46.5 -109q0 -82 -52 -127.5t-139 -49.5v-28q0 -16 -7 -25t-14 -11.5t-14 -2.5t-14 2.5t-14 11.5t-7 25v27q-75 2 -124 25z" />
    <glyph glyph-name="percent.sc" horiz-adv-x="813" 
d="M338 424q0 -63 -47 -108t-110 -45q-64 0 -110.5 45t-46.5 108t46.5 107.5t110.5 44.5t110.5 -44.5t46.5 -107.5zM228 424q0 20 -13.5 32.5t-33.5 12.5t-33.5 -12.5t-13.5 -32.5t13.5 -32.5t33.5 -12.5t33.5 12.5t13.5 32.5zM772 138q0 -63 -47 -108t-110 -45
q-64 0 -110.5 45t-46.5 108t46.5 107.5t110.5 44.5t110.5 -44.5t46.5 -107.5zM662 138q0 20 -13.5 32.5t-33.5 12.5t-33.5 -12.5t-13.5 -32.5t13.5 -32.5t33.5 -12.5t33.5 12.5t13.5 32.5zM582 505l-287 -500q-17 -31 -46 -31q-20 0 -34.5 13t-14.5 32q0 17 10 35l284 502
q19 33 48 33q21 0 36 -13.5t15 -33.5q0 -18 -11 -37z" />
    <glyph glyph-name="ampersand.sc" horiz-adv-x="693" 
d="M572 186l-33 -33l39 -33q34 -29 34 -61q0 -28 -19.5 -48.5t-49.5 -20.5q-29 0 -53 23l-46 41q-46 -39 -89 -54.5t-99 -15.5q-96 0 -153.5 46.5t-57.5 128.5q0 52 27 89t85 69q-49 46 -49 110q0 66 52 109t138 43q83 0 132.5 -40.5t49.5 -107.5q0 -90 -99 -141l56 -48
l28 30q31 35 63 35q29 0 48.5 -19.5t19.5 -48.5t-24 -53zM265 109q48 0 77 38l-88 81q-49 -17 -49 -64q0 -25 18 -40t42 -15zM288 371q49 20 49 53q0 16 -11 26.5t-28 10.5q-16 0 -27 -10.5t-11 -26.5q0 -25 28 -53z" />
    <glyph glyph-name="zero.sc" horiz-adv-x="576" 
d="M288 -16q-117 0 -180 85.5t-63 213.5t63 212t180 84t180 -84t63 -212t-63 -213.5t-180 -85.5zM288 433q-35 0 -54.5 -41.5t-19.5 -108.5q0 -68 19 -109t55 -41t55 41t19 109t-19 109t-55 41z" />
    <glyph glyph-name="one.sc" horiz-adv-x="576" 
d="M238 375l-41 -31q-24 -19 -51 -19q-29 0 -50 20.5t-21 50.5q0 37 39 67l109 80q40 30 77 30q16 0 31.5 -4.5t33.5 -15.5t28.5 -36.5t10.5 -61.5v-372q0 -53 -26.5 -73t-56.5 -20t-56.5 20t-26.5 73v292z" />
    <glyph glyph-name="two.sc" horiz-adv-x="576" 
d="M446 0h-291q-28 0 -47.5 7.5t-28 20t-11.5 23t-3 21.5q0 41 49 84l176 154q46 41 46 81q0 20 -14 34t-36 14q-30 0 -53 -32q-32 -46 -73 -46q-31 0 -52.5 20.5t-21.5 52.5q0 52 56 95q62 50 153 50q88 0 151.5 -44.5t63.5 -128.5q0 -53 -23.5 -95.5t-78.5 -87.5l-105 -88
h143q42 0 59 -22t17 -45q0 -24 -17 -46t-59 -22z" />
    <glyph glyph-name="three.sc" horiz-adv-x="576" 
d="M272 234q-62 5 -62 56q0 11 3.5 21.5t18.5 21.5t40 12q29 1 43.5 16.5t14.5 39.5q0 21 -14 34.5t-38 13.5q-26 0 -49 -20q-37 -33 -68 -33q-30 0 -49.5 19t-19.5 48q0 33 33 64q58 52 158 52q91 0 153 -40.5t62 -118.5q0 -91 -79 -124v-3q92 -30 92 -129
q0 -59 -34.5 -101.5t-85 -60.5t-109.5 -18q-105 0 -164 48q-39 32 -39 73q0 31 21 51t52 20t68 -37q23 -23 57 -23q30 0 47.5 15t17.5 43q0 55 -70 60z" />
    <glyph glyph-name="four.sc" horiz-adv-x="576" 
d="M302 392l-123 -168h125v168h-2zM57 257l193 249q53 67 109 67q15 0 29.5 -4.5t31 -15.5t27 -36.5t10.5 -62.5v-230h16q38 0 52.5 -19t14.5 -41t-14.5 -41t-52.5 -19h-16v-27q0 -49 -24.5 -68t-51.5 -19q-28 0 -52.5 19t-24.5 68v27h-177q-54 0 -75.5 27t-21.5 56
q0 36 27 70z" />
    <glyph glyph-name="five.sc" horiz-adv-x="576" 
d="M106 314l6 159q2 46 23.5 68t66.5 22h220q40 0 55.5 -20.5t15.5 -42.5q0 -14 -4.5 -26.5t-21.5 -25t-45 -12.5h-158l-5 -71q24 6 57 6q88 0 142 -48t54 -136q0 -98 -64 -150.5t-164 -52.5q-115 0 -173 61q-27 28 -27 62q0 27 20.5 48t51.5 21q32 0 68 -36q20 -20 56 -20
q30 0 48 17.5t18 44.5q0 38 -25 56.5t-66 18.5q-21 0 -47 -4q-34 -6 -45 -6q-12 0 -23.5 3.5t-23 19.5t-10.5 44z" />
    <glyph glyph-name="six.sc" horiz-adv-x="576" 
d="M287 263q-31 0 -51 -20t-21 -53t20 -52t52 -19q30 0 51 19t21 52t-21 53t-51 20zM369 438l-73 -68l2 -2q14 5 35 5q85 0 138 -47t53 -133q0 -94 -67 -151.5t-170 -57.5q-104 0 -170.5 58t-66.5 154q0 105 86 205l109 126q40 46 80 46q31 0 53 -21t22 -51q0 -35 -31 -63z
" />
    <glyph glyph-name="seven.sc" horiz-adv-x="576" 
d="M482 387l-164 -342q-26 -55 -77 -55q-33 0 -56 22t-23 55q0 23 13 48l162 309h-188q-43 0 -60.5 22.5t-17.5 47.5q0 14 5 28t24 27.5t49 13.5h272q53 0 73.5 -24.5t20.5 -54.5q0 -29 -33 -97z" />
    <glyph glyph-name="eight.sc" horiz-adv-x="576" 
d="M288 459q-23 0 -38.5 -15t-15.5 -39t15 -39t39 -15q23 0 38.5 15t15.5 39t-15.5 39t-38.5 15zM288 233q-28 0 -46 -17.5t-18 -45.5q0 -29 18 -46t46 -17t46 17t18 46q0 28 -18.5 45.5t-45.5 17.5zM422 297v-3q96 -37 96 -132q0 -86 -65 -132t-165 -46t-165 45.5
t-65 132.5q0 46 25.5 80t70.5 52v3q-80 34 -80 117q0 78 60.5 121.5t153.5 43.5t153.5 -42.5t60.5 -119.5q0 -87 -80 -120z" />
    <glyph glyph-name="nine.sc" horiz-adv-x="576" 
d="M281 191l-2 2q-15 -4 -37 -4q-77 0 -128.5 49t-51.5 134q0 94 66.5 150.5t170.5 56.5t170 -56t66 -148q0 -110 -85 -211l-109 -128q-40 -46 -80 -46q-31 0 -53 21t-22 51q0 31 31 63zM299 304q32 0 51.5 20t19.5 52t-20 52.5t-51 20.5q-32 0 -52.5 -20.5t-20.5 -52.5
t20.5 -52t52.5 -20z" />
    <glyph glyph-name="question.sc" horiz-adv-x="500" 
d="M346 84q0 -40 -27.5 -67t-68.5 -27q-40 0 -68.5 27t-28.5 66t28.5 66.5t68.5 27.5t68 -27t28 -66zM210 426q-32 -34 -66 -34q-30 0 -49.5 19.5t-19.5 50.5q0 38 35 69q53 48 140 48q92 0 142.5 -46.5t50.5 -116.5q0 -84 -76 -136q-29 -21 -41 -33q-35 -37 -76 -37
q-27 0 -48.5 18t-21.5 49q0 44 65 82q34 20 34 48q0 13 -9 23.5t-27 10.5t-33 -15z" />
    <glyph glyph-name="a.sc" horiz-adv-x="641" 
d="M466 49l-23 53h-250l-23 -55q-25 -57 -78 -57q-31 0 -54 21t-23 55q0 22 11 45l183 378q40 84 113 84q72 0 112 -84l180 -374q11 -23 11 -47q0 -34 -24 -56t-56 -22q-54 0 -79 59zM319 394l-74 -172h147z" />
    <glyph glyph-name="b.sc" horiz-adv-x="571" 
d="M309 0h-141q-98 0 -98 98v367q0 98 98 98h144q202 0 202 -149q0 -86 -78 -116v-3q101 -21 101 -130q0 -87 -64 -126t-164 -39zM233 235v-114h65q31 0 50.5 15t19.5 45q0 54 -68 54h-67zM233 440v-100h58q26 0 43 14t17 39q0 47 -62 47h-56z" />
    <glyph glyph-name="c.sc" horiz-adv-x="578" 
d="M355 133q29 0 63 15q27 12 47 12q30 0 51.5 -20.5t21.5 -52.5q0 -47 -49 -74q-52 -29 -137 -29q-136 0 -224.5 81t-88.5 217q0 133 89.5 215t222.5 82q88 0 143 -34q43 -26 43 -69q0 -31 -21.5 -52t-52.5 -21q-20 0 -53 16q-27 13 -58 13q-59 0 -97.5 -44t-38.5 -106
q0 -63 38.5 -106t100.5 -43z" />
    <glyph glyph-name="d.sc" horiz-adv-x="655" 
d="M293 0h-125q-98 0 -98 98v367q0 98 98 98h120q67 0 123.5 -14.5t104 -45.5t74 -87t26.5 -133q0 -71 -27 -127t-72.5 -89t-102.5 -50t-121 -17zM236 432v-299h42q162 0 162 152q0 147 -159 147h-45z" />
    <glyph glyph-name="e.sc" horiz-adv-x="535" 
d="M233 346h165q38 0 53 -19.5t15 -41.5t-15 -41.5t-53 -19.5h-165v-96h189q40 0 55.5 -20.5t15.5 -43.5q0 -14 -4.5 -26.5t-21.5 -25t-45 -12.5h-254q-98 0 -98 98v367q0 98 98 98h240q40 0 55.5 -20.5t15.5 -42.5q0 -14 -4.5 -26.5t-21.5 -25t-45 -12.5h-175v-90z" />
    <glyph glyph-name="f.sc" horiz-adv-x="503" 
d="M236 332h149q38 0 53 -19.5t15 -41.5t-15 -41.5t-53 -19.5h-148v-127q0 -52 -27 -72.5t-56 -20.5q-30 0 -57 20t-27 73v382q0 98 98 98h233q40 0 55.5 -20.5t15.5 -42.5q0 -14 -4.5 -26.5t-21.5 -25t-45 -12.5h-165v-104z" />
    <glyph glyph-name="g.sc" horiz-adv-x="645" 
d="M430 418q-32 17 -69 17q-64 0 -104.5 -42t-40.5 -111q0 -71 40 -112.5t107 -41.5q44 0 71 11v76h-44q-37 0 -51.5 19t-14.5 40t14.5 40t51.5 19h102q98 0 98 -98v-125q0 -80 -76 -103t-156 -23q-141 0 -230 80.5t-89 218.5q0 133 91 214.5t228 81.5q102 0 159 -34
q44 -26 44 -69q0 -32 -21.5 -53.5t-53.5 -21.5q-23 0 -56 17z" />
    <glyph glyph-name="h.sc" horiz-adv-x="656" 
d="M237 226v-143q0 -52 -27 -72.5t-56 -20.5q-30 0 -57 20t-27 73v397q0 53 27 73t57 20q17 0 33.5 -5.5t33 -28t16.5 -59.5v-126h182v126q0 53 27 73t57 20q17 0 33.5 -5.5t33 -28t16.5 -59.5v-397q0 -52 -27 -72.5t-56 -20.5q-30 0 -57 20t-27 73v143h-182z" />
    <glyph glyph-name="i.sc" horiz-adv-x="307" 
d="M70 83v397q0 53 27 73t57 20q17 0 33.5 -5.5t33 -28t16.5 -59.5v-397q0 -52 -27 -72.5t-56 -20.5q-30 0 -57 20t-27 73z" />
    <glyph glyph-name="j.sc" horiz-adv-x="476" 
d="M49 47q-20 25 -20 55t22 52t53 22t62 -31q15 -15 33 -15q44 0 44 58v292q0 53 27 73t57 20q17 0 33.5 -5.5t33 -28t16.5 -59.5v-286q0 -91 -48 -150.5t-160 -59.5q-48 0 -89 17.5t-64 45.5z" />
    <glyph glyph-name="k.sc" horiz-adv-x="623" 
d="M445 23l-207 227h-2v-167q0 -53 -26.5 -73t-56.5 -20t-56.5 20t-26.5 73v397q0 53 26.5 73t56.5 20t56.5 -20t26.5 -73v-142h2l196 203q30 32 67 32q30 0 51 -20.5t21 -50.5q0 -35 -31 -64l-142 -137l164 -166q30 -31 30 -67q0 -32 -23 -55t-57 -23q-40 0 -69 33z" />
    <glyph glyph-name="l.sc" horiz-adv-x="471" 
d="M377 0h-209q-98 0 -98 98v382q0 53 27 73t57 20q17 0 33.5 -5.5t33 -28t16.5 -59.5v-340h140q44 0 61 -22.5t17 -47.5t-17 -47.5t-61 -22.5z" />
    <glyph glyph-name="m.sc" horiz-adv-x="809" 
d="M574 260l-82 -195q-32 -75 -91 -75t-90 75l-81 195h-3l3 -180q0 -27 -8 -46t-22 -28t-26 -12.5t-24 -3.5q-29 0 -54.5 19.5t-25.5 70.5v384q0 61 31 85t66 24q69 0 108 -94l131 -310h4l124 310q37 94 108 94q35 0 66 -24t31 -85v-383q0 -51 -26 -71t-56 -20
q-18 0 -34.5 5.5t-32 27.5t-15.5 58l2 179h-3z" />
    <glyph glyph-name="n.sc" horiz-adv-x="672" 
d="M402 57l-173 262h-3l3 -248q1 -34 -23 -57.5t-57 -23.5t-56 23.5t-23 57.5v391q0 33 10.5 57t27.5 34.5t31.5 15t27.5 4.5q59 0 103 -67l174 -263h2l-4 249q-1 34 23 57.5t57 23.5t56.5 -23.5t23.5 -57.5v-391q0 -33 -10.5 -57t-27.5 -34.5t-31.5 -15t-27.5 -4.5
q-59 0 -103 67z" />
    <glyph glyph-name="o.sc" horiz-adv-x="704" 
d="M665 283q0 -133 -91 -216t-223 -83q-131 0 -221.5 83t-90.5 216q0 132 91 214t221 82q132 0 223 -82t91 -214zM490 283q0 58 -37.5 101.5t-101.5 43.5q-63 0 -99 -43.5t-36 -101.5q0 -60 36.5 -103.5t100.5 -43.5q63 0 100 44t37 103z" />
    <glyph glyph-name="p.sc" horiz-adv-x="555" 
d="M237 436v-126h49q37 0 58.5 17.5t21.5 50.5q0 26 -19 42t-58 16h-52zM168 563h133q108 0 170 -45t62 -137q0 -97 -63.5 -146.5t-170.5 -49.5h-62v-102q0 -52 -27 -72.5t-56 -20.5q-30 0 -57 20t-27 73v382q0 98 98 98z" />
    <glyph glyph-name="q.sc" horiz-adv-x="709" 
d="M215 286q0 -67 37 -108.5t99 -41.5q64 0 100.5 41.5t36.5 108.5q0 61 -37 103t-100 42q-60 0 -98 -42t-38 -103zM632 0h-286q-140 0 -223.5 75t-83.5 213q0 129 88.5 210t223.5 81q139 0 225 -75t86 -202q0 -105 -74 -170v-4q34 2 44 2q29 0 46.5 -12.5t22 -25.5t4.5 -27
q0 -23 -16 -44t-57 -21z" />
    <glyph glyph-name="r.sc" horiz-adv-x="568" 
d="M430 231l86 -108q22 -29 22 -57q0 -32 -21.5 -54t-53.5 -22q-43 0 -72 41l-118 169h-38v-118q0 -52 -26.5 -72t-56.5 -20t-56 20t-26 72v383q0 98 98 98h137q102 0 163.5 -41.5t61.5 -132.5q0 -57 -27 -98t-73 -60zM235 436v-116h55q74 0 74 63q0 53 -73 53h-56z" />
    <glyph glyph-name="s.sc" horiz-adv-x="507" 
d="M77 24q-45 26 -45 68q0 29 20.5 50t50.5 21q24 0 55 -22q34 -24 81 -24q25 0 43 11.5t18 36.5q0 24 -23 36.5t-81 27.5q-43 11 -73.5 26t-55 50t-24.5 85q0 92 66.5 140.5t152.5 48.5q84 0 145 -36q45 -26 45 -67q0 -29 -19 -48.5t-49 -19.5q-20 0 -53 19q-32 18 -64 18
q-26 0 -45 -11.5t-19 -33.5t20 -33t75 -24q168 -39 168 -168q0 -98 -66.5 -144.5t-158.5 -46.5q-95 0 -164 40z" />
    <glyph glyph-name="t.sc" horiz-adv-x="483" 
d="M158 425h-86q-43 0 -60 22t-17 47q0 10 3 20.5t10.5 22t24 19t39.5 7.5h339q43 0 60 -22t17 -47q0 -10 -3 -20.5t-10.5 -22t-24 -19t-39.5 -7.5h-86v-342q0 -52 -27 -72.5t-56 -20.5q-30 0 -57 20t-27 73v342z" />
    <glyph glyph-name="u.sc" horiz-adv-x="646" 
d="M580 480v-262q0 -107 -69.5 -170.5t-189.5 -63.5q-118 0 -186.5 63.5t-68.5 170.5v262q0 53 27 73t57 20q17 0 33.5 -5.5t33 -28t16.5 -59.5v-251q0 -46 23.5 -72.5t65.5 -26.5q43 0 67 26.5t24 72.5v251q0 53 27 73t57 20q17 0 33.5 -5.5t33 -28t16.5 -59.5z" />
    <glyph glyph-name="v.sc" horiz-adv-x="589" 
d="M299 202l114 302q26 69 82 69q35 0 57.5 -21.5t22.5 -56.5q0 -21 -11 -48l-159 -368q-38 -89 -112 -89q-76 0 -113 89l-155 366q-10 25 -10 47q0 35 23.5 58t58.5 23q57 0 84 -72l114 -299h4z" />
    <glyph glyph-name="w.sc" horiz-adv-x="878" 
d="M542 484l78 -277h2l78 293q19 73 81 73q33 0 55.5 -20t22.5 -56q0 -20 -6 -38l-126 -381q-28 -88 -102 -88q-77 0 -104 88l-83 271h-2l-81 -271q-26 -88 -102 -88t-104 88l-123 377q-6 19 -6 38q0 34 23 57t58 23q64 0 84 -77l77 -289h3l75 277q24 89 102 89
q77 0 100 -89z" />
    <glyph glyph-name="x.sc" horiz-adv-x="610" 
d="M536 444l-130 -147l153 -171q24 -28 24 -57q0 -33 -22.5 -56t-56.5 -23q-37 0 -72 39l-131 144l-129 -146q-33 -37 -70 -37q-33 0 -54.5 22t-21.5 54q0 28 24 57l148 174l-127 143q-25 29 -25 59q0 31 22 52.5t54 21.5q35 0 70 -38l113 -124l113 124q34 37 67 37
q31 0 52.5 -21t21.5 -52q0 -30 -23 -55z" />
    <glyph glyph-name="y.sc" horiz-adv-x="566" 
d="M535 440l-170 -218v-139q0 -52 -27 -72.5t-56 -20.5q-30 0 -57 20t-27 73v139l-169 218q-20 26 -20 56q0 32 23.5 54.5t56.5 22.5q43 0 76 -46l122 -165l121 168q32 43 72 43q33 0 55 -22t22 -54q0 -28 -22 -57z" />
    <glyph glyph-name="z.sc" horiz-adv-x="569" 
d="M448 0h-314q-52 0 -71.5 24.5t-19.5 53.5q0 38 40 86l215 263h-173q-43 0 -59.5 22t-16.5 46t16.5 46t59.5 22h312q46 0 64.5 -23.5t18.5 -50.5q0 -36 -36 -80l-221 -270h185q44 0 61 -22t17 -47t-17 -47.5t-61 -22.5z" />
    <glyph glyph-name="agrave.sc" horiz-adv-x="641" 
d="M466 49l-23 53h-250l-23 -55q-25 -57 -78 -57q-31 0 -54 21t-23 55q0 22 11 45l183 378q40 84 113 84q72 0 112 -84l180 -374q11 -23 11 -47q0 -34 -24 -56t-56 -22q-54 0 -79 59zM319 394l-74 -172h147zM268 634l-68 45q-43 28 -43 63q0 23 16 39t40 16t58 -25l65 -47
q41 -29 41 -61q0 -22 -15 -37t-38 -15q-22 0 -56 22z" />
    <glyph glyph-name="aacute.sc" horiz-adv-x="641" 
d="M466 49l-23 53h-250l-23 -55q-25 -57 -78 -57q-31 0 -54 21t-23 55q0 22 11 45l183 378q40 84 113 84q72 0 112 -84l180 -374q11 -23 11 -47q0 -34 -24 -56t-56 -22q-54 0 -79 59zM319 394l-74 -172h147zM446 679l-68 -45q-34 -22 -56 -22q-23 0 -38 15t-15 37
q0 32 41 61l65 47q34 25 58 25t40 -16t16 -39q0 -35 -43 -63z" />
    <glyph glyph-name="acircumflex.sc" horiz-adv-x="641" 
d="M466 49l-23 53h-250l-23 -55q-25 -57 -78 -57q-31 0 -54 21t-23 55q0 22 11 45l183 378q40 84 113 84q72 0 112 -84l180 -374q11 -23 11 -47q0 -34 -24 -56t-56 -22q-54 0 -79 59zM319 394l-74 -172h147zM321 693l-80 -63q-23 -18 -42 -18q-20 0 -33.5 14t-13.5 33
q0 25 25 45l81 66q34 27 61 27q28 0 61 -27l82 -66q24 -19 24 -45q0 -19 -13.5 -33t-34.5 -14q-20 0 -42 18z" />
    <glyph glyph-name="atilde.sc" horiz-adv-x="641" 
d="M466 49l-23 53h-250l-23 -55q-25 -57 -78 -57q-31 0 -54 21t-23 55q0 22 11 45l183 378q40 84 113 84q72 0 112 -84l180 -374q11 -23 11 -47q0 -34 -24 -56t-56 -22q-54 0 -79 59zM319 394l-74 -172h147zM418 736q21 29 44 29q18 0 29.5 -11t11.5 -29q0 -11 -5 -24
q-31 -76 -110 -76q-38 0 -76 21q-36 20 -55 20t-33 -18q-21 -29 -44 -29q-18 0 -29.5 11t-11.5 29q0 11 5 24q31 76 110 76q38 0 76 -21q36 -20 55 -20t33 18z" />
    <glyph glyph-name="adieresis.sc" horiz-adv-x="641" 
d="M466 49l-23 53h-250l-23 -55q-25 -57 -78 -57q-31 0 -54 21t-23 55q0 22 11 45l183 378q40 84 113 84q72 0 112 -84l180 -374q11 -23 11 -47q0 -34 -24 -56t-56 -22q-54 0 -79 59zM319 394l-74 -172h147zM512 708q0 -34 -24.5 -58t-58.5 -24q-35 0 -59 24t-24 58
q0 33 24 57t59 24q34 0 58.5 -23.5t24.5 -57.5zM295 708q0 -34 -24.5 -58t-59.5 -24q-34 0 -58.5 24t-24.5 58q0 33 24.5 57t58.5 24q35 0 59.5 -23.5t24.5 -57.5z" />
    <glyph glyph-name="aring.sc" horiz-adv-x="641" 
d="M466 49l-23 53h-250l-23 -55q-25 -57 -78 -57q-31 0 -54 21t-23 55q0 22 11 45l183 378q40 84 113 84q72 0 112 -84l180 -374q11 -23 11 -47q0 -34 -24 -56t-56 -22q-54 0 -79 59zM319 394l-74 -172h147zM429 714q0 -46 -31.5 -76.5t-77.5 -30.5q-45 0 -77 30.5t-32 75.5
q0 46 31.5 77t77.5 31q45 0 77 -31t32 -76zM379 714q0 25 -17 41.5t-42 16.5t-42 -17t-17 -42q0 -24 17 -40.5t42 -16.5t42 16.5t17 41.5z" />
    <glyph glyph-name="amacron.sc" horiz-adv-x="641" 
d="M466 49l-23 53h-250l-23 -55q-25 -57 -78 -57q-31 0 -54 21t-23 55q0 22 11 45l183 378q40 84 113 84q72 0 112 -84l180 -374q11 -23 11 -47q0 -34 -24 -56t-56 -22q-54 0 -79 59zM319 394l-74 -172h147zM198 742h244q30 0 42 -15.5t12 -32.5q0 -10 -3.5 -20t-16.5 -19
t-34 -9h-244q-30 0 -42 15.5t-12 32.5q0 10 3.5 20t16.5 19t34 9z" />
    <glyph glyph-name="abreve.sc" horiz-adv-x="641" 
d="M466 49l-23 53h-250l-23 -55q-25 -57 -78 -57q-31 0 -54 21t-23 55q0 22 11 45l183 378q40 84 113 84q72 0 112 -84l180 -374q11 -23 11 -47q0 -34 -24 -56t-56 -22q-54 0 -79 59zM319 394l-74 -172h147zM320 710q54 0 75 33t47 33q19 0 31.5 -12.5t12.5 -30.5
q0 -12 -4 -22q-35 -89 -162 -89t-162 89q-4 10 -4 22q0 18 12.5 30.5t31.5 12.5q26 0 47 -33t75 -33z" />
    <glyph glyph-name="aogonek.sc" horiz-adv-x="641" 
d="M466 49l-23 53h-250l-23 -55q-25 -57 -78 -57q-31 0 -54 21t-23 55q0 22 11 45l183 378q40 84 113 84q72 0 112 -84l180 -374q11 -23 11 -47q0 -45 -43 -70q-108 -64 -108 -116q0 -16 10.5 -26t26.5 -10q13 0 31 7q9 4 19 4q15 0 24.5 -10t9.5 -25q0 -22 -24 -35
q-41 -23 -88 -23q-46 0 -79.5 23t-33.5 68q0 81 124 153q-17 16 -28 41zM319 394l-74 -172h147z" />
    <glyph glyph-name="ae.sc" horiz-adv-x="892" 
d="M427 112h-208l-47 -75q-30 -47 -75 -47q-32 0 -56 22t-24 56q0 27 17 53l261 392q33 50 91 50h379q40 0 55.5 -20.5t15.5 -42.5q0 -14 -4.5 -26.5t-21.5 -25t-45 -12.5h-175v-90h165q38 0 53 -19.5t15 -41.5t-15 -41.5t-53 -19.5h-165v-96h189q40 0 55.5 -20.5
t15.5 -43.5q0 -14 -4.5 -26.5t-21.5 -25t-45 -12.5h-254q-98 0 -98 98v14zM420 430l-125 -198h132v198h-7z" />
    <glyph glyph-name="cacute.sc" horiz-adv-x="578" 
d="M355 133q29 0 63 15q27 12 47 12q30 0 51.5 -20.5t21.5 -52.5q0 -47 -49 -74q-52 -29 -137 -29q-136 0 -224.5 81t-88.5 217q0 133 89.5 215t222.5 82q88 0 143 -34q43 -26 43 -69q0 -31 -21.5 -52t-52.5 -21q-20 0 -53 16q-27 13 -58 13q-59 0 -97.5 -44t-38.5 -106
q0 -63 38.5 -106t100.5 -43zM437 679l-68 -45q-34 -22 -56 -22q-23 0 -38 15t-15 37q0 32 41 61l65 47q34 25 58 25t40 -16t16 -39q0 -35 -43 -63z" />
    <glyph glyph-name="ccircumflex.sc" horiz-adv-x="578" 
d="M355 133q29 0 63 15q27 12 47 12q30 0 51.5 -20.5t21.5 -52.5q0 -47 -49 -74q-52 -29 -137 -29q-136 0 -224.5 81t-88.5 217q0 133 89.5 215t222.5 82q88 0 143 -34q43 -26 43 -69q0 -31 -21.5 -52t-52.5 -21q-20 0 -53 16q-27 13 -58 13q-59 0 -97.5 -44t-38.5 -106
q0 -63 38.5 -106t100.5 -43zM347 693l-80 -63q-22 -18 -42 -18t-33.5 14t-13.5 33q0 25 25 45l81 66q34 27 61 27q28 0 61 -27l82 -66q24 -19 24 -45q0 -19 -13.5 -33t-34.5 -14q-20 0 -42 18z" />
    <glyph glyph-name="ccaron.sc" horiz-adv-x="578" 
d="M355 133q29 0 63 15q27 12 47 12q30 0 51.5 -20.5t21.5 -52.5q0 -47 -49 -74q-52 -29 -137 -29q-136 0 -224.5 81t-88.5 217q0 133 89.5 215t222.5 82q88 0 143 -34q43 -26 43 -69q0 -31 -21.5 -52t-52.5 -21q-20 0 -53 16q-27 13 -58 13q-59 0 -97.5 -44t-38.5 -106
q0 -63 38.5 -106t100.5 -43zM345 716l80 63q23 18 42 18q20 0 33.5 -14t13.5 -33q0 -25 -25 -45l-81 -66q-34 -27 -61 -27q-28 0 -61 27l-82 66q-24 19 -24 45q0 19 13.5 33t34.5 14q20 0 42 -18z" />
    <glyph glyph-name="cdotaccent.sc" horiz-adv-x="578" 
d="M355 133q29 0 63 15q27 12 47 12q30 0 51.5 -20.5t21.5 -52.5q0 -47 -49 -74q-52 -29 -137 -29q-136 0 -224.5 81t-88.5 217q0 133 89.5 215t222.5 82q88 0 143 -34q43 -26 43 -69q0 -31 -21.5 -52t-52.5 -21q-20 0 -53 16q-27 13 -58 13q-59 0 -97.5 -44t-38.5 -106
q0 -63 38.5 -106t100.5 -43zM436 707q0 -36 -26 -60.5t-64 -24.5q-37 0 -63 25t-26 60t26 60.5t63 25.5q38 0 64 -25t26 -61z" />
    <glyph glyph-name="ccedilla.sc" horiz-adv-x="578" 
d="M316 -240q-44 0 -87 13q-30 9 -30 33q0 14 8.5 23.5t22.5 9.5q5 0 23 -5q27 -8 55 -8q50 0 50 32q0 28 -40 28q-10 0 -22 -2t-19 -2q-31 0 -31 26q0 11 12 27l40 53q-115 15 -187 93.5t-72 200.5q0 133 89.5 215t222.5 82q88 0 143 -34q43 -26 43 -69q0 -31 -21.5 -52
t-52.5 -21q-20 0 -53 16q-27 13 -58 13q-59 0 -97.5 -44t-38.5 -106q0 -63 38.5 -106t100.5 -43q33 0 63 15q24 12 47 12q30 0 51.5 -20.5t21.5 -52.5q0 -47 -49 -74q-43 -23 -113 -28l-34 -45q7 1 18 1q103 0 103 -83q0 -52 -44.5 -75t-102.5 -23z" />
    <glyph glyph-name="dcaron.sc" horiz-adv-x="655" 
d="M293 0h-125q-98 0 -98 98v367q0 98 98 98h120q67 0 123.5 -14.5t104 -45.5t74 -87t26.5 -133q0 -71 -27 -127t-72.5 -89t-102.5 -50t-121 -17zM236 432v-299h42q162 0 162 152q0 147 -159 147h-45zM306 716l80 63q22 18 42 18t33.5 -14t13.5 -33q0 -25 -25 -45l-81 -66
q-35 -27 -61 -27q-28 0 -61 27l-82 66q-24 19 -24 45q0 19 13.5 33t34.5 14q19 0 42 -18z" />
    <glyph glyph-name="dcroat.sc" horiz-adv-x="655" 
d="M293 0h-125q-98 0 -98 98v137h-13q-34 0 -46.5 16.5t-12.5 36.5q0 19 12.5 35.5t46.5 16.5h13v125q0 98 98 98h120q67 0 123.5 -14.5t104 -45.5t74 -87t26.5 -133q0 -71 -27 -127t-72.5 -89t-102.5 -50t-121 -17zM236 432v-92h50q34 0 46.5 -16.5t12.5 -35.5
q0 -20 -12.5 -36.5t-46.5 -16.5h-50v-102h42q162 0 162 152q0 147 -159 147h-45z" />
    <glyph glyph-name="eth.sc" horiz-adv-x="655" 
d="M293 0h-125q-98 0 -98 98v137h-13q-34 0 -46.5 16.5t-12.5 36.5q0 19 12.5 35.5t46.5 16.5h13v125q0 98 98 98h120q67 0 123.5 -14.5t104 -45.5t74 -87t26.5 -133q0 -71 -27 -127t-72.5 -89t-102.5 -50t-121 -17zM236 432v-92h50q34 0 46.5 -16.5t12.5 -35.5
q0 -20 -12.5 -36.5t-46.5 -16.5h-50v-102h42q162 0 162 152q0 147 -159 147h-45z" />
    <glyph glyph-name="egrave.sc" horiz-adv-x="535" 
d="M233 346h165q38 0 53 -19.5t15 -41.5t-15 -41.5t-53 -19.5h-165v-96h189q40 0 55.5 -20.5t15.5 -43.5q0 -14 -4.5 -26.5t-21.5 -25t-45 -12.5h-254q-98 0 -98 98v367q0 98 98 98h240q40 0 55.5 -20.5t15.5 -42.5q0 -14 -4.5 -26.5t-21.5 -25t-45 -12.5h-175v-90zM233 634
l-68 45q-43 28 -43 63q0 23 16 39t40 16t58 -25l65 -47q41 -29 41 -61q0 -22 -15 -37t-38 -15q-22 0 -56 22z" />
    <glyph glyph-name="eacute.sc" horiz-adv-x="535" 
d="M233 346h165q38 0 53 -19.5t15 -41.5t-15 -41.5t-53 -19.5h-165v-96h189q40 0 55.5 -20.5t15.5 -43.5q0 -14 -4.5 -26.5t-21.5 -25t-45 -12.5h-254q-98 0 -98 98v367q0 98 98 98h240q40 0 55.5 -20.5t15.5 -42.5q0 -14 -4.5 -26.5t-21.5 -25t-45 -12.5h-175v-90zM394 679
l-68 -45q-34 -22 -56 -22q-23 0 -38 15t-15 37q0 32 41 61l65 47q34 25 58 25t40 -16t16 -39q0 -35 -43 -63z" />
    <glyph glyph-name="ecircumflex.sc" horiz-adv-x="535" 
d="M233 346h165q38 0 53 -19.5t15 -41.5t-15 -41.5t-53 -19.5h-165v-96h189q40 0 55.5 -20.5t15.5 -43.5q0 -14 -4.5 -26.5t-21.5 -25t-45 -12.5h-254q-98 0 -98 98v367q0 98 98 98h240q40 0 55.5 -20.5t15.5 -42.5q0 -14 -4.5 -26.5t-21.5 -25t-45 -12.5h-175v-90zM279 693
l-80 -63q-22 -18 -42 -18t-33.5 14t-13.5 33q0 25 25 45l81 66q34 27 61 27q28 0 61 -27l82 -66q24 -19 24 -45q0 -19 -13.5 -33t-34.5 -14q-20 0 -42 18z" />
    <glyph glyph-name="ecaron.sc" horiz-adv-x="535" 
d="M233 346h165q38 0 53 -19.5t15 -41.5t-15 -41.5t-53 -19.5h-165v-96h189q40 0 55.5 -20.5t15.5 -43.5q0 -14 -4.5 -26.5t-21.5 -25t-45 -12.5h-254q-98 0 -98 98v367q0 98 98 98h240q40 0 55.5 -20.5t15.5 -42.5q0 -14 -4.5 -26.5t-21.5 -25t-45 -12.5h-175v-90zM278 716
l80 63q22 18 42 18t33.5 -14t13.5 -33q0 -25 -25 -45l-81 -66q-35 -27 -61 -27q-28 0 -61 27l-82 66q-24 19 -24 45q0 19 13.5 33t34.5 14q19 0 42 -18z" />
    <glyph glyph-name="edieresis.sc" horiz-adv-x="535" 
d="M233 346h165q38 0 53 -19.5t15 -41.5t-15 -41.5t-53 -19.5h-165v-96h189q40 0 55.5 -20.5t15.5 -43.5q0 -14 -4.5 -26.5t-21.5 -25t-45 -12.5h-254q-98 0 -98 98v367q0 98 98 98h240q40 0 55.5 -20.5t15.5 -42.5q0 -14 -4.5 -26.5t-21.5 -25t-45 -12.5h-175v-90zM467 708
q0 -34 -24.5 -58t-58.5 -24q-35 0 -59 24t-24 58q0 33 24 57t59 24q34 0 58.5 -23.5t24.5 -57.5zM250 708q0 -34 -24.5 -58t-59.5 -24q-34 0 -58.5 24t-24.5 58q0 33 24.5 57t58.5 24q35 0 59.5 -23.5t24.5 -57.5z" />
    <glyph glyph-name="edotaccent.sc" horiz-adv-x="535" 
d="M233 346h165q38 0 53 -19.5t15 -41.5t-15 -41.5t-53 -19.5h-165v-96h189q40 0 55.5 -20.5t15.5 -43.5q0 -14 -4.5 -26.5t-21.5 -25t-45 -12.5h-254q-98 0 -98 98v367q0 98 98 98h240q40 0 55.5 -20.5t15.5 -42.5q0 -14 -4.5 -26.5t-21.5 -25t-45 -12.5h-175v-90zM369 707
q0 -36 -26 -60.5t-64 -24.5q-37 0 -63 25t-26 60t26 60.5t63 25.5q38 0 64 -25t26 -61z" />
    <glyph glyph-name="emacron.sc" horiz-adv-x="535" 
d="M233 346h165q38 0 53 -19.5t15 -41.5t-15 -41.5t-53 -19.5h-165v-96h189q40 0 55.5 -20.5t15.5 -43.5q0 -14 -4.5 -26.5t-21.5 -25t-45 -12.5h-254q-98 0 -98 98v367q0 98 98 98h240q40 0 55.5 -20.5t15.5 -42.5q0 -14 -4.5 -26.5t-21.5 -25t-45 -12.5h-175v-90zM155 742
h244q30 0 42 -15.5t12 -32.5q0 -10 -3.5 -20t-16.5 -19t-34 -9h-244q-30 0 -42 15.5t-12 32.5q0 10 3.5 20t16.5 19t34 9z" />
    <glyph glyph-name="ebreve.sc" horiz-adv-x="535" 
d="M233 346h165q38 0 53 -19.5t15 -41.5t-15 -41.5t-53 -19.5h-165v-96h189q40 0 55.5 -20.5t15.5 -43.5q0 -14 -4.5 -26.5t-21.5 -25t-45 -12.5h-254q-98 0 -98 98v367q0 98 98 98h240q40 0 55.5 -20.5t15.5 -42.5q0 -14 -4.5 -26.5t-21.5 -25t-45 -12.5h-175v-90zM279 710
q54 0 75 33t47 33q19 0 31.5 -12.5t12.5 -30.5q0 -12 -4 -22q-35 -89 -162 -89t-162 89q-4 10 -4 22q0 18 12.5 30.5t31.5 12.5q26 0 47 -33t75 -33z" />
    <glyph glyph-name="eogonek.sc" horiz-adv-x="535" 
d="M233 346h165q38 0 53 -19.5t15 -41.5t-15 -41.5t-53 -19.5h-165v-96h189q40 0 55.5 -20.5t15.5 -43.5q0 -12 -3.5 -23.5t-16.5 -24t-34 -15.5q-74 -70 -74 -119q0 -16 10.5 -26t26.5 -10q14 0 31 7q9 4 19 4q15 0 24.5 -10t9.5 -25q0 -22 -24 -35q-41 -23 -88 -23
q-46 0 -79.5 23t-33.5 68q0 71 87 145h-180q-98 0 -98 98v367q0 98 98 98h240q40 0 55.5 -20.5t15.5 -42.5q0 -14 -4.5 -26.5t-21.5 -25t-45 -12.5h-175v-90z" />
    <glyph glyph-name="gcircumflex.sc" horiz-adv-x="645" 
d="M430 418q-32 17 -69 17q-64 0 -104.5 -42t-40.5 -111q0 -71 40 -112.5t107 -41.5q44 0 71 11v76h-44q-37 0 -51.5 19t-14.5 40t14.5 40t51.5 19h102q98 0 98 -98v-125q0 -80 -76 -103t-156 -23q-141 0 -230 80.5t-89 218.5q0 133 91 214.5t228 81.5q102 0 159 -34
q44 -26 44 -69q0 -32 -21.5 -53.5t-53.5 -21.5q-23 0 -56 17zM352 693l-80 -63q-22 -18 -42 -18t-33.5 14t-13.5 33q0 25 25 45l81 66q35 27 61 27q28 0 61 -27l82 -66q24 -19 24 -45q0 -19 -13.5 -33t-34.5 -14q-19 0 -42 18z" />
    <glyph glyph-name="gdotaccent.sc" horiz-adv-x="645" 
d="M430 418q-32 17 -69 17q-64 0 -104.5 -42t-40.5 -111q0 -71 40 -112.5t107 -41.5q44 0 71 11v76h-44q-37 0 -51.5 19t-14.5 40t14.5 40t51.5 19h102q98 0 98 -98v-125q0 -80 -76 -103t-156 -23q-141 0 -230 80.5t-89 218.5q0 133 91 214.5t228 81.5q102 0 159 -34
q44 -26 44 -69q0 -32 -21.5 -53.5t-53.5 -21.5q-23 0 -56 17zM442 707q0 -36 -26 -60.5t-64 -24.5q-37 0 -63 25t-26 60t26 60.5t63 25.5q38 0 64 -25t26 -61z" />
    <glyph glyph-name="gbreve.sc" horiz-adv-x="645" 
d="M430 418q-32 17 -69 17q-64 0 -104.5 -42t-40.5 -111q0 -71 40 -112.5t107 -41.5q44 0 71 11v76h-44q-37 0 -51.5 19t-14.5 40t14.5 40t51.5 19h102q98 0 98 -98v-125q0 -80 -76 -103t-156 -23q-141 0 -230 80.5t-89 218.5q0 133 91 214.5t228 81.5q102 0 159 -34
q44 -26 44 -69q0 -32 -21.5 -53.5t-53.5 -21.5q-23 0 -56 17zM353 710q54 0 75 33t47 33q19 0 31.5 -12.5t12.5 -30.5q0 -12 -4 -22q-35 -89 -162 -89t-162 89q-4 10 -4 22q0 18 12.5 30.5t31.5 12.5q26 0 47 -33t75 -33z" />
    <glyph glyph-name="gcommaaccent.sc" horiz-adv-x="645" 
d="M430 418q-32 17 -69 17q-64 0 -104.5 -42t-40.5 -111q0 -71 40 -112.5t107 -41.5q44 0 71 11v76h-44q-37 0 -51.5 19t-14.5 40t14.5 40t51.5 19h102q98 0 98 -98v-125q0 -80 -76 -103t-156 -23q-141 0 -230 80.5t-89 218.5q0 133 91 214.5t228 81.5q102 0 159 -34
q44 -26 44 -69q0 -32 -21.5 -53.5t-53.5 -21.5q-23 0 -56 17zM378 -146l-36 -52q-35 -52 -68 -52q-23 0 -39 15.5t-16 37.5q0 21 23 57l36 56q31 49 66 49q24 0 40 -16t16 -39q0 -24 -22 -56z" />
    <glyph glyph-name="hcircumflex.sc" horiz-adv-x="656" 
d="M237 226v-143q0 -52 -27 -72.5t-56 -20.5q-30 0 -57 20t-27 73v397q0 53 27 73t57 20q17 0 33.5 -5.5t33 -28t16.5 -59.5v-126h182v126q0 53 27 73t57 20q17 0 33.5 -5.5t33 -28t16.5 -59.5v-397q0 -52 -27 -72.5t-56 -20.5q-30 0 -57 20t-27 73v143h-182zM333 693
l-80 -63q-23 -18 -42 -18q-20 0 -33.5 14t-13.5 33q0 25 25 45l81 66q35 27 61 27q28 0 61 -27l82 -66q24 -19 24 -45q0 -19 -13.5 -33t-34.5 -14q-20 0 -42 18z" />
    <glyph glyph-name="hbar.sc" horiz-adv-x="656" 
d="M237 216v-133q0 -52 -27 -72.5t-56 -20.5q-30 0 -57 20t-27 73v397q0 53 27 73t57 20q28 0 54 -18.5t29 -66.5h182q2 48 28.5 66.5t55.5 18.5q17 0 33.5 -5.5t33 -28t16.5 -59.5v-397q0 -52 -27 -72.5t-56 -20.5q-30 0 -57 20t-27 73v133h-182zM237 344h182v66h-182v-66z
" />
    <glyph glyph-name="igrave.sc" horiz-adv-x="307" 
d="M70 83v397q0 53 27 73t57 20q17 0 33.5 -5.5t33 -28t16.5 -59.5v-397q0 -52 -27 -72.5t-56 -20.5q-30 0 -57 20t-27 73zM95 634l-68 45q-43 28 -43 63q0 23 16 39t40 16t58 -25l65 -47q41 -29 41 -61q0 -22 -15 -37t-38 -15q-22 0 -56 22z" />
    <glyph glyph-name="iacute.sc" horiz-adv-x="307" 
d="M70 83v397q0 53 27 73t57 20q17 0 33.5 -5.5t33 -28t16.5 -59.5v-397q0 -52 -27 -72.5t-56 -20.5q-30 0 -57 20t-27 73zM278 679l-68 -45q-34 -22 -56 -22q-23 0 -38 15t-15 37q0 32 41 61l65 47q34 25 58 25t40 -16t16 -39q0 -35 -43 -63z" />
    <glyph glyph-name="icircumflex.sc" horiz-adv-x="307" 
d="M70 83v397q0 53 27 73t57 20q17 0 33.5 -5.5t33 -28t16.5 -59.5v-397q0 -52 -27 -72.5t-56 -20.5q-30 0 -57 20t-27 73zM157 693l-80 -63q-22 -18 -42 -18t-33.5 14t-13.5 33q0 25 25 45l81 66q35 27 61 27q28 0 61 -27l82 -66q24 -19 24 -45q0 -19 -13.5 -33t-34.5 -14
q-19 0 -42 18z" />
    <glyph glyph-name="itilde.sc" horiz-adv-x="307" 
d="M70 83v397q0 53 27 73t57 20q17 0 33.5 -5.5t33 -28t16.5 -59.5v-397q0 -52 -27 -72.5t-56 -20.5q-30 0 -57 20t-27 73zM252 736q21 29 44 29q18 0 29.5 -11t11.5 -29q0 -11 -5 -24q-31 -76 -110 -76q-38 0 -76 21q-36 20 -55 20t-33 -18q-21 -29 -44 -29q-18 0 -29.5 11
t-11.5 29q0 11 5 24q31 76 110 76q38 0 76 -21q36 -20 55 -20t33 18z" />
    <glyph glyph-name="idieresis.sc" horiz-adv-x="307" 
d="M70 83v397q0 53 27 73t57 20q17 0 33.5 -5.5t33 -28t16.5 -59.5v-397q0 -52 -27 -72.5t-56 -20.5q-30 0 -57 20t-27 73zM346 708q0 -34 -24.5 -58t-58.5 -24q-35 0 -59 24t-24 58q0 33 24 57t59 24q34 0 58.5 -23.5t24.5 -57.5zM129 708q0 -34 -24.5 -58t-59.5 -24
q-34 0 -58.5 24t-24.5 58q0 33 24.5 57t58.5 24q35 0 59.5 -23.5t24.5 -57.5z" />
    <glyph glyph-name="imacron.sc" horiz-adv-x="307" 
d="M70 83v397q0 53 27 73t57 20q17 0 33.5 -5.5t33 -28t16.5 -59.5v-397q0 -52 -27 -72.5t-56 -20.5q-30 0 -57 20t-27 73zM32 742h244q30 0 42 -15.5t12 -32.5q0 -10 -3.5 -20t-16.5 -19t-34 -9h-244q-30 0 -42 15.5t-12 32.5q0 10 3.5 20t16.5 19t34 9z" />
    <glyph glyph-name="idotaccent.sc" horiz-adv-x="307" 
d="M70 83v397q0 53 27 73t57 20q17 0 33.5 -5.5t33 -28t16.5 -59.5v-397q0 -52 -27 -72.5t-56 -20.5q-30 0 -57 20t-27 73zM240 707q0 -36 -26 -60.5t-64 -24.5q-37 0 -63 25t-26 60t26 60.5t63 25.5q38 0 64 -25t26 -61z" />
    <glyph glyph-name="iogonek.sc" horiz-adv-x="307" 
d="M70 83v397q0 53 27 73t57 20q17 0 33.5 -5.5t33 -28t16.5 -59.5v-397q0 -42 -24 -70q-42 -48 -56.5 -76t-14.5 -55q0 -16 10 -26t26 -10q14 0 31 7q9 4 19 4q15 0 24.5 -10t9.5 -25q0 -22 -24 -35q-41 -23 -88 -23q-46 0 -79 22.5t-33 67.5q0 64 80 143q-48 20 -48 86z
" />
    <glyph glyph-name="jcircumflex.sc" horiz-adv-x="476" 
d="M49 47q-20 25 -20 55t22 52t53 22t62 -31q15 -15 33 -15q44 0 44 58v292q0 53 27 73t57 20q17 0 33.5 -5.5t33 -28t16.5 -59.5v-286q0 -91 -48 -150.5t-160 -59.5q-48 0 -89 17.5t-64 45.5zM329 693l-80 -63q-22 -18 -42 -18t-33.5 14t-13.5 33q0 25 25 45l81 66
q34 27 61 27q28 0 61 -27l82 -66q24 -19 24 -45q0 -19 -13.5 -33t-34.5 -14q-19 0 -42 18z" />
    <glyph glyph-name="kcommaaccent.sc" horiz-adv-x="623" 
d="M445 23l-207 227h-2v-167q0 -53 -26.5 -73t-56.5 -20t-56.5 20t-26.5 73v397q0 53 26.5 73t56.5 20t56.5 -20t26.5 -73v-142h2l196 203q30 32 67 32q30 0 51 -20.5t21 -50.5q0 -35 -31 -64l-142 -137l164 -166q30 -31 30 -67q0 -32 -23 -55t-57 -23q-40 0 -69 33z
M361 -146l-36 -52q-35 -52 -68 -52q-23 0 -39 15.5t-16 37.5q0 21 23 57l36 56q31 49 66 49q24 0 40 -16t16 -39q0 -24 -22 -56z" />
    <glyph glyph-name="lacute.sc" horiz-adv-x="471" 
d="M377 0h-209q-98 0 -98 98v382q0 53 27 73t57 20q17 0 33.5 -5.5t33 -28t16.5 -59.5v-340h140q44 0 61 -22.5t17 -47.5t-17 -47.5t-61 -22.5zM284 679l-68 -45q-34 -22 -56 -22q-23 0 -38 15t-15 37q0 32 41 61l65 47q34 25 58 25t40 -16t16 -39q0 -35 -43 -63z" />
    <glyph glyph-name="lcaron.sc" horiz-adv-x="471" 
d="M377 0h-209q-98 0 -98 98v382q0 53 27 73t57 20q17 0 33.5 -5.5t33 -28t16.5 -59.5v-340h140q44 0 61 -22.5t17 -47.5t-17 -47.5t-61 -22.5zM438 467l-30 -66q-25 -58 -63 -58q-23 0 -39.5 14t-16.5 38q0 14 13 50l24 64q24 64 67 64q25 0 42 -16t17 -39q0 -18 -14 -51z
" />
    <glyph glyph-name="lcommaaccent.sc" horiz-adv-x="471" 
d="M377 0h-209q-98 0 -98 98v382q0 53 27 73t57 20q17 0 33.5 -5.5t33 -28t16.5 -59.5v-340h140q44 0 61 -22.5t17 -47.5t-17 -47.5t-61 -22.5zM288 -146l-36 -52q-35 -52 -68 -52q-23 0 -39 15.5t-16 37.5q0 21 23 57l36 56q31 49 66 49q24 0 40 -16t16 -39q0 -24 -22 -56z
" />
    <glyph glyph-name="ldot.sc" horiz-adv-x="471" 
d="M377 0h-209q-98 0 -98 98v382q0 53 27 73t57 20q17 0 33.5 -5.5t33 -28t16.5 -59.5v-340h140q44 0 61 -22.5t17 -47.5t-17 -47.5t-61 -22.5zM470 347q0 -36 -26 -60.5t-64 -24.5q-37 0 -63 25t-26 60t26 60.5t63 25.5q38 0 64 -25t26 -61z" />
    <glyph glyph-name="lslash.sc" horiz-adv-x="471" 
d="M19 273l51 39v168q0 53 27 73t57 20q17 0 33.5 -5.5t33 -28t16.5 -59.5v-38q3 2 10 8t13 10q20 15 40 15q23 0 38.5 -16t15.5 -39q0 -28 -27 -49l-90 -70v-161h140q44 0 61 -22.5t17 -47.5t-17 -47.5t-61 -22.5h-209q-98 0 -98 98v76q-12 -5 -24 -5q-23 0 -38.5 16
t-15.5 39q0 28 27 49z" />
    <glyph glyph-name="nacute.sc" horiz-adv-x="672" 
d="M402 57l-173 262h-3l3 -248q1 -34 -23 -57.5t-57 -23.5t-56 23.5t-23 57.5v391q0 33 10.5 57t27.5 34.5t31.5 15t27.5 4.5q59 0 103 -67l174 -263h2l-4 249q-1 34 23 57.5t57 23.5t56.5 -23.5t23.5 -57.5v-391q0 -33 -10.5 -57t-27.5 -34.5t-31.5 -15t-27.5 -4.5
q-59 0 -103 67zM449 679l-68 -45q-34 -22 -56 -22q-23 0 -38 15t-15 37q0 32 41 61l65 47q34 25 58 25t40 -16t16 -39q0 -35 -43 -63z" />
    <glyph glyph-name="ncaron.sc" horiz-adv-x="672" 
d="M402 57l-173 262h-3l3 -248q1 -34 -23 -57.5t-57 -23.5t-56 23.5t-23 57.5v391q0 33 10.5 57t27.5 34.5t31.5 15t27.5 4.5q59 0 103 -67l174 -263h2l-4 249q-1 34 23 57.5t57 23.5t56.5 -23.5t23.5 -57.5v-391q0 -33 -10.5 -57t-27.5 -34.5t-31.5 -15t-27.5 -4.5
q-59 0 -103 67zM334 716l80 63q23 18 42 18q20 0 33.5 -14t13.5 -33q0 -25 -25 -45l-81 -66q-35 -27 -61 -27q-28 0 -61 27l-82 66q-24 19 -24 45q0 19 13.5 33t34.5 14q19 0 42 -18z" />
    <glyph glyph-name="ntilde.sc" horiz-adv-x="672" 
d="M402 57l-173 262h-3l3 -248q1 -34 -23 -57.5t-57 -23.5t-56 23.5t-23 57.5v391q0 33 10.5 57t27.5 34.5t31.5 15t27.5 4.5q59 0 103 -67l174 -263h2l-4 249q-1 34 23 57.5t57 23.5t56.5 -23.5t23.5 -57.5v-391q0 -33 -10.5 -57t-27.5 -34.5t-31.5 -15t-27.5 -4.5
q-59 0 -103 67zM433 736q21 29 44 29q18 0 29.5 -11t11.5 -29q0 -11 -5 -24q-31 -76 -110 -76q-39 0 -76 21q-36 20 -55 20t-33 -18q-21 -29 -44 -29q-18 0 -29.5 11t-11.5 29q0 11 5 24q31 76 110 76q39 0 76 -21q36 -20 55 -20t33 18z" />
    <glyph glyph-name="ncommaaccent.sc" horiz-adv-x="672" 
d="M402 57l-173 262h-3l3 -248q1 -34 -23 -57.5t-57 -23.5t-56 23.5t-23 57.5v391q0 33 10.5 57t27.5 34.5t31.5 15t27.5 4.5q59 0 103 -67l174 -263h2l-4 249q-1 34 23 57.5t57 23.5t56.5 -23.5t23.5 -57.5v-391q0 -33 -10.5 -57t-27.5 -34.5t-31.5 -15t-27.5 -4.5
q-59 0 -103 67zM372 -146l-36 -52q-35 -52 -68 -52q-23 0 -39 15.5t-16 37.5q0 21 23 57l36 56q31 49 66 49q24 0 40 -16t16 -39q0 -24 -22 -56z" />
    <glyph glyph-name="ograve.sc" horiz-adv-x="704" 
d="M665 283q0 -133 -91 -216t-223 -83q-131 0 -221.5 83t-90.5 216q0 132 91 214t221 82q132 0 223 -82t91 -214zM490 283q0 58 -37.5 101.5t-101.5 43.5q-63 0 -99 -43.5t-36 -101.5q0 -60 36.5 -103.5t100.5 -43.5q63 0 100 44t37 103zM298 634l-68 45q-43 28 -43 63
q0 23 16 39t40 16t58 -25l65 -47q41 -29 41 -61q0 -22 -15 -37t-38 -15q-22 0 -56 22z" />
    <glyph glyph-name="oacute.sc" horiz-adv-x="704" 
d="M665 283q0 -133 -91 -216t-223 -83q-131 0 -221.5 83t-90.5 216q0 132 91 214t221 82q132 0 223 -82t91 -214zM490 283q0 58 -37.5 101.5t-101.5 43.5q-63 0 -99 -43.5t-36 -101.5q0 -60 36.5 -103.5t100.5 -43.5q63 0 100 44t37 103zM470 679l-68 -45q-34 -22 -56 -22
q-23 0 -38 15t-15 37q0 32 41 61l65 47q34 25 58 25t40 -16t16 -39q0 -35 -43 -63z" />
    <glyph glyph-name="ocircumflex.sc" horiz-adv-x="704" 
d="M665 283q0 -133 -91 -216t-223 -83q-131 0 -221.5 83t-90.5 216q0 132 91 214t221 82q132 0 223 -82t91 -214zM490 283q0 58 -37.5 101.5t-101.5 43.5q-63 0 -99 -43.5t-36 -101.5q0 -60 36.5 -103.5t100.5 -43.5q63 0 100 44t37 103zM354 693l-80 -63q-22 -18 -42 -18
t-33.5 14t-13.5 33q0 25 25 45l81 66q35 27 61 27q28 0 61 -27l82 -66q24 -19 24 -45q0 -19 -13.5 -33t-34.5 -14q-19 0 -42 18z" />
    <glyph glyph-name="otilde.sc" horiz-adv-x="704" 
d="M665 283q0 -133 -91 -216t-223 -83q-131 0 -221.5 83t-90.5 216q0 132 91 214t221 82q132 0 223 -82t91 -214zM490 283q0 58 -37.5 101.5t-101.5 43.5q-63 0 -99 -43.5t-36 -101.5q0 -60 36.5 -103.5t100.5 -43.5q63 0 100 44t37 103zM450 736q21 29 44 29q18 0 29.5 -11
t11.5 -29q0 -11 -5 -24q-31 -76 -110 -76q-38 0 -76 21q-36 20 -55 20t-33 -18q-21 -29 -44 -29q-18 0 -29.5 11t-11.5 29q0 11 5 24q31 76 110 76q38 0 76 -21q36 -20 55 -20t33 18z" />
    <glyph glyph-name="odieresis.sc" horiz-adv-x="704" 
d="M665 283q0 -133 -91 -216t-223 -83q-131 0 -221.5 83t-90.5 216q0 132 91 214t221 82q132 0 223 -82t91 -214zM490 283q0 58 -37.5 101.5t-101.5 43.5q-63 0 -99 -43.5t-36 -101.5q0 -60 36.5 -103.5t100.5 -43.5q63 0 100 44t37 103zM544 708q0 -34 -24.5 -58t-58.5 -24
q-35 0 -59 24t-24 58q0 33 24 57t59 24q34 0 58.5 -23.5t24.5 -57.5zM327 708q0 -34 -24.5 -58t-59.5 -24q-34 0 -58.5 24t-24.5 58q0 33 24.5 57t58.5 24q35 0 59.5 -23.5t24.5 -57.5z" />
    <glyph glyph-name="omacron.sc" horiz-adv-x="704" 
d="M665 283q0 -133 -91 -216t-223 -83q-131 0 -221.5 83t-90.5 216q0 132 91 214t221 82q132 0 223 -82t91 -214zM490 283q0 58 -37.5 101.5t-101.5 43.5q-63 0 -99 -43.5t-36 -101.5q0 -60 36.5 -103.5t100.5 -43.5q63 0 100 44t37 103zM230 742h244q30 0 42 -15.5
t12 -32.5q0 -10 -3.5 -20t-16.5 -19t-34 -9h-244q-30 0 -42 15.5t-12 32.5q0 10 3.5 20t16.5 19t34 9z" />
    <glyph glyph-name="obreve.sc" horiz-adv-x="704" 
d="M665 283q0 -133 -91 -216t-223 -83q-131 0 -221.5 83t-90.5 216q0 132 91 214t221 82q132 0 223 -82t91 -214zM490 283q0 58 -37.5 101.5t-101.5 43.5q-63 0 -99 -43.5t-36 -101.5q0 -60 36.5 -103.5t100.5 -43.5q63 0 100 44t37 103zM352 710q54 0 75 33t47 33
q19 0 31.5 -12.5t12.5 -30.5q0 -12 -4 -22q-35 -89 -162 -89t-162 89q-4 10 -4 22q0 18 12.5 30.5t31.5 12.5q26 0 47 -33t75 -33z" />
    <glyph glyph-name="ohungarumlaut.sc" horiz-adv-x="704" 
d="M665 283q0 -133 -91 -216t-223 -83q-131 0 -221.5 83t-90.5 216q0 132 91 214t221 82q132 0 223 -82t91 -214zM490 283q0 58 -37.5 101.5t-101.5 43.5q-63 0 -99 -43.5t-36 -101.5q0 -60 36.5 -103.5t100.5 -43.5q63 0 100 44t37 103zM381 680l-60 -43q-36 -25 -57 -25
q-24 0 -39 15t-15 37q0 30 39 61l57 45q34 27 58 27t40.5 -16.5t16.5 -39.5q0 -32 -40 -61zM602 680l-60 -43q-36 -25 -57 -25q-23 0 -38.5 15t-15.5 37q0 30 39 61l57 45q34 27 58 27t40.5 -16.5t16.5 -39.5q0 -32 -40 -61z" />
    <glyph glyph-name="oslash.sc" horiz-adv-x="704" 
d="M213 284q0 -47 13 -73l198 205q-30 19 -71 19q-61 0 -100.5 -42.5t-39.5 -108.5zM493 284q0 40 -13 69l-197 -205q28 -17 70 -17q61 0 100.5 42t39.5 111zM174 35l-48 -50q-14 -14 -32 -14q-17 0 -29 11.5t-12 29.5q0 16 16 33l41 43q-71 76 -71 195q0 132 91 214t221 82
q104 0 177 -50l43 44q14 14 32 14q17 0 29 -11.5t12 -29.5q0 -17 -16 -34l-35 -36q72 -74 72 -193q0 -133 -91 -216t-223 -83q-103 0 -177 51z" />
    <glyph glyph-name="oe.sc" horiz-adv-x="852" 
d="M220 283q0 -68 38.5 -104t101.5 -36h27v279h-27q-62 0 -101 -37t-39 -102zM739 0h-379q-139 0 -227.5 76t-88.5 207q0 132 88 206t228 74h365q40 0 55.5 -20.5t15.5 -42.5q0 -14 -4.5 -26.5t-21.5 -25t-45 -12.5h-175v-90h165q38 0 53 -19.5t15 -41.5t-15 -41.5
t-53 -19.5h-165v-96h189q40 0 55.5 -20.5t15.5 -43.5q0 -14 -4.5 -26.5t-21.5 -25t-45 -12.5z" />
    <glyph glyph-name="racute.sc" horiz-adv-x="568" 
d="M430 231l86 -108q22 -29 22 -57q0 -32 -21.5 -54t-53.5 -22q-43 0 -72 41l-118 169h-38v-118q0 -52 -26.5 -72t-56.5 -20t-56 20t-26 72v383q0 98 98 98h137q102 0 163.5 -41.5t61.5 -132.5q0 -57 -27 -98t-73 -60zM235 436v-116h55q74 0 74 63q0 53 -73 53h-56zM384 679
l-68 -45q-34 -22 -56 -22q-23 0 -38 15t-15 37q0 32 41 61l65 47q34 25 58 25t40 -16t16 -39q0 -35 -43 -63z" />
    <glyph glyph-name="rcaron.sc" horiz-adv-x="568" 
d="M430 231l86 -108q22 -29 22 -57q0 -32 -21.5 -54t-53.5 -22q-43 0 -72 41l-118 169h-38v-118q0 -52 -26.5 -72t-56.5 -20t-56 20t-26 72v383q0 98 98 98h137q102 0 163.5 -41.5t61.5 -132.5q0 -57 -27 -98t-73 -60zM235 436v-116h55q74 0 74 63q0 53 -73 53h-56zM289 716
l80 63q22 18 42 18t33.5 -14t13.5 -33q0 -25 -25 -45l-81 -66q-34 -27 -61 -27q-28 0 -61 27l-82 66q-24 19 -24 45q0 19 13.5 33t34.5 14q20 0 42 -18z" />
    <glyph glyph-name="rcommaaccent.sc" horiz-adv-x="568" 
d="M430 231l86 -108q22 -29 22 -57q0 -32 -21.5 -54t-53.5 -22q-43 0 -72 41l-118 169h-38v-118q0 -52 -26.5 -72t-56.5 -20t-56 20t-26 72v383q0 98 98 98h137q102 0 163.5 -41.5t61.5 -132.5q0 -57 -27 -98t-73 -60zM235 436v-116h55q74 0 74 63q0 53 -73 53h-56z
M341 -146l-36 -52q-35 -52 -68 -52q-23 0 -39 15.5t-16 37.5q0 21 23 57l36 56q31 49 66 49q24 0 40 -16t16 -39q0 -24 -22 -56z" />
    <glyph glyph-name="sacute.sc" horiz-adv-x="507" 
d="M77 24q-45 26 -45 68q0 29 20.5 50t50.5 21q24 0 55 -22q34 -24 81 -24q25 0 43 11.5t18 36.5q0 24 -23 36.5t-81 27.5q-43 11 -73.5 26t-55 50t-24.5 85q0 92 66.5 140.5t152.5 48.5q84 0 145 -36q45 -26 45 -67q0 -29 -19 -48.5t-49 -19.5q-20 0 -53 19q-32 18 -64 18
q-26 0 -45 -11.5t-19 -33.5t20 -33t75 -24q168 -39 168 -168q0 -98 -66.5 -144.5t-158.5 -46.5q-95 0 -164 40zM365 679l-68 -45q-34 -22 -56 -22q-23 0 -38 15t-15 37q0 32 41 61l65 47q34 25 58 25t40 -16t16 -39q0 -35 -43 -63z" />
    <glyph glyph-name="scircumflex.sc" horiz-adv-x="507" 
d="M77 24q-45 26 -45 68q0 29 20.5 50t50.5 21q24 0 55 -22q34 -24 81 -24q25 0 43 11.5t18 36.5q0 24 -23 36.5t-81 27.5q-43 11 -73.5 26t-55 50t-24.5 85q0 92 66.5 140.5t152.5 48.5q84 0 145 -36q45 -26 45 -67q0 -29 -19 -48.5t-49 -19.5q-20 0 -53 19q-32 18 -64 18
q-26 0 -45 -11.5t-19 -33.5t20 -33t75 -24q168 -39 168 -168q0 -98 -66.5 -144.5t-158.5 -46.5q-95 0 -164 40zM263 693l-80 -63q-23 -18 -42 -18q-20 0 -33.5 14t-13.5 33q0 25 25 45l81 66q34 27 61 27q28 0 61 -27l82 -66q24 -19 24 -45q0 -19 -13.5 -33t-34.5 -14
q-20 0 -42 18z" />
    <glyph glyph-name="scaron.sc" horiz-adv-x="507" 
d="M77 24q-45 26 -45 68q0 29 20.5 50t50.5 21q24 0 55 -22q34 -24 81 -24q25 0 43 11.5t18 36.5q0 24 -23 36.5t-81 27.5q-43 11 -73.5 26t-55 50t-24.5 85q0 92 66.5 140.5t152.5 48.5q84 0 145 -36q45 -26 45 -67q0 -29 -19 -48.5t-49 -19.5q-20 0 -53 19q-32 18 -64 18
q-26 0 -45 -11.5t-19 -33.5t20 -33t75 -24q168 -39 168 -168q0 -98 -66.5 -144.5t-158.5 -46.5q-95 0 -164 40zM260 716l80 63q22 18 42 18t33.5 -14t13.5 -33q0 -25 -25 -45l-81 -66q-35 -27 -61 -27q-28 0 -61 27l-82 66q-24 19 -24 45q0 19 13.5 33t34.5 14q19 0 42 -18z
" />
    <glyph glyph-name="scedilla.sc" horiz-adv-x="507" 
d="M220 -240q-44 0 -87 13q-30 9 -30 33q0 14 8.5 23.5t22.5 9.5q6 0 23 -5q27 -8 55 -8q50 0 50 32q0 28 -40 28q-10 0 -22 -2t-19 -2q-31 0 -31 26q0 11 12 27l38 51q-74 8 -123 38q-45 26 -45 68q0 29 20.5 50t50.5 21q24 0 55 -22q34 -24 81 -24q25 0 43 11.5t18 36.5
q0 24 -23 36.5t-81 27.5q-43 11 -73.5 26t-55 50t-24.5 85q0 92 66.5 140.5t152.5 48.5q84 0 145 -36q45 -26 45 -67q0 -29 -19 -48.5t-49 -19.5q-20 0 -53 19q-32 18 -64 18q-26 0 -45 -11.5t-19 -33.5t20 -33t75 -24q168 -39 168 -168q0 -86 -52.5 -132.5t-131.5 -55.5
l-36 -47q7 1 18 1q103 0 103 -83q0 -52 -44.5 -75t-102.5 -23z" />
    <glyph glyph-name="scommaaccent.sc" horiz-adv-x="507" 
d="M77 24q-45 26 -45 68q0 29 20.5 50t50.5 21q24 0 55 -22q34 -24 81 -24q25 0 43 11.5t18 36.5q0 24 -23 36.5t-81 27.5q-43 11 -73.5 26t-55 50t-24.5 85q0 92 66.5 140.5t152.5 48.5q84 0 145 -36q45 -26 45 -67q0 -29 -19 -48.5t-49 -19.5q-20 0 -53 19q-32 18 -64 18
q-26 0 -45 -11.5t-19 -33.5t20 -33t75 -24q168 -39 168 -168q0 -98 -66.5 -144.5t-158.5 -46.5q-95 0 -164 40zM296 -146l-36 -52q-35 -52 -68 -52q-23 0 -39 15.5t-16 37.5q0 21 23 57l36 56q31 49 66 49q24 0 40 -16t16 -39q0 -24 -22 -56z" />
    <glyph glyph-name="germandbls.sc" horiz-adv-x="1013" 
d="M77 24q-45 26 -45 68q0 29 20.5 50t50.5 21q24 0 55 -22q34 -24 81 -24q25 0 43 11.5t18 36.5q0 24 -23 36.5t-81 27.5q-43 11 -73.5 26t-55 50t-24.5 85q0 92 66.5 140.5t152.5 48.5q84 0 145 -36q45 -26 45 -67q0 -29 -19 -48.5t-49 -19.5q-20 0 -53 19q-32 18 -64 18
q-26 0 -45 -11.5t-19 -33.5t20 -33t75 -24q168 -39 168 -168q0 -98 -66.5 -144.5t-158.5 -46.5q-95 0 -164 40zM583 24q-45 26 -45 68q0 29 20.5 50t50.5 21q24 0 55 -22q34 -24 81 -24q25 0 43 11.5t18 36.5q0 24 -23 36.5t-81 27.5q-43 11 -73.5 26t-55 50t-24.5 85
q0 92 66.5 140.5t152.5 48.5q84 0 145 -36q45 -26 45 -67q0 -29 -19 -48.5t-49 -19.5q-20 0 -53 19q-32 18 -64 18q-26 0 -45 -11.5t-19 -33.5t20 -33t75 -24q168 -39 168 -168q0 -98 -66.5 -144.5t-158.5 -46.5q-95 0 -164 40z" />
    <glyph glyph-name="tcaron.sc" horiz-adv-x="483" 
d="M158 425h-86q-43 0 -60 22t-17 47q0 10 3 20.5t10.5 22t24 19t39.5 7.5h339q43 0 60 -22t17 -47q0 -10 -3 -20.5t-10.5 -22t-24 -19t-39.5 -7.5h-86v-342q0 -52 -27 -72.5t-56 -20.5q-30 0 -57 20t-27 73v342zM241 716l80 63q22 18 42 18t33.5 -14t13.5 -33
q0 -25 -25 -45l-81 -66q-34 -27 -61 -27q-28 0 -61 27l-82 66q-24 19 -24 45q0 19 13.5 33t34.5 14q20 0 42 -18z" />
    <glyph glyph-name="tcommaaccent.sc" horiz-adv-x="483" 
d="M158 425h-86q-43 0 -60 22t-17 47q0 10 3 20.5t10.5 22t24 19t39.5 7.5h339q43 0 60 -22t17 -47q0 -10 -3 -20.5t-10.5 -22t-24 -19t-39.5 -7.5h-86v-342q0 -52 -27 -72.5t-56 -20.5q-30 0 -57 20t-27 73v342zM275 -146l-36 -52q-35 -52 -68 -52q-23 0 -39 15.5t-16 37.5
q0 21 23 57l36 56q31 49 66 49q24 0 40 -16t16 -39q0 -24 -22 -56z" />
    <glyph glyph-name="tbar.sc" horiz-adv-x="483" 
d="M158 425h-86q-43 0 -60 22t-17 47q0 10 3 20.5t10.5 22t24 19t39.5 7.5h339q43 0 60 -22t17 -47q0 -10 -3 -20.5t-10.5 -22t-24 -19t-39.5 -7.5h-86v-75h65q27 0 37.5 -14t10.5 -29t-10.5 -29t-37.5 -14h-65v-181q0 -52 -27 -72.5t-56 -20.5q-30 0 -57 20t-27 73v181h-65
q-27 0 -37.5 14t-10.5 29t10.5 29t37.5 14h65v75z" />
    <glyph glyph-name="thorn.sc" horiz-adv-x="556" 
d="M237 248h51q78 0 78 59q0 57 -76 57h-53v-116zM70 83v397q0 53 27 73t57 20q28 0 53.5 -18t29.5 -64h75q113 0 167.5 -48t54.5 -135q0 -89 -60.5 -138.5t-165.5 -49.5h-71v-37q0 -52 -27 -72.5t-56 -20.5q-30 0 -57 20t-27 73z" />
    <glyph glyph-name="ugrave.sc" horiz-adv-x="646" 
d="M580 480v-262q0 -107 -69.5 -170.5t-189.5 -63.5q-118 0 -186.5 63.5t-68.5 170.5v262q0 53 27 73t57 20q17 0 33.5 -5.5t33 -28t16.5 -59.5v-251q0 -46 23.5 -72.5t65.5 -26.5q43 0 67 26.5t24 72.5v251q0 53 27 73t57 20q17 0 33.5 -5.5t33 -28t16.5 -59.5zM276 634
l-68 45q-43 28 -43 63q0 23 16 39t40 16t58 -25l65 -47q41 -29 41 -61q0 -22 -15 -37t-38 -15q-22 0 -56 22z" />
    <glyph glyph-name="uacute.sc" horiz-adv-x="646" 
d="M580 480v-262q0 -107 -69.5 -170.5t-189.5 -63.5q-118 0 -186.5 63.5t-68.5 170.5v262q0 53 27 73t57 20q17 0 33.5 -5.5t33 -28t16.5 -59.5v-251q0 -46 23.5 -72.5t65.5 -26.5q43 0 67 26.5t24 72.5v251q0 53 27 73t57 20q17 0 33.5 -5.5t33 -28t16.5 -59.5zM434 679
l-68 -45q-34 -22 -56 -22q-23 0 -38 15t-15 37q0 32 41 61l65 47q34 25 58 25t40 -16t16 -39q0 -35 -43 -63z" />
    <glyph glyph-name="ucircumflex.sc" horiz-adv-x="646" 
d="M580 480v-262q0 -107 -69.5 -170.5t-189.5 -63.5q-118 0 -186.5 63.5t-68.5 170.5v262q0 53 27 73t57 20q17 0 33.5 -5.5t33 -28t16.5 -59.5v-251q0 -46 23.5 -72.5t65.5 -26.5q43 0 67 26.5t24 72.5v251q0 53 27 73t57 20q17 0 33.5 -5.5t33 -28t16.5 -59.5zM326 693
l-80 -63q-22 -18 -42 -18t-33.5 14t-13.5 33q0 25 25 45l81 66q35 27 61 27q28 0 61 -27l82 -66q24 -19 24 -45q0 -19 -13.5 -33t-34.5 -14q-19 0 -42 18z" />
    <glyph glyph-name="utilde.sc" horiz-adv-x="646" 
d="M580 480v-262q0 -107 -69.5 -170.5t-189.5 -63.5q-118 0 -186.5 63.5t-68.5 170.5v262q0 53 27 73t57 20q17 0 33.5 -5.5t33 -28t16.5 -59.5v-251q0 -46 23.5 -72.5t65.5 -26.5q43 0 67 26.5t24 72.5v251q0 53 27 73t57 20q17 0 33.5 -5.5t33 -28t16.5 -59.5zM421 736
q21 29 44 29q18 0 29.5 -11t11.5 -29q0 -11 -5 -24q-31 -76 -110 -76q-39 0 -76 21q-36 20 -55 20t-33 -18q-21 -29 -44 -29q-18 0 -29.5 11t-11.5 29q0 11 5 24q31 76 110 76q39 0 76 -21q36 -20 55 -20t33 18z" />
    <glyph glyph-name="udieresis.sc" horiz-adv-x="646" 
d="M580 480v-262q0 -107 -69.5 -170.5t-189.5 -63.5q-118 0 -186.5 63.5t-68.5 170.5v262q0 53 27 73t57 20q17 0 33.5 -5.5t33 -28t16.5 -59.5v-251q0 -46 23.5 -72.5t65.5 -26.5q43 0 67 26.5t24 72.5v251q0 53 27 73t57 20q17 0 33.5 -5.5t33 -28t16.5 -59.5zM514 708
q0 -34 -24.5 -58t-58.5 -24q-35 0 -59 24t-24 58q0 33 24 57t59 24q34 0 58.5 -23.5t24.5 -57.5zM297 708q0 -34 -24.5 -58t-59.5 -24q-34 0 -58.5 24t-24.5 58q0 33 24.5 57t58.5 24q35 0 59.5 -23.5t24.5 -57.5z" />
    <glyph glyph-name="umacron.sc" horiz-adv-x="646" 
d="M580 480v-262q0 -107 -69.5 -170.5t-189.5 -63.5q-118 0 -186.5 63.5t-68.5 170.5v262q0 53 27 73t57 20q17 0 33.5 -5.5t33 -28t16.5 -59.5v-251q0 -46 23.5 -72.5t65.5 -26.5q43 0 67 26.5t24 72.5v251q0 53 27 73t57 20q17 0 33.5 -5.5t33 -28t16.5 -59.5zM201 742
h244q30 0 42 -15.5t12 -32.5q0 -10 -3.5 -20t-16.5 -19t-34 -9h-244q-30 0 -42 15.5t-12 32.5q0 10 3.5 20t16.5 19t34 9z" />
    <glyph glyph-name="ubreve.sc" horiz-adv-x="646" 
d="M580 480v-262q0 -107 -69.5 -170.5t-189.5 -63.5q-118 0 -186.5 63.5t-68.5 170.5v262q0 53 27 73t57 20q17 0 33.5 -5.5t33 -28t16.5 -59.5v-251q0 -46 23.5 -72.5t65.5 -26.5q43 0 67 26.5t24 72.5v251q0 53 27 73t57 20q17 0 33.5 -5.5t33 -28t16.5 -59.5zM322 710
q54 0 75 33t47 33q19 0 31.5 -12.5t12.5 -30.5q0 -12 -4 -22q-35 -89 -162 -89t-162 89q-4 10 -4 22q0 18 12.5 30.5t31.5 12.5q26 0 47 -33t75 -33z" />
    </font>
</defs>
</svg>
